<?xml version="1.0" encoding="UTF-8" standalone="no"?>
<svg
   width="24"
   height="24"
   viewBox="0 0 24 24"
   fill="none"
   stroke="currentColor"
   stroke-width="2"
   stroke-linecap="round"
   stroke-linejoin="round"
   class="feather feather-github"
   version="1.1"
   id="svg12289"
   sodipodi:docname="discord.svg"
   inkscape:version="1.2.2 (732a01da63, 2022-12-09)"
   xml:space="preserve"
   xmlns:inkscape="http://www.inkscape.org/namespaces/inkscape"
   xmlns:sodipodi="http://sodipodi.sourceforge.net/DTD/sodipodi-0.dtd"
   xmlns="http://www.w3.org/2000/svg"
   xmlns:svg="http://www.w3.org/2000/svg"><defs
     id="defs12293"><style
       id="style303">.cls-1{fill:#fff;}</style></defs><sodipodi:namedview
     id="namedview12291"
     pagecolor="#ffffff"
     bordercolor="#000000"
     borderopacity="0.25"
     inkscape:showpageshadow="2"
     inkscape:pageopacity="0.0"
     inkscape:pagecheckerboard="0"
     inkscape:deskcolor="#d1d1d1"
     showgrid="false"
     inkscape:zoom="43.875"
     inkscape:cx="14.860399"
     inkscape:cy="13.538462"
     inkscape:window-width="3840"
     inkscape:window-height="2054"
     inkscape:window-x="3829"
     inkscape:window-y="-11"
     inkscape:window-maximized="1"
     inkscape:current-layer="svg12289" /><path
     id="path7961"
     style="color:#000000;fill:#b5df57;stroke:none;-inkscape-stroke:none"
     d="M 9.3652344 3.0527344 C 9.2636678 3.0531975 9.1610759 3.0617755 9.0585938 3.078125 C 7.5701714 3.3298082 6.119724 3.7733491 4.7460938 4.3964844 C 4.4123926 4.5475661 4.126604 4.7874124 3.9199219 5.0898438 C 1.2591077 8.9938842 0.47593555 13.025586 0.83984375 16.8125 C 0.8943246 17.380065 1.1885114 17.897379 1.6484375 18.234375 C 3.2465356 19.405318 5.0354037 20.294281 6.9355469 20.865234 C 7.7389535 21.10702 8.6078629 20.821543 9.1113281 20.150391 C 9.3588365 19.820265 9.5503541 19.454898 9.765625 19.103516 C 11.246898 19.360891 12.751119 19.360669 14.232422 19.103516 C 14.44806 19.455277 14.640481 19.822077 14.888672 20.152344 C 15.391245 20.821058 16.256968 21.106255 17.058594 20.867188 C 18.961348 20.298229 20.752332 19.407019 22.351562 18.234375 C 22.809792 17.897881 23.103124 17.382241 23.158203 16.816406 C 23.586669 12.409617 22.382915 8.4370384 20.066406 5.078125 C 19.860256 4.7793943 19.576682 4.5424078 19.246094 4.3925781 C 17.872735 3.769041 16.424209 3.3279007 14.935547 3.078125 C 14.114382 2.9455943 13.29693 3.3352642 12.882812 4.0566406 C 12.289849 4.0243727 11.700376 4.0241587 11.107422 4.0566406 C 10.745543 3.4267449 10.0762 3.0494926 9.3652344 3.0527344 z M 9.3925781 5.0488281 A 10.527867 10.440468 0 0 1 9.8808594 6.0351562 A 14.209785 14.09182 0 0 1 14.115234 6.0351562 A 10.482771 10.395747 0 0 1 14.603516 5.0488281 A 15.296467 15.169481 0 0 1 18.419922 6.2128906 C 20.513268 9.2482208 21.553969 12.67308 21.169922 16.623047 A 15.311014 15.183908 0 0 1 16.486328 18.951172 A 11.201407 11.108417 0 0 1 15.484375 17.349609 A 9.9910738 9.9081315 0 0 0 17.064453 16.601562 C 16.933527 16.513562 16.804296 16.414928 16.677734 16.3125 A 10.99338 10.902117 0 0 1 7.3222656 16.3125 C 7.1971597 16.407715 7.067926 16.506347 6.9355469 16.601562 A 9.9532501 9.8706222 0 0 0 8.5136719 17.347656 A 11.303238 11.209403 0 0 1 7.5097656 18.951172 A 15.380841 15.253155 0 0 1 2.8300781 16.621094 C 2.5027659 13.215003 3.1574236 9.7599381 5.5722656 6.2167969 A 15.404117 15.276237 0 0 1 9.3925781 5.0488281 z M 8.9238281 10.857422 C 7.988441 10.857422 7.2617188 11.685462 7.2617188 12.695312 C 7.2617188 13.705165 8.0156232 14.525391 8.9277344 14.525391 C 9.8573034 14.525391 10.575797 13.705165 10.591797 12.695312 C 10.6078 11.685462 9.8592161 10.857422 8.9238281 10.857422 z M 15.072266 10.857422 C 14.135423 10.857422 13.408203 11.68546 13.408203 12.695312 C 13.408203 13.705166 14.158698 14.525391 15.072266 14.525391 C 16.001835 14.525391 16.718375 13.705166 16.734375 12.695312 C 16.750375 11.68546 16.009109 10.857422 15.072266 10.857422 z " /></svg>
