<?xml version="1.0" encoding="UTF-8" standalone="no"?>
<!-- Created with Inkscape (http://www.inkscape.org/) -->

<svg
   width="639.64276"
   height="79.488266"
   viewBox="0 0 639.64276 79.488266"
   version="1.1"
   id="svg5"
   inkscape:version="1.2.1 (9c6d41e410, 2022-07-14)"
   sodipodi:docname="melonfunction_banner.svg"
   xmlns:inkscape="http://www.inkscape.org/namespaces/inkscape"
   xmlns:sodipodi="http://sodipodi.sourceforge.net/DTD/sodipodi-0.dtd"
   xmlns="http://www.w3.org/2000/svg"
   xmlns:svg="http://www.w3.org/2000/svg">
  <sodipodi:namedview
     id="namedview7"
     pagecolor="#000000"
     bordercolor="#000000"
     borderopacity="0"
     inkscape:showpageshadow="2"
     inkscape:pageopacity="0"
     inkscape:pagecheckerboard="true"
     inkscape:deskcolor="#252525"
     inkscape:document-units="px"
     showgrid="false"
     showborder="false"
     borderlayer="true"
     inkscape:zoom="3.1520699"
     inkscape:cx="267.60193"
     inkscape:cy="172.26775"
     inkscape:window-width="3840"
     inkscape:window-height="2078"
     inkscape:window-x="3840"
     inkscape:window-y="45"
     inkscape:window-maximized="1"
     inkscape:current-layer="layer1" />
  <defs
     id="defs2" />
  <g
     inkscape:label="Layer 1"
     inkscape:groupmode="layer"
     id="layer1"
     transform="translate(-2544.436,-1891.2965)">
    <text
       xml:space="preserve"
       style="font-weight:300;font-size:2.82223px;line-height:1.2;font-family:nunito;-inkscape-font-specification:'nunito Light';fill:#ffffff;stroke:#bbbbbb;stroke-width:0.750001;stroke-linecap:round;stroke-linejoin:round;paint-order:stroke fill markers"
       x="196.78522"
       y="213.11134"
       id="text1101"><tspan
         sodipodi:role="line"
         id="tspan1099"
         x="196.78522"
         y="213.11134"
         style="font-style:normal;font-variant:normal;font-weight:normal;font-stretch:normal;font-family:'Noto Color Emoji';-inkscape-font-specification:'Noto Color Emoji';stroke-width:0.75" /><tspan
         sodipodi:role="line"
         x="196.78522"
         y="216.49802"
         style="font-style:normal;font-variant:normal;font-weight:normal;font-stretch:normal;font-family:'Noto Color Emoji';-inkscape-font-specification:'Noto Color Emoji';stroke-width:0.75"
         id="tspan1153" /></text>
    <text
       xml:space="preserve"
       style="font-style:normal;font-variant:normal;font-weight:normal;font-stretch:normal;font-size:2.82223px;line-height:1.2;font-family:'Noto Color Emoji';-inkscape-font-specification:'Noto Color Emoji';fill:#ffffff;stroke:#bbbbbb;stroke-width:0.750001;stroke-linecap:round;stroke-linejoin:round;paint-order:stroke fill markers"
       x="198.10013"
       y="217.06898"
       id="text1157"><tspan
         sodipodi:role="line"
         id="tspan1155"
         x="198.10013"
         y="217.06898"
         style="stroke-width:0.75" /></text>
    <text
       xml:space="preserve"
       style="font-style:normal;font-variant:normal;font-weight:normal;font-stretch:normal;font-size:2.82223px;line-height:1.2;font-family:'Noto Color Emoji';-inkscape-font-specification:'Noto Color Emoji';fill:#ffffff;stroke:none;stroke-width:0.750001;stroke-linecap:round;stroke-linejoin:round;paint-order:stroke fill markers"
       x="161.91939"
       y="198.98232"
       id="text1315"><tspan
         sodipodi:role="line"
         id="tspan1313"
         x="161.91939"
         y="198.98232"
         style="fill:#ffffff;stroke:none;stroke-width:0.75" /></text>
    <g
       id="g3282"
       transform="matrix(3.7795276,0,0,3.7795276,2420.686,989.30631)">
      <path
         style="color:#000000;font-weight:300;font-size:19.7556px;font-family:nunito;-inkscape-font-specification:'Nunito Heavy';letter-spacing:-0.529167px;word-spacing:-0.0396875px;fill:#5e8b23;stroke:#5e8b23;stroke-width:1;stroke-linecap:butt;stroke-linejoin:miter;stroke-miterlimit:3.2;stroke-dasharray:none;stroke-opacity:1;paint-order:stroke fill markers"
         d="m 36.480469,240.39844 c -0.810014,0 -1.677061,0.24692 -2.308594,0.84375 -0.65039,0.60428 -0.929687,1.50259 -0.929688,2.3164 v 10.96289 c 0,0.78932 0.238033,1.64353 0.828125,2.26172 a 1.50015,1.50015 0 0 0 0.02539,0.0254 c 0.611158,0.61117 1.483337,0.87305 2.285156,0.87305 0.808283,0 1.697319,-0.256 2.310547,-0.89844 0.590093,-0.61819 0.830078,-1.4724 0.830078,-2.26172 v -0.44726 c 0.247188,0.40465 0.550051,0.78441 0.96875,1.07226 0.511272,0.35152 1.110889,0.48047 1.660157,0.48047 0.54894,0 1.152221,-0.12301 1.679687,-0.5039 0.413423,-0.2908 0.731367,-0.65683 0.988281,-1.06055 v 0.45898 c 0,0.78932 0.239985,1.64353 0.830078,2.26172 a 1.50015,1.50015 0 0 0 0.02344,0.0254 c 0.611158,0.61117 1.483337,0.87305 2.285156,0.87305 0.808283,0 1.697319,-0.256 2.310547,-0.89844 0.590094,-0.61819 0.830078,-1.4724 0.830078,-2.26172 v -10.96289 c 0,-0.79719 -0.25571,-1.66905 -0.878906,-2.28125 -0.604178,-0.61503 -1.470986,-0.8789 -2.261719,-0.8789 -0.658935,0 -1.33636,0.13246 -1.93164,0.52734 -0.542416,0.3554 -0.912041,0.83029 -1.222657,1.36524 a 1.50015,1.50015 0 0 0 -0.01367,0.0254 l -2.574218,4.64257 -2.582032,-4.63671 -0.0039,-0.004 c -0.299102,-0.54424 -0.691085,-1.03057 -1.24414,-1.38477 -0.590986,-0.39923 -1.257285,-0.53515 -1.904297,-0.53515 z m 11.597656,2.9707 a 1.50015,1.50015 0 0 0 0.04883,0.0488 c -0.06293,-0.0601 -0.0293,-0.13107 -0.0293,0.14062 v 3.71289 a 1.50015,1.50015 0 0 0 -1.365234,-1.04492 h -0.414063 a 1.50015,1.50015 0 0 0 -0.599609,0.59961 l 1.679687,-3.0293 c 0.161648,-0.27839 0.290519,-0.37692 0.269532,-0.36328 a 1.50015,1.50015 0 0 0 0.01563,-0.01 c -0.04344,0.029 0.01248,-0.0254 0.273437,-0.0254 0.251818,0 0.172959,0.025 0.121094,-0.0293 z m -11.597656,0.0293 c 0.260962,0 0.299919,0.0572 0.226562,0.006 a 1.50015,1.50015 0 0 0 0.07031,0.0469 c -0.02311,-0.0143 0.08342,0.057 0.224609,0.31445 a 1.50015,1.50015 0 0 0 0.0039,0.008 l 1.783203,3.20117 a 1.50015,1.50015 0 0 0 -0.767578,-0.76758 h -0.455078 a 1.50015,1.50015 0 0 0 -1.298828,2.24805 l 0.253906,0.4414 v 5.625 c 0,0.26432 -0.03694,0.22815 0,0.18946 0.06007,-0.0629 0.131065,-0.0293 -0.140625,-0.0293 -0.215858,0 -0.167913,-0.0104 -0.140625,0.004 0.01659,0.0283 0.002,0.0648 0.002,-0.16407 v -10.96289 c 0,-0.2595 0.02089,-0.16835 -0.03516,-0.11718 a 1.50015,1.50015 0 0 0 0.02539,-0.0234 c -0.02666,0.0255 -0.04321,-0.0195 0.248047,-0.0195 z m 11.617187,4.70508 v 6.41796 c 0,0.26432 -0.03694,0.22815 0,0.18946 0.06007,-0.0629 0.131065,-0.0293 -0.140625,-0.0293 -0.212862,0 -0.165077,-0.009 -0.138672,0.004 0.01658,0.0283 0,0.0648 0,-0.16407 v -5.67382 l 0.214844,-0.37305 a 1.50015,1.50015 0 0 0 0.06445,-0.37109 z m -6.224609,4.0664 h 0.574219 l -0.169922,0.29492 c -0.07263,0.1097 -0.103303,0.13607 -0.125,0.15625 -0.01634,-0.0162 -0.03,-0.0191 -0.09375,-0.12695 z m 0.263672,0.4707 c -0.0027,0.002 -0.0282,0.0338 -0.02734,0.0332 a 1.50015,1.50015 0 0 0 -0.03711,0.0273 c 0.11138,-0.0817 0.115747,-0.0643 0.06445,-0.0605 z"
         id="path2182" />
      <path
         style="color:#000000;font-weight:300;font-size:19.7556px;font-family:nunito;-inkscape-font-specification:'Nunito Heavy';letter-spacing:-0.529167px;word-spacing:-0.0396875px;fill:#5e8b23;stroke:#5e8b23;stroke-width:1;stroke-linecap:butt;stroke-linejoin:miter;stroke-miterlimit:3.2;stroke-dasharray:none;stroke-opacity:1;paint-order:stroke fill markers"
         d="m 56.0625,244.56641 c -1.205646,0 -2.362895,0.27701 -3.375,0.84179 -0.989862,0.54671 -1.810123,1.3498 -2.384766,2.33008 a 1.50015,1.50015 0 0 0 -0.0039,0.008 c -0.579457,1.00089 -0.853515,2.16086 -0.853516,3.37891 0,1.26198 0.289632,2.45865 0.90625,3.48047 0.610142,1.01109 1.515109,1.81666 2.597657,2.34961 a 1.50015,1.50015 0 0 0 0.02539,0.0117 c 1.10672,0.51982 2.361195,0.7539 3.71875,0.7539 0.624217,0 1.245392,-0.0629 1.855469,-0.1875 0.626104,-0.12521 1.224894,-0.31721 1.791016,-0.57422 0.529303,-0.23178 1.049264,-0.63711 1.359375,-1.19531 a 1.50015,1.50015 0 0 0 0.01563,-0.0293 c 0.236717,-0.44974 0.377077,-0.98622 0.349609,-1.52343 v -0.002 c -0.02411,-0.47572 -0.210083,-0.96274 -0.482422,-1.3789 a 1.50015,1.50015 0 0 0 0.05273,-0.043 c 0.513157,-0.46652 0.707031,-1.16472 0.707031,-1.70313 0,-0.90351 -0.133475,-1.76499 -0.419922,-2.56445 -0.27361,-0.79997 -0.704451,-1.52797 -1.28125,-2.125 -0.572063,-0.60497 -1.279188,-1.06928 -2.0625,-1.36719 -0.784331,-0.31136 -1.633043,-0.46093 -2.515625,-0.46093 z m 1.876953,2.72265 0.0293,0.0195 c -0.0048,-0.003 -0.0108,-8.9e-4 -0.01563,-0.004 -0.006,-0.004 -0.0076,-0.012 -0.01367,-0.0156 z m -3.591797,0.0801 c -0.0028,0.002 -0.003,0.006 -0.0059,0.008 -0.0023,0.001 -0.0055,4.6e-4 -0.0078,0.002 z m -1.283203,1.71484 c -0.06165,0.16866 -0.05616,0.35682 -0.0957,0.53125 a 1.50015,1.50015 0 0 0 -0.212891,0.21289 c 0.06325,-0.17325 0.04834,-0.42095 0.136719,-0.57421 0.04433,-0.0755 0.124655,-0.10057 0.171875,-0.16993 z m 7.142578,2.64454 0.06836,0.0234 c -0.01289,-0.005 -0.0242,0.006 -0.03711,0.002 -0.01243,-0.004 -0.01881,-0.0215 -0.03125,-0.0254 z m -7.505859,0.43945 a 1.50015,1.50015 0 0 0 0.224609,0.22461 c 0.09902,0.42165 0.307763,0.79132 0.542969,1.15234 -0.166887,-0.16888 -0.422637,-0.27916 -0.548828,-0.48828 -0.140475,-0.23279 -0.138848,-0.60238 -0.21875,-0.88867 z m 8.83789,0.53906 0.0625,0.0918 c -0.0092,-0.0147 -0.03145,-0.0167 -0.04102,-0.0312 -0.01245,-0.018 -0.0086,-0.043 -0.02148,-0.0606 z"
         id="path2188" />
      <path
         style="color:#000000;font-weight:300;font-size:19.7556px;font-family:nunito;-inkscape-font-specification:'Nunito Heavy';letter-spacing:-0.529167px;word-spacing:-0.0396875px;fill:#5e8b23;stroke:#5e8b23;stroke-width:1;stroke-linecap:butt;stroke-linejoin:miter;stroke-miterlimit:3.2;stroke-dasharray:none;stroke-opacity:1;paint-order:stroke fill markers"
         d="m 63.572266,240.39844 c -0.826967,0 -1.718023,0.2688 -2.34375,0.89453 -0.641097,0.6411 -0.894532,1.54195 -0.894532,2.38281 v 8.45703 c 0,1.58607 0.339394,3.00348 1.25586,4.0625 a 1.50015,1.50015 0 0 0 0.01953,0.0234 c 0.953429,1.05707 2.389939,1.50195 3.919922,1.50195 0.248116,0 0.498142,-0.0189 0.751953,-0.0527 0.195474,-0.0261 0.343383,-0.0444 0.441406,-0.0566 a 1.50015,1.50015 0 0 0 0.06836,-0.01 c 0.62261,-0.10735 1.290345,-0.40042 1.751953,-0.96094 a 1.50015,1.50015 0 0 0 0.02734,-0.0312 c 0.473648,-0.60897 0.591797,-1.30778 0.591797,-1.96875 0,-0.62376 0.06301,-1.11927 -0.423828,-1.85156 -0.36168,-0.56166 -1.150546,-0.95117 -1.748047,-0.95117 a 1.50015,1.50015 0 0 0 -0.138672,0.006 v -8.16797 c 0,-0.84632 -0.27654,-1.75755 -0.927734,-2.39062 -0.632745,-0.62512 -1.52283,-0.88672 -2.351562,-0.88672 z m 0,3 c 0.298884,0 0.271716,0.0432 0.24414,0.0156 a 1.50015,1.50015 0 0 0 0.02344,0.0215 c -0.02889,-0.0277 0.01172,-0.0665 0.01172,0.24023 v 8.33789 c 0,0.67649 0.09529,1.38342 0.619141,2.01953 a 1.50015,1.50015 0 0 0 0.0332,0.0391 c 0.33136,0.37553 0.87488,0.50175 1.382813,0.62304 -8.24e-4,1.1e-4 -0.0011,-1.1e-4 -0.002,0 -0.141301,0.0188 -0.261155,0.0254 -0.355469,0.0254 -0.989639,0 -1.416674,-0.2252 -1.675781,-0.50781 -0.266113,-0.31378 -0.519532,-0.93731 -0.519532,-2.08008 v -8.45703 c 0,-0.31813 0.05088,-0.29698 0.01563,-0.26172 -0.01989,0.0199 -0.05669,-0.0156 0.222657,-0.0156 z m 2.820312,8.52343 c 5.03e-4,5e-5 0.0014,0.002 0.002,0.002 -0.03432,0.008 -0.0693,0.009 -0.103515,0.0176 z"
         id="path2194" />
      <path
         style="color:#000000;font-weight:300;font-size:19.7556px;font-family:nunito;-inkscape-font-specification:'Nunito Heavy';letter-spacing:-0.529167px;word-spacing:-0.0396875px;fill:#5e8b23;stroke:#5e8b23;stroke-width:1;stroke-linecap:butt;stroke-linejoin:miter;stroke-miterlimit:3.2;stroke-dasharray:none;stroke-opacity:1;paint-order:stroke fill markers"
         d="m 73,244.56641 c -0.95758,0 -1.867591,0.14208 -2.708984,0.44336 -0.832669,0.28536 -1.591119,0.73057 -2.220704,1.32226 -0.639709,0.58851 -1.135871,1.32307 -1.460937,2.14258 -0.331796,0.82313 -0.482422,1.7235 -0.482422,2.66992 0,1.25565 0.280854,2.44463 0.878906,3.46484 0.586754,1.00093 1.45036,1.80748 2.490235,2.33594 1.0454,0.53127 2.234911,0.77539 3.503906,0.77539 0.942739,0 1.841247,-0.13227 2.675781,-0.41601 0.0059,-10e-4 0.01173,-0.003 0.01758,-0.004 0.841427,-0.29697 1.602005,-0.74132 2.228516,-1.33203 0.63454,-0.59929 1.12622,-1.33727 1.451172,-2.1582 0.327644,-0.82774 0.482422,-1.72795 0.482422,-2.66602 0,-1.26173 -0.279285,-2.44933 -0.88086,-3.46289 -0.574282,-1.00203 -1.431367,-1.81264 -2.46875,-2.33984 -1.0454,-0.53127 -2.236864,-0.77539 -3.505859,-0.77539 z m 2.080078,3.43554 c 0.01761,0.009 0.04905,0.005 0.06641,0.0137 0.07813,0.0397 0.09879,0.11944 0.169922,0.16211 -0.06768,-0.0704 -0.161486,-0.11172 -0.236328,-0.17578 z m -4.158203,0.0469 c -0.350591,0.32603 -0.713681,0.6552 -0.894531,1.07422 -0.280359,0.63542 -0.363282,1.29898 -0.363282,2.02148 0,1.03207 0.18916,2.00004 0.833985,2.79297 -0.339042,-0.24252 -0.682927,-0.46807 -0.904297,-0.8457 -0.297534,-0.50756 -0.466797,-1.122 -0.466797,-1.94727 0,-0.63189 0.09851,-1.13935 0.265625,-1.55273 0.0013,-0.003 0.0026,-0.007 0.0039,-0.01 0.174211,-0.44011 0.403048,-0.76822 0.707032,-1.04687 0.0052,-0.005 0.01045,-0.009 0.01563,-0.0137 0.21783,-0.20572 0.515125,-0.33411 0.802734,-0.47265 z m 4.5,0.19726 0.01563,0.0195 c -0.0021,-0.002 -0.0057,-0.003 -0.0078,-0.006 -0.0037,-0.004 -0.0041,-0.01 -0.0078,-0.0137 z m 0.03125,0.0605 c 0.357367,0.24596 0.704367,0.4839 0.925781,0.87305 0.0051,0.009 0.01034,0.017 0.01563,0.0254 0.289633,0.48556 0.460938,1.09832 0.460938,1.93945 0,0.61604 -0.09865,1.12392 -0.271485,1.56055 -0.175522,0.44342 -0.406975,0.78573 -0.720703,1.08203 -0.196259,0.18504 -0.495933,0.31451 -0.77539,0.45508 0.348571,-0.33088 0.701143,-0.67343 0.876953,-1.10157 0.264571,-0.62535 0.353515,-1.28652 0.353515,-1.99609 0,-1.05248 -0.179642,-2.03772 -0.865234,-2.83789 z m -4.695313,5.87308 c 0.04067,0.0391 0.09376,0.0627 0.136719,0.0996 -0.01029,-0.005 -0.02886,-0.003 -0.03906,-0.008 -0.04399,-0.0223 -0.05579,-0.0685 -0.09766,-0.0918 z"
         id="path2200"
         sodipodi:nodetypes="ccccsssscccsscsccsccssccscsssccccccccccsccsscccsssccccc" />
      <path
         style="color:#000000;font-weight:300;font-size:19.7556px;font-family:nunito;-inkscape-font-specification:'Nunito Heavy';letter-spacing:-0.529167px;word-spacing:-0.0396875px;fill:#5e8b23;stroke:#5e8b23;stroke-width:1;stroke-linecap:butt;stroke-linejoin:miter;stroke-miterlimit:3.2;stroke-dasharray:none;stroke-opacity:1;paint-order:stroke fill markers"
         d="m 86.003906,244.56641 c -0.97001,0 -1.91644,0.22376 -2.74414,0.68359 a 1.50015,1.50015 0 0 0 -0.01172,0.006 c -0.0252,0.0143 -0.03368,0.0477 -0.05859,0.0625 -0.59264,-0.45984 -1.31984,-0.71289 -2.025391,-0.71289 -0.826966,0 -1.719975,0.2688 -2.345703,0.89453 a 1.50015,1.50015 0 0 0 -0.02148,0.0234 c -0.612499,0.64034 -0.851563,1.51965 -0.851563,2.34179 v 6.53907 c 0,0.84086 0.253431,1.74171 0.894532,2.38281 0.625728,0.62573 1.516783,0.89453 2.34375,0.89453 0.842668,0 1.744645,-0.23292 2.394531,-0.88281 0.605869,-0.60587 0.825146,-1.43095 0.855469,-2.22266 0.03255,0.79019 0.267645,1.61335 0.865234,2.21094 0.633414,0.63341 1.531466,0.89453 2.365234,0.89453 0.83377,0 1.729868,-0.26112 2.363282,-0.89453 0.6411,-0.6411 0.894531,-1.54195 0.894531,-2.38281 v -4.14844 c 0,-1.07799 -0.134043,-2.04382 -0.482422,-2.9082 -0.345666,-0.87097 -0.949829,-1.64083 -1.757812,-2.11329 -0.79158,-0.47484 -1.711406,-0.66796 -2.677735,-0.66796 z m 0,3 c 0.582137,0 0.93435,0.11343 1.140625,0.23828 a 1.50015,1.50015 0 0 0 0.02539,0.0156 c 0.184915,0.10706 0.329272,0.24982 0.482422,0.63672 a 1.50015,1.50015 0 0 0 0.0039,0.01 c 0.150487,0.37225 0.265625,0.97273 0.265625,1.78906 v 4.14844 c 0,0.31813 -0.05089,0.29698 -0.01563,0.26172 0.02758,-0.0276 0.0567,0.0156 -0.242188,0.0156 -0.298883,0 -0.271716,-0.0432 -0.24414,-0.0156 0.03526,0.0353 -0.01367,0.0564 -0.01367,-0.26172 v -4.01172 c 0,-0.76273 -0.08747,-1.5181 -0.658203,-2.20899 -0.214848,-0.26531 -0.507389,-0.45043 -0.810547,-0.60156 0.02671,-5.6e-4 0.039,-0.0156 0.06641,-0.0156 z m -4.724609,0.0332 a 1.50015,1.50015 0 0 0 -0.08203,0.77148 l 0.216796,0.81055 a 1.50015,1.50015 0 0 0 0.261719,0.17383 c -0.143115,0.40612 -0.214844,0.83769 -0.214844,1.25586 v 3.79297 c 0,0.34267 -0.06112,0.3287 -0.0039,0.27148 0.05722,-0.0572 0.06923,0.006 -0.273437,0.006 -0.279347,0 -0.242548,-0.0355 -0.222657,-0.0156 0.03526,0.0353 -0.01563,0.0564 -0.01563,-0.26172 v -6.53907 c 0,-0.28554 0.03623,-0.2723 0.01758,-0.24609 -0.01798,0.009 -0.05118,-0.0137 0.201171,-0.0137 0.179204,0 0.120165,-0.005 0.115235,-0.006 z"
         id="path2206" />
      <path
         style="color:#000000;font-weight:300;font-size:19.7556px;font-family:nunito;-inkscape-font-specification:'Nunito Heavy';letter-spacing:-0.529167px;word-spacing:-0.0396875px;fill:#5e8b23;stroke:#5e8b23;stroke-width:1;stroke-linecap:butt;stroke-linejoin:miter;stroke-miterlimit:3.2;stroke-dasharray:none;stroke-opacity:1;paint-order:stroke fill markers"
         d="m 93.021484,240.57617 c -0.884965,0 -1.820822,0.272 -2.482422,0.9336 -0.654917,0.65491 -0.914062,1.57665 -0.914062,2.44335 v 10.35157 c 0,0.8667 0.258192,1.78059 0.892578,2.4414 0.01403,0.0146 0.02836,0.029 0.04297,0.043 0.646404,0.62056 1.550117,0.89258 2.402344,0.89258 0.860241,0 1.786464,-0.2581 2.43164,-0.93164 0.645177,-0.67354 0.865235,-1.58025 0.865235,-2.44531 v -2.33203 h 2.90625 c 0.71115,0 1.508373,-0.21505 2.087893,-0.78321 0.59246,-0.57048 0.83398,-1.39238 0.83398,-2.11914 0,-0.72023 -0.25164,-1.53665 -0.83203,-2.09765 -0.36327,-0.35699 -0.0219,-0.23928 -0.48264,-0.35076 0.61685,-0.0628 0.46656,-0.54722 0.9553,-1.03596 0.009,-0.01 0.0183,-0.0194 0.0273,-0.0293 0.55334,-0.58407 0.76758,-1.37955 0.76758,-2.09766 0,-0.71249 -0.22395,-1.51691 -0.79492,-2.08789 -0.59062,-0.59062 -1.40478,-0.79492 -2.12891,-0.79492 z m 0,3 h 1.542969 c -0.68255,0.0844 -1.220277,0.62214 -1.304687,1.30469 v 2.80664 c 0.05186,0.74656 0.646014,1.34072 1.392578,1.39258 -0.746564,0.0519 -1.340715,0.64602 -1.392578,1.39258 v 3.83203 c 0,0.38612 -0.07913,0.41903 -0.0332,0.37109 0.04592,-0.0479 0.07459,0.006 -0.263671,0.006 -0.271755,0 -0.274171,-0.0347 -0.28711,-0.0508 -0.008,-0.005 -0.05078,-0.0165 -0.05078,-0.32617 v -10.35157 c 0,-0.34497 0.05789,-0.345 0.03516,-0.32226 -0.0031,0.003 0.0083,-0.0547 0.361328,-0.0547 z m 6.160157,5.45117 c -0.0099,0.01 -0.01967,0.0194 -0.0293,0.0293 0.02214,-0.0221 -0.01769,-0.005 0.002,-0.0176 0.01384,-0.0255 -0.0021,0.0162 0.02734,-0.0117 z m -0.0293,0.0762 c 0.0096,0.009 0.01941,0.0183 0.0293,0.0273 -0.02682,-0.0254 -0.01376,0.008 -0.02734,-0.0176 -0.01208,-0.009 0.01052,0.003 -0.002,-0.01 z"
         id="path2212"
         sodipodi:nodetypes="ssssscssscscsccccssssccccccssscsscccsccssccccc" />
      <path
         style="color:#000000;font-weight:300;font-size:19.7556px;font-family:nunito;-inkscape-font-specification:'Nunito Heavy';letter-spacing:-0.529167px;word-spacing:-0.0396875px;fill:#5e8b23;stroke:#5e8b23;stroke-width:1;stroke-linecap:butt;stroke-linejoin:miter;stroke-miterlimit:3.2;stroke-dasharray:none;stroke-opacity:1;paint-order:stroke fill markers"
         d="m 103.2207,244.60547 c -0.82872,0 -1.71882,0.26161 -2.35156,0.88672 -0.65359,0.63441 -0.908203,1.53804 -0.908203,2.37304 v 4.14844 c 0,1.08716 0.144163,2.06456 0.515623,2.9375 a 1.50015,1.50015 0 0 0 0.01,0.0254 c 0.38611,0.86415 1.02584,1.60865 1.83789,2.08399 a 1.50015,1.50015 0 0 0 0.0234,0.0137 c 0.83043,0.46585 1.786,0.64648 2.80859,0.64648 0.88859,0 1.74548,-0.26365 2.49219,-0.71484 0.58978,0.43043 1.29825,0.67578 1.99219,0.67578 0.82795,0 1.73114,-0.25075 2.35937,-0.9082 0.62823,-0.65746 0.83984,-1.53759 0.83984,-2.36914 v -6.53907 c 0,-0.835 -0.25461,-1.73863 -0.9082,-2.37304 -0.63274,-0.62511 -1.52088,-0.88672 -2.34961,-0.88672 -0.82873,0 -1.71882,0.26161 -2.35156,0.88672 -0.53176,0.51615 -0.74988,1.21135 -0.83008,1.90234 -0.0802,-0.69098 -0.29832,-1.38618 -0.83008,-1.90234 -0.63274,-0.62511 -1.52088,-0.88672 -2.34961,-0.88672 z m 0,3 c 0.29889,0 0.26976,0.0432 0.24219,0.0156 a 1.50015,1.50015 0 0 0 0.0234,0.0234 c -0.0581,-0.0555 -0.008,-0.0974 -0.008,0.2207 v 4.2461 c 0,0.68247 0.13211,1.41246 0.64453,2.02734 0.20413,0.24496 0.47812,0.38589 0.74804,0.52539 -0.43869,-0.0368 -0.84422,-0.0929 -1.04101,-0.20117 -0.25838,-0.15368 -0.43277,-0.3432 -0.5957,-0.70312 -0.15312,-0.36586 -0.27344,-0.94473 -0.27344,-1.7461 v -4.14844 c 0,-0.31813 0.0502,-0.27622 -0.008,-0.2207 a 1.50015,1.50015 0 0 0 0.0234,-0.0234 c -0.0276,0.0276 -0.0547,-0.0156 0.24414,-0.0156 z m 6.36133,0 c 0.29888,0 0.26976,0.0432 0.24219,0.0156 a 1.50015,1.50015 0 0 0 0.0234,0.0234 c -0.0581,-0.0555 -0.008,-0.0974 -0.008,0.2207 v 6.53907 c 0,0.35378 -0.0717,0.36166 -0.01,0.29687 0.0619,-0.0648 0.11524,-0.0195 -0.18945,-0.0195 a 1.50015,1.50015 0 0 0 0.004,-0.92187 l -0.3164,-0.9668 a 1.50015,1.50015 0 0 0 -0.33399,-0.20313 c 0.0839,-0.32564 0.32813,-0.60213 0.32813,-0.93164 v -3.79297 c 0,-0.31813 0.0502,-0.27622 -0.008,-0.2207 a 1.50015,1.50015 0 0 0 0.0234,-0.0234 c -0.0276,0.0276 -0.0547,-0.0156 0.24414,-0.0156 z m -1.75586,9.34961 -0.0156,0.01 c 0.003,-0.002 0.003,-0.006 0.006,-0.008 0.003,-0.002 0.007,-9e-5 0.01,-0.002 z"
         id="path2218" />
      <path
         style="color:#000000;font-weight:300;font-size:19.7556px;font-family:nunito;-inkscape-font-specification:'Nunito Heavy';letter-spacing:-0.529167px;word-spacing:-0.0396875px;fill:#5e8b23;stroke:#5e8b23;stroke-width:1;stroke-linecap:butt;stroke-linejoin:miter;stroke-miterlimit:3.2;stroke-dasharray:none;stroke-opacity:1;paint-order:stroke fill markers"
         d="m 119.42383,244.56641 c -0.97001,0 -1.91644,0.22376 -2.74414,0.68359 a 1.50015,1.50015 0 0 0 -0.0117,0.006 c -0.0248,0.0141 -0.0341,0.046 -0.0586,0.0605 -0.59252,-0.45938 -1.32018,-0.71094 -2.0254,-0.71094 -0.82696,0 -1.71997,0.26879 -2.3457,0.89453 a 1.50015,1.50015 0 0 0 -0.0234,0.0234 c -0.6125,0.64034 -0.84961,1.51965 -0.84961,2.34179 v 6.53907 c 0,0.84086 0.25148,1.74171 0.89258,2.38281 0.62573,0.62573 1.51874,0.89453 2.34571,0.89453 0.84266,0 1.74464,-0.23292 2.39453,-0.88281 0.6044,-0.60441 0.82418,-1.42685 0.85547,-2.2168 0.0336,0.78836 0.26915,1.609 0.86523,2.20508 0.63341,0.63341 1.53147,0.89453 2.36523,0.89453 0.83377,0 1.72987,-0.26112 2.36329,-0.89453 0.6411,-0.6411 0.89453,-1.54195 0.89453,-2.38281 v -4.14844 c 0,-1.07799 -0.13404,-2.04382 -0.48242,-2.9082 -0.34567,-0.87098 -0.94983,-1.64083 -1.75782,-2.11329 -0.79158,-0.47484 -1.7114,-0.66796 -2.67773,-0.66796 z m 0,3 c 0.58214,0 0.93239,0.11342 1.13867,0.23828 a 1.50015,1.50015 0 0 0 0.0254,0.0156 c 0.18491,0.10706 0.33123,0.24982 0.48438,0.63672 a 1.50015,1.50015 0 0 0 0.004,0.01 c 0.15049,0.37225 0.26563,0.97273 0.26563,1.78906 v 4.14844 c 0,0.31813 -0.0509,0.29698 -0.0156,0.26172 0.0276,-0.0276 0.0567,0.0156 -0.24219,0.0156 -0.29888,0 -0.27171,-0.0432 -0.24414,-0.0156 0.0353,0.0353 -0.0156,0.0564 -0.0156,-0.26172 v -4.01172 c 0,-0.76164 -0.0877,-1.515 -0.65625,-2.20508 -0.21548,-0.26713 -0.5077,-0.45371 -0.8125,-0.60547 0.0274,-5.9e-4 0.0402,-0.0156 0.0684,-0.0156 z m -4.72656,0.0332 a 1.50015,1.50015 0 0 0 -0.0801,0.77148 l 0.21679,0.81055 a 1.50015,1.50015 0 0 0 0.26172,0.17383 c -0.14311,0.40611 -0.21484,0.83769 -0.21484,1.25586 v 3.79297 c 0,0.34267 -0.0611,0.3287 -0.004,0.27148 0.0572,-0.0572 0.0692,0.006 -0.27343,0.006 -0.27936,0 -0.2445,-0.0355 -0.22461,-0.0156 0.0353,0.0353 -0.0137,0.0564 -0.0137,-0.26172 v -6.53907 c 0,-0.28553 0.0343,-0.27229 0.0156,-0.24609 -0.018,0.009 -0.0495,-0.0137 0.20312,-0.0137 0.17618,0 0.11662,-0.005 0.11329,-0.006 z"
         id="path2224" />
      <path
         style="color:#000000;font-weight:300;font-size:19.7556px;font-family:nunito;-inkscape-font-specification:'nunito Light';letter-spacing:-0.529167px;word-spacing:-0.0396875px;fill:#5e8b23;stroke:#5e8b23;stroke-width:1;stroke-linecap:butt;stroke-linejoin:miter;stroke-miterlimit:3.2;stroke-dasharray:none;stroke-opacity:1;paint-order:stroke fill markers"
         d="m 129.26562,244.56641 c -0.95893,0 -1.87315,0.14069 -2.72265,0.43945 -0.82852,0.28287 -1.58643,0.71424 -2.22656,1.28516 -0.005,0.005 -0.0104,0.009 -0.0156,0.0137 -0.6432,0.58961 -1.13855,1.3278 -1.46484,2.15039 -0.33179,0.82313 -0.48242,1.7235 -0.48242,2.66992 0,1.25565 0.27869,2.44661 0.87109,3.47461 0.002,0.003 0.004,0.007 0.006,0.01 0.58675,1.00093 1.45231,1.80748 2.49219,2.33594 0.003,0.002 0.005,0.004 0.008,0.006 1.05604,0.52802 2.25526,0.76953 3.53515,0.76953 0.47186,0 0.94967,-0.0502 1.42969,-0.14062 0.54027,-0.0856 1.0689,-0.25605 1.58594,-0.48438 0.55259,-0.21236 1.11426,-0.61154 1.4375,-1.19336 0.005,-0.01 0.0105,-0.0195 0.0156,-0.0293 0.24184,-0.45938 0.37565,-1.00602 0.34961,-1.54102 v -0.002 c -0.025,-0.5178 1.27368,-2.42307 0.98738,-2.86554 -4.92045,-4.27755 -4.07764,2.16097 -1.45218,-2.03099 0.26684,-0.42493 0.42271,-0.92478 0.45313,-1.41797 0.0435,-0.52325 -0.0749,-1.08176 -0.32227,-1.55273 -0.30299,-0.60541 -0.86723,-1.05694 -1.43164,-1.27344 -0.52474,-0.22622 -1.0576,-0.39434 -1.59766,-0.48047 -0.49259,-0.0908 -0.97862,-0.14257 -1.45508,-0.14257 z m 1.2754,2.74804 0.0957,0.0176 c -0.0211,-0.005 -0.0433,-0.003 -0.0644,-0.008 -0.0108,-0.002 -0.0205,-0.008 -0.0312,-0.01 z m 1.0664,0.34375 c -10e-4,-5.5e-4 0.007,6.2e-4 0.006,0 l 0.0234,0.01 c -0.009,-0.005 -0.02,-0.005 -0.0293,-0.01 z m -3.95117,0.16016 c -0.25996,0.16372 -0.54131,0.29912 -0.74414,0.52734 -0.33806,0.36869 -0.58381,0.80249 -0.74219,1.25782 -0.006,0.0187 -0.0121,0.0376 -0.0176,0.0566 -0.14332,0.47091 -0.20312,0.96221 -0.20312,1.46484 0,1.01389 0.27571,2.02517 0.94531,2.78711 0.17716,0.2016 0.42987,0.30404 0.65039,0.45312 -0.13507,-0.0495 -0.34235,-0.0347 -0.46484,-0.0957 -0.56362,-0.28697 -0.94997,-0.65055 -1.25781,-1.17383 -0.30145,-0.52512 -0.46875,-1.14792 -0.46875,-1.9707 0,-0.63189 0.0985,-1.13934 0.26562,-1.55273 0.001,-0.003 0.003,-0.007 0.004,-0.01 0.17264,-0.43614 0.39933,-0.76008 0.69922,-1.03711 0.33088,-0.29363 0.71314,-0.51965 1.19531,-0.68359 0.005,-0.001 0.0104,-0.003 0.0156,-0.004 0.0349,-0.0123 0.0873,-0.008 0.12305,-0.0195 z"
         id="path2230"
         sodipodi:nodetypes="cccccsscccscccccccccccccccccccsccssccccsscccsssccccc" />
      <path
         style="color:#000000;font-weight:300;font-size:19.7556px;font-family:nunito;-inkscape-font-specification:'nunito Light';letter-spacing:-0.529167px;word-spacing:-0.0396875px;fill:#5e8b23;stroke:#5e8b23;stroke-width:1;stroke-linecap:butt;stroke-linejoin:miter;stroke-miterlimit:3.2;stroke-dasharray:none;stroke-opacity:1;paint-order:stroke fill markers"
         d="m 137.35902,241.78125 c -0.83377,0 -1.73182,0.26112 -2.36524,0.89453 -0.6411,0.6411 -0.89453,1.54196 -0.89453,2.38281 v 0.0312 c -0.41561,0.11411 -0.85785,0.12687 -1.1875,0.4375 -0.58732,0.55279 -0.80664,1.35395 -0.80664,2.04102 0,0.68707 0.21874,1.47264 0.77539,2.0293 0.01,0.01 0.0194,0.0197 0.0293,0.0293 0.3299,0.31159 0.77315,0.3251 1.18945,0.43946 v 2.02539 c 0,1.09335 0.18541,2.10651 0.63867,2.99414 0.002,0.004 0.004,0.008 0.006,0.0117 0.45836,0.87853 1.20776,1.59226 2.10352,2.02148 0.004,0.002 0.008,0.004 0.0117,0.006 0.91182,0.428 1.94677,0.5957 3.08789,0.5957 0.32133,0 0.63332,-0.0397 0.98632,-0.0977 0.36848,-0.0472 0.69873,-0.10499 1.03907,-0.22657 0.0137,-0.005 0.0274,-0.0102 0.041,-0.0156 0.59222,-0.23174 1.17292,-0.73084 1.45313,-1.35352 0.004,-0.008 0.008,-0.0169 0.0117,-0.0254 0.2204,-0.51428 0.29882,-1.05254 0.29882,-1.59765 0,-0.60973 0.12143,-1.18565 -0.61132,-1.94727 -0.41414,-0.44124 2.01224,-0.70024 1.45023,-0.66992 -0.25139,0.007 -0.49663,0.0334 -0.73242,0.0879 -0.0394,0.009 -0.0883,0.0125 -0.13672,0.0156 v -1.51757 h 0.11914 c 0.68693,0 -1.66278,-0.21222 -1.09672,-0.76953 0.56365,-0.54611 0.81055,-1.34101 0.81055,-2.03516 0,-0.68506 -0.25067,-1.48072 -0.82617,-2.02149 -0.565,-0.54766 -1.33593,-0.76171 -2.01758,-0.76171 H 140.572 c -0.0501,-0.75851 -0.27778,-1.53754 -0.84961,-2.10938 -0.63342,-0.63341 -1.52952,-0.89453 -2.36328,-0.89453 z m 0,3 c 0.29888,0 0.26976,0.0432 0.24218,0.0156 -0.0353,-0.0353 0.0156,-0.0564 0.0156,0.26172 v 1.22657 c 0.0882,0.6742 0.61877,1.2048 1.29297,1.29296 -0.67484,0.0884 -1.20563,0.61996 -1.29297,1.29493 v 3.10156 c 0,0.71704 0.16796,1.50517 0.74414,2.11523 0.0196,0.0207 0.0398,0.0409 0.0605,0.0605 0.22877,0.21607 0.49625,0.32402 0.75976,0.4375 -0.36725,-0.056 -0.82442,-0.0775 -1.04297,-0.17969 -0.36091,-0.17453 -0.55874,-0.36814 -0.73047,-0.69531 -0.17759,-0.3504 -0.30859,-0.87424 -0.30859,-1.62109 v -3.21875 c -0.0875,-0.6756 -0.61933,-1.20738 -1.29492,-1.29493 0.67496,-0.0873 1.20655,-0.61813 1.29492,-1.29296 v -1.22657 c 0,-0.31812 0.0509,-0.29697 0.0156,-0.26172 -0.0276,0.0276 -0.0548,-0.0156 0.24414,-0.0156 z"
         id="path2236"
         sodipodi:nodetypes="sssccscccsscccscccccscccccscscscsssssscccssscccscccssss" />
      <path
         style="color:#000000;font-weight:300;font-size:19.7556px;font-family:nunito;-inkscape-font-specification:'Nunito Heavy';letter-spacing:-0.529167px;word-spacing:-0.0396875px;fill:#5e8b23;stroke:#5e8b23;stroke-width:1;stroke-linecap:butt;stroke-linejoin:miter;stroke-miterlimit:3.2;stroke-dasharray:none;stroke-opacity:1;paint-order:stroke fill markers"
         d="m 145.26722,239.82617 c -0.85305,0 -1.7275,0.21143 -2.41016,0.78906 a 1.50015,1.50015 0 0 0 -0.0215,0.0195 c -0.67619,0.59504 -1.00391,1.52427 -1.00391,2.36914 0,0.85077 0.31926,1.78813 1.00391,2.39062 a 1.50015,1.50015 0 0 0 0.0215,0.0195 c 0.046,0.0389 0.10658,0.0464 0.1543,0.082 -0.0384,0.037 -0.0946,0.0485 -0.13086,0.0879 -0.62003,0.67395 -0.85156,1.57577 -0.85156,2.43946 v 6.24218 c 0,0.8637 0.23152,1.76355 0.85156,2.4375 0.61094,0.66406 1.53595,0.97852 2.38672,0.97852 0.86359,0 1.80213,-0.29851 2.42773,-0.97852 0.62004,-0.67395 0.85157,-1.5738 0.85157,-2.4375 v -6.24218 c 0,-0.86834 -0.25121,-1.78042 -0.88282,-2.44727 -0.0348,-0.0374 -0.0884,-0.0469 -0.125,-0.082 0.0567,-0.0429 0.12728,-0.0518 0.18164,-0.0996 0.68466,-0.60249 1.00391,-1.53985 1.00391,-2.39062 0,-0.84487 -0.32772,-1.7741 -1.00391,-2.36914 -0.69412,-0.61083 -1.58328,-0.8086 -2.45312,-0.8086 z m 0,3 c 0.42087,0 0.50826,0.0919 0.47266,0.0606 -0.0177,-0.0155 -0.0156,-0.11792 -0.0156,0.11719 0,0.25554 -0.0105,0.16166 0.0156,0.13867 0.0356,-0.0313 -0.0518,0.0605 -0.47266,0.0605 -0.36587,0 -0.43873,-0.0657 -0.44922,-0.0742 0.0174,0.0297 0.0137,0.10526 0.0137,-0.125 0,-0.20765 -0.002,-0.12981 -0.0137,-0.10352 0.0105,-0.009 0.0834,-0.0742 0.44922,-0.0742 z m 0,4.7793 c 0.27563,0 0.2136,0.0233 0.20117,0.01 a 1.50015,1.50015 0 0 0 0.0215,0.0234 c -0.009,-0.01 0.0566,0.0211 0.0566,0.38477 v 6.24218 c 0,0.37434 -0.0728,0.42169 -0.0586,0.40625 0.0198,-0.0215 0.0747,0.01 -0.2207,0.01 -0.25553,0 -0.18479,-0.0153 -0.17969,-0.01 0.0142,0.0154 -0.0586,-0.0319 -0.0586,-0.40625 v -6.24218 c 0,-0.37433 0.0728,-0.42363 0.0586,-0.40821 -0.005,0.006 -0.0758,-0.01 0.17969,-0.01 z"
         id="path2242" />
      <path
         style="color:#000000;font-weight:300;font-size:19.7556px;font-family:nunito;-inkscape-font-specification:'Nunito Heavy';letter-spacing:-0.529167px;word-spacing:-0.0396875px;fill:#5e8b23;stroke:#5e8b23;stroke-width:1;stroke-linecap:butt;stroke-linejoin:miter;stroke-miterlimit:3.2;stroke-dasharray:none;stroke-opacity:1;paint-order:stroke fill markers"
         d="m 153.47034,244.56641 c -0.95758,0 -1.86759,0.14208 -2.70898,0.44336 -0.83267,0.28536 -1.59112,0.73057 -2.2207,1.32226 -0.63971,0.5885 -1.13587,1.32307 -1.46094,2.14258 -0.33179,0.82313 -0.48242,1.7235 -0.48242,2.66992 0,1.25565 0.2789,2.44463 0.87695,3.46484 0.58675,1.00093 1.45231,1.80748 2.49219,2.33594 1.0454,0.53127 2.23491,0.77539 3.5039,0.77539 0.94274,0 1.84125,-0.13227 2.67579,-0.41601 0.006,-10e-4 0.0117,-0.003 0.0176,-0.004 0.84143,-0.29697 1.60201,-0.74132 2.22852,-1.33203 0.63454,-0.59929 1.12622,-1.33727 1.45117,-2.1582 0.32765,-0.82774 0.48047,-1.72795 0.48047,-2.66602 0,-1.26173 -0.27733,-2.44933 -0.87891,-3.46289 -0.57428,-1.00203 -1.43136,-1.81264 -2.46875,-2.33984 -1.0454,-0.53127 -2.23686,-0.77539 -3.50586,-0.77539 z m 2.08008,3.43554 c 0.0176,0.009 0.049,0.005 0.0664,0.0137 0.0781,0.0397 0.0988,0.11944 0.16992,0.16211 -0.0677,-0.0704 -0.16149,-0.11172 -0.23633,-0.17578 z m -4.1582,0.0469 c -0.35059,0.32603 -0.71368,0.6552 -0.89453,1.07422 -0.28037,0.63542 -0.36328,1.29898 -0.36328,2.02148 0,1.03207 0.18916,2.00004 0.83398,2.79297 -0.33904,-0.24252 -0.68293,-0.46807 -0.9043,-0.8457 -0.29753,-0.50756 -0.46679,-1.122 -0.46679,-1.94727 0,-0.63189 0.0985,-1.13935 0.26562,-1.55273 0.001,-0.003 0.003,-0.007 0.004,-0.01 0.17421,-0.44011 0.40305,-0.76822 0.70703,-1.04687 0.005,-0.005 0.0104,-0.009 0.0156,-0.0137 0.21783,-0.20572 0.51513,-0.33411 0.80274,-0.47265 z m 4.5,0.19726 0.0156,0.0195 c -0.002,-0.002 -0.006,-0.003 -0.008,-0.006 -0.004,-0.004 -0.004,-0.01 -0.008,-0.0137 z m 0.0312,0.0605 c 0.35737,0.24596 0.70436,0.48389 0.92578,0.87305 0.005,0.009 0.0103,0.017 0.0156,0.0254 0.28963,0.48556 0.45898,1.09832 0.45898,1.93945 0,0.61604 -0.0967,1.12393 -0.26953,1.56055 -0.17553,0.44343 -0.40698,0.78573 -0.7207,1.08203 -0.1958,0.18461 -0.49682,0.31278 -0.7754,0.45312 0.34667,-0.3294 0.6974,-0.66984 0.87305,-1.0957 0.26585,-0.62649 0.35742,-1.28897 0.35742,-2 0,-1.05248 -0.17964,-2.03772 -0.86523,-2.83789 z m -4.69336,5.875 c 0.0396,0.038 0.091,0.0617 0.13281,0.0977 -0.01,-0.005 -0.0274,-0.003 -0.0371,-0.008 -0.0431,-0.0219 -0.0547,-0.067 -0.0957,-0.0898 z"
         id="path2248"
         sodipodi:nodetypes="ccccsssscccsscsccsccssccscsssscccccccccsccsscccsssccccc" />
      <path
         style="color:#000000;font-weight:300;font-size:19.7556px;font-family:nunito;-inkscape-font-specification:'Nunito Heavy';letter-spacing:-0.529167px;word-spacing:-0.0396875px;fill:#5e8b23;stroke:#5e8b23;stroke-width:1;stroke-linecap:butt;stroke-linejoin:miter;stroke-miterlimit:3.2;stroke-dasharray:none;stroke-opacity:1;paint-order:stroke fill markers"
         d="m 166.47425,244.56641 c -0.97001,0 -1.91644,0.22376 -2.74414,0.68359 a 1.50015,1.50015 0 0 0 -0.0117,0.006 c -0.0252,0.0143 -0.0337,0.0477 -0.0586,0.0625 -0.59264,-0.45983 -1.31984,-0.71289 -2.02539,-0.71289 -0.82697,0 -1.71998,0.2688 -2.34571,0.89453 a 1.50015,1.50015 0 0 0 -0.0234,0.0234 c -0.6125,0.64034 -0.84961,1.51966 -0.84961,2.34179 v 6.53907 c 0,0.84086 0.25343,1.74171 0.89453,2.38281 0.62572,0.62573 1.51678,0.89453 2.34375,0.89453 0.84267,0 1.74464,-0.23292 2.39453,-0.88281 0.60441,-0.60441 0.82419,-1.42685 0.85547,-2.2168 0.0336,0.78836 0.26916,1.609 0.86523,2.20508 0.63342,0.63341 1.53147,0.89453 2.36524,0.89453 0.83377,0 1.72986,-0.26112 2.36328,-0.89453 0.6411,-0.6411 0.89453,-1.54195 0.89453,-2.38281 v -4.14844 c 0,-1.07799 -0.13404,-2.04382 -0.48242,-2.9082 -0.34566,-0.87098 -0.94983,-1.64083 -1.75782,-2.11329 -0.79157,-0.47484 -1.7114,-0.66796 -2.67773,-0.66796 z m 0,3 c 0.58214,0 0.93435,0.11343 1.14063,0.23828 a 1.50015,1.50015 0 0 0 0.0234,0.0156 c 0.18492,0.10706 0.33123,0.24982 0.48438,0.63672 a 1.50015,1.50015 0 0 0 0.004,0.01 c 0.15049,0.37225 0.26563,0.97273 0.26563,1.78906 v 4.14844 c 0,0.31813 -0.0509,0.29698 -0.0156,0.26172 0.0276,-0.0276 0.0567,0.0156 -0.24218,0.0156 -0.29889,0 -0.27172,-0.0432 -0.24414,-0.0156 0.0353,0.0353 -0.0156,0.0564 -0.0156,-0.26172 v -4.01172 c 0,-0.76164 -0.0877,-1.515 -0.65625,-2.20508 -0.21547,-0.26713 -0.5077,-0.45371 -0.8125,-0.60547 0.0274,-5.9e-4 0.0402,-0.0156 0.0684,-0.0156 z m -4.72461,0.0332 a 1.50015,1.50015 0 0 0 -0.082,0.77148 l 0.2168,0.81055 a 1.50015,1.50015 0 0 0 0.26172,0.17383 c -0.14312,0.40611 -0.21485,0.83769 -0.21485,1.25586 v 3.79297 c 0,0.34267 -0.0611,0.3287 -0.004,0.27148 0.0572,-0.0572 0.0692,0.006 -0.27344,0.006 -0.27934,0 -0.24254,-0.0355 -0.22266,-0.0156 0.0353,0.0353 -0.0156,0.0564 -0.0156,-0.26172 v -6.53907 c 0,-0.28554 0.0343,-0.27229 0.0156,-0.24609 -0.0184,0.01 -0.0517,-0.0137 0.20313,-0.0137 0.1792,0 0.12016,-0.005 0.11523,-0.006 z"
         id="path2254" />
      <path
         style="color:#000000;font-style:normal;font-variant:normal;font-weight:normal;font-stretch:normal;font-size:medium;line-height:normal;font-family:sans-serif;font-variant-ligatures:normal;font-variant-position:normal;font-variant-caps:normal;font-variant-numeric:normal;font-variant-alternates:normal;font-variant-east-asian:normal;font-feature-settings:normal;font-variation-settings:normal;text-indent:0;text-align:start;text-decoration:none;text-decoration-line:none;text-decoration-style:solid;text-decoration-color:#000000;letter-spacing:normal;word-spacing:normal;text-transform:none;writing-mode:lr-tb;direction:ltr;text-orientation:mixed;dominant-baseline:auto;baseline-shift:baseline;text-anchor:start;white-space:normal;shape-padding:0;shape-margin:0;inline-size:0;clip-rule:nonzero;display:inline;overflow:visible;visibility:visible;isolation:auto;mix-blend-mode:normal;color-interpolation:sRGB;color-interpolation-filters:linearRGB;solid-color:#000000;solid-opacity:1;fill:#5e8b23;fill-opacity:1;fill-rule:nonzero;stroke:#5e8b23;stroke-width:1;stroke-linecap:round;stroke-linejoin:bevel;stroke-miterlimit:4;stroke-dasharray:none;stroke-dashoffset:0;stroke-opacity:1;color-rendering:auto;image-rendering:auto;shape-rendering:auto;text-rendering:auto;enable-background:accumulate;stop-color:#000000"
         d="m 199.68219,249.88205 c 0.25657,-0.0714 0.45626,-0.27312 0.52502,-0.5304 0.10728,-0.4013 -0.13108,-0.81358 -0.53238,-0.92084 -0.12975,-0.0347 -0.26643,-0.034 -0.39582,0.002 l -1.16273,0.31155 c -0.14861,0.039 -0.26486,0.15478 -0.30447,0.30323 -0.061,0.22803 0.0745,0.46231 0.30249,0.5233 l 1.17207,0.31316 c 0.12976,0.0347 0.26643,0.034 0.39583,-0.002 z"
         id="path2105" />
      <path
         style="color:#000000;font-style:normal;font-variant:normal;font-weight:normal;font-stretch:normal;font-size:medium;line-height:normal;font-family:sans-serif;font-variant-ligatures:normal;font-variant-position:normal;font-variant-caps:normal;font-variant-numeric:normal;font-variant-alternates:normal;font-variant-east-asian:normal;font-feature-settings:normal;font-variation-settings:normal;text-indent:0;text-align:start;text-decoration:none;text-decoration-line:none;text-decoration-style:solid;text-decoration-color:#000000;letter-spacing:normal;word-spacing:normal;text-transform:none;writing-mode:lr-tb;direction:ltr;text-orientation:mixed;dominant-baseline:auto;baseline-shift:baseline;text-anchor:start;white-space:normal;shape-padding:0;shape-margin:0;inline-size:0;clip-rule:nonzero;display:inline;overflow:visible;visibility:visible;isolation:auto;mix-blend-mode:normal;color-interpolation:sRGB;color-interpolation-filters:linearRGB;solid-color:#000000;solid-opacity:1;fill:#5e8b23;fill-opacity:1;fill-rule:nonzero;stroke:#5e8b23;stroke-width:1;stroke-linecap:round;stroke-linejoin:bevel;stroke-miterlimit:4;stroke-dasharray:none;stroke-dashoffset:0;stroke-opacity:1;color-rendering:auto;image-rendering:auto;shape-rendering:auto;text-rendering:auto;enable-background:accumulate;stop-color:#000000"
         d="m 199.99827,247.22385 c -0.34405,-0.092 -0.70753,-0.0908 -1.05078,0.004 l -1.14844,0.30664 c -0.58077,0.15242 -1.04002,0.60951 -1.19531,1.18945 -0.23543,0.88062 0.3069,1.81918 1.1875,2.05469 l 1.17187,0.3125 c 0.34534,0.0923 0.7103,0.0919 1.05469,-0.004 0.2105,-0.0586 0.37052,-0.20296 0.54688,-0.32226 0.3943,-0.26676 0.72348,-0.61789 0.84961,-1.08985 0.28175,-1.05394 -0.36206,-2.16946 -1.41602,-2.45117 z"
         id="path2107" />
      <path
         style="color:#000000;font-style:normal;font-variant:normal;font-weight:normal;font-stretch:normal;font-size:medium;line-height:normal;font-family:sans-serif;font-variant-ligatures:normal;font-variant-position:normal;font-variant-caps:normal;font-variant-numeric:normal;font-variant-alternates:normal;font-variant-east-asian:normal;font-feature-settings:normal;font-variation-settings:normal;text-indent:0;text-align:start;text-decoration:none;text-decoration-line:none;text-decoration-style:solid;text-decoration-color:#000000;letter-spacing:normal;word-spacing:normal;text-transform:none;writing-mode:lr-tb;direction:ltr;text-orientation:mixed;dominant-baseline:auto;baseline-shift:baseline;text-anchor:start;white-space:normal;shape-padding:0;shape-margin:0;inline-size:0;clip-rule:nonzero;display:inline;overflow:visible;visibility:visible;isolation:auto;mix-blend-mode:normal;color-interpolation:sRGB;color-interpolation-filters:linearRGB;solid-color:#000000;solid-opacity:1;fill:#5e8b23;fill-opacity:1;fill-rule:nonzero;stroke:#5e8b23;stroke-width:1;stroke-linecap:round;stroke-linejoin:bevel;stroke-miterlimit:4;stroke-dasharray:none;stroke-dashoffset:0;stroke-opacity:1;color-rendering:auto;image-rendering:auto;shape-rendering:auto;text-rendering:auto;enable-background:accumulate;stop-color:#000000"
         d="m 197.00588,254.89539 c 0.23193,0.13089 0.51578,0.12937 0.74629,-0.004 0.35961,-0.20791 0.48257,-0.66798 0.27465,-1.02758 -0.0672,-0.11631 -0.16425,-0.21253 -0.28117,-0.27862 l -1.04248,-0.60187 c -0.13266,-0.0775 -0.29672,-0.0778 -0.4297,-8.8e-4 -0.20437,0.1181 -0.27432,0.37952 -0.15623,0.5839 l 0.60734,1.05021 c 0.0672,0.11631 0.16424,0.21251 0.28116,0.27861 z"
         id="path2111" />
      <path
         style="color:#000000;font-style:normal;font-variant:normal;font-weight:normal;font-stretch:normal;font-size:medium;line-height:normal;font-family:sans-serif;font-variant-ligatures:normal;font-variant-position:normal;font-variant-caps:normal;font-variant-numeric:normal;font-variant-alternates:normal;font-variant-east-asian:normal;font-feature-settings:normal;font-variation-settings:normal;text-indent:0;text-align:start;text-decoration:none;text-decoration-line:none;text-decoration-style:solid;text-decoration-color:#000000;letter-spacing:normal;word-spacing:normal;text-transform:none;writing-mode:lr-tb;direction:ltr;text-orientation:mixed;dominant-baseline:auto;baseline-shift:baseline;text-anchor:start;white-space:normal;shape-padding:0;shape-margin:0;inline-size:0;clip-rule:nonzero;display:inline;overflow:visible;visibility:visible;isolation:auto;mix-blend-mode:normal;color-interpolation:sRGB;color-interpolation-filters:linearRGB;solid-color:#000000;solid-opacity:1;fill:#5e8b23;fill-opacity:1;fill-rule:nonzero;stroke:#5e8b23;stroke-width:1;stroke-linecap:round;stroke-linejoin:bevel;stroke-miterlimit:4;stroke-dasharray:none;stroke-dashoffset:0;stroke-opacity:1;color-rendering:auto;image-rendering:auto;shape-rendering:auto;text-rendering:auto;enable-background:accumulate;stop-color:#000000"
         d="m 195.64866,251.89963 c -0.78924,0.4561 -1.06931,1.50369 -0.61328,2.29297 l 0.60742,1.04883 c 0.17875,0.30955 0.43688,0.56626 0.74805,0.74219 0.61515,0.34716 1.37466,0.34333 1.98633,-0.01 0.94385,-0.54571 1.27704,-1.79015 0.73242,-2.73437 -0.17876,-0.30957 -0.43687,-0.56626 -0.74805,-0.74219 l -1.02734,-0.59375 c -6e-4,-3.5e-4 -0.001,3.5e-4 -0.002,0 -0.51795,-0.30173 -1.1644,-0.30351 -1.68359,-0.004 z m 0.74219,4.08399 -0.45313,-0.43946 v 0.002 z"
         id="path2113" />
      <path
         style="color:#000000;font-style:normal;font-variant:normal;font-weight:normal;font-stretch:normal;font-size:medium;line-height:normal;font-family:sans-serif;font-variant-ligatures:normal;font-variant-position:normal;font-variant-caps:normal;font-variant-numeric:normal;font-variant-alternates:normal;font-variant-east-asian:normal;font-feature-settings:normal;font-variation-settings:normal;text-indent:0;text-align:start;text-decoration:none;text-decoration-line:none;text-decoration-style:solid;text-decoration-color:#000000;letter-spacing:normal;word-spacing:normal;text-transform:none;writing-mode:lr-tb;direction:ltr;text-orientation:mixed;dominant-baseline:auto;baseline-shift:baseline;text-anchor:start;white-space:normal;shape-padding:0;shape-margin:0;inline-size:0;clip-rule:nonzero;display:inline;overflow:visible;visibility:visible;isolation:auto;mix-blend-mode:normal;color-interpolation:sRGB;color-interpolation-filters:linearRGB;solid-color:#000000;solid-opacity:1;fill:#5e8b23;fill-opacity:1;fill-rule:nonzero;stroke:#5e8b23;stroke-width:1;stroke-linecap:round;stroke-linejoin:bevel;stroke-miterlimit:4;stroke-dasharray:none;stroke-dashoffset:0;stroke-opacity:1;color-rendering:auto;image-rendering:auto;shape-rendering:auto;text-rendering:auto;enable-background:accumulate;stop-color:#000000"
         d="m 198.02968,244.44465 c 0.13089,-0.23193 0.12937,-0.51579 -0.004,-0.74629 -0.2079,-0.35962 -0.66797,-0.4826 -1.02758,-0.27468 -0.11631,0.0672 -0.21252,0.16424 -0.27862,0.28116 l -0.60188,1.04247 c -0.0775,0.13267 -0.0778,0.29673 -8.8e-4,0.42971 0.11814,0.20435 0.37956,0.27425 0.58392,0.15613 l 1.05022,-0.60734 c 0.11631,-0.0672 0.21252,-0.16424 0.27862,-0.28116 z"
         id="path2117" />
      <path
         style="color:#000000;font-style:normal;font-variant:normal;font-weight:normal;font-stretch:normal;font-size:medium;line-height:normal;font-family:sans-serif;font-variant-ligatures:normal;font-variant-position:normal;font-variant-caps:normal;font-variant-numeric:normal;font-variant-alternates:normal;font-variant-east-asian:normal;font-feature-settings:normal;font-variation-settings:normal;text-indent:0;text-align:start;text-decoration:none;text-decoration-line:none;text-decoration-style:solid;text-decoration-color:#000000;letter-spacing:normal;word-spacing:normal;text-transform:none;writing-mode:lr-tb;direction:ltr;text-orientation:mixed;dominant-baseline:auto;baseline-shift:baseline;text-anchor:start;white-space:normal;shape-padding:0;shape-margin:0;inline-size:0;clip-rule:nonzero;display:inline;overflow:visible;visibility:visible;isolation:auto;mix-blend-mode:normal;color-interpolation:sRGB;color-interpolation-filters:linearRGB;solid-color:#000000;solid-opacity:1;fill:#5e8b23;fill-opacity:1;fill-rule:nonzero;stroke:#5e8b23;stroke-width:1;stroke-linecap:round;stroke-linejoin:bevel;stroke-miterlimit:4;stroke-dasharray:none;stroke-dashoffset:0;stroke-opacity:1;color-rendering:auto;image-rendering:auto;shape-rendering:auto;text-rendering:auto;enable-background:accumulate;stop-color:#000000"
         d="m 197.8889,242.14768 c -0.49755,-0.133 -1.0434,-0.0797 -1.51563,0.19336 -0.30956,0.17876 -0.56626,0.43687 -0.74219,0.74804 l -0.59375,1.02736 c -3.5e-4,6e-4 3.5e-4,10e-4 0,0.002 -0.30174,0.51797 -0.30157,1.1644 -0.002,1.6836 0.45623,0.78915 1.50181,1.06942 2.29102,0.61328 l 1.04882,-0.60742 c 0.30957,-0.17875 0.56626,-0.43688 0.74219,-0.74805 0.34717,-0.61516 0.34334,-1.37466 -0.01,-1.98633 -0.27301,-0.47224 -0.7212,-0.79278 -1.21874,-0.92578 z"
         id="path2119" />
      <path
         style="color:#000000;font-style:normal;font-variant:normal;font-weight:normal;font-stretch:normal;font-size:13.0206px;line-height:1.25;font-family:Nunito;-inkscape-font-specification:Nunito;font-variant-ligatures:normal;font-variant-position:normal;font-variant-caps:normal;font-variant-numeric:normal;font-variant-alternates:normal;font-variant-east-asian:normal;font-feature-settings:normal;font-variation-settings:normal;text-indent:0;text-align:start;text-decoration:none;text-decoration-line:none;text-decoration-style:solid;text-decoration-color:#000000;letter-spacing:0px;word-spacing:0px;text-transform:none;writing-mode:lr-tb;direction:ltr;text-orientation:mixed;dominant-baseline:auto;baseline-shift:baseline;text-anchor:start;white-space:normal;shape-padding:0;shape-margin:0;inline-size:0;clip-rule:nonzero;display:inline;overflow:visible;visibility:visible;isolation:auto;mix-blend-mode:normal;color-interpolation:sRGB;color-interpolation-filters:linearRGB;solid-color:#000000;solid-opacity:1;fill:#5e8b23;fill-opacity:1;fill-rule:nonzero;stroke:#5e8b23;stroke-width:1;stroke-linecap:butt;stroke-linejoin:miter;stroke-miterlimit:4;stroke-dasharray:none;stroke-dashoffset:0;stroke-opacity:1;color-rendering:auto;image-rendering:auto;shape-rendering:auto;text-rendering:auto;enable-background:accumulate;stop-color:#000000"
         d="m 179.08017,257.18365 c -0.59903,0 -1.05746,-0.16303 -1.37531,-0.48909 -0.31786,-0.31398 -0.47679,-0.76684 -0.47679,-1.35857 v -4.11196 c 0,-0.50721 -0.10391,-0.87553 -0.31173,-1.10498 -0.19561,-0.22945 -0.55014,-0.35021 -1.06359,-0.36229 -0.15892,0 -0.28728,-0.0604 -0.38509,-0.18114 -0.0978,-0.12076 -0.14669,-0.25964 -0.14669,-0.41663 0,-0.15699 0.0489,-0.28983 0.14669,-0.39851 0.0978,-0.12077 0.22617,-0.18719 0.38509,-0.19926 0.51345,-0.0121 0.86798,-0.13283 1.06359,-0.36229 0.20782,-0.22945 0.31173,-0.59173 0.31173,-1.08686 v -4.11196 c 0,-0.59173 0.15893,-1.04459 0.47679,-1.35858 0.31785,-0.32605 0.77628,-0.48908 1.37531,-0.48908 h 1.26529 c 0.18338,0 0.3362,0.0543 0.45845,0.16302 0.12225,0.10869 0.18337,0.24757 0.18337,0.41664 0,0.16907 -0.055,0.30794 -0.16503,0.41663 -0.0978,0.10868 -0.23229,0.16302 -0.40344,0.16302 h -0.91688 c -0.52567,0 -0.78851,0.27172 -0.78851,0.81515 v 4.13007 c 0,0.48305 -0.12225,0.89968 -0.36675,1.24989 -0.24451,0.35021 -0.56236,0.56759 -0.95355,0.65212 0.39119,0.0845 0.70904,0.30191 0.95355,0.65212 0.2445,0.35021 0.36675,0.76684 0.36675,1.24989 v 4.14819 c 0,0.54343 0.26284,0.81514 0.78851,0.81514 h 0.91688 c 0.17115,0 0.30563,0.0543 0.40344,0.16303 0.11002,0.12076 0.16503,0.25964 0.16503,0.41663 0,0.16907 -0.0611,0.30794 -0.18337,0.41663 -0.12225,0.10869 -0.27507,0.16303 -0.45845,0.16303 z"
         id="path2123" />
      <path
         style="color:#000000;font-style:normal;font-variant:normal;font-weight:normal;font-stretch:normal;font-size:13.0206px;line-height:1.25;font-family:Nunito;-inkscape-font-specification:Nunito;font-variant-ligatures:normal;font-variant-position:normal;font-variant-caps:normal;font-variant-numeric:normal;font-variant-alternates:normal;font-variant-east-asian:normal;font-feature-settings:normal;font-variation-settings:normal;text-indent:0;text-align:start;text-decoration:none;text-decoration-line:none;text-decoration-style:solid;text-decoration-color:#000000;letter-spacing:0px;word-spacing:0px;text-transform:none;writing-mode:lr-tb;direction:ltr;text-orientation:mixed;dominant-baseline:auto;baseline-shift:baseline;text-anchor:start;white-space:normal;shape-padding:0;shape-margin:0;inline-size:0;clip-rule:nonzero;display:inline;overflow:visible;visibility:visible;isolation:auto;mix-blend-mode:normal;color-interpolation:sRGB;color-interpolation-filters:linearRGB;solid-color:#000000;solid-opacity:1;fill:#5e8b23;fill-opacity:1;fill-rule:nonzero;stroke:#5e8b23;stroke-width:1;stroke-linecap:butt;stroke-linejoin:miter;stroke-miterlimit:4;stroke-dasharray:none;stroke-dashoffset:0;stroke-opacity:1;color-rendering:auto;image-rendering:auto;shape-rendering:auto;text-rendering:auto;enable-background:accumulate;stop-color:#000000"
         d="m 179.08062,239.15158 c -0.95574,0 -2.03541,0.31902 -2.79101,1.08399 -0.75392,0.75464 -1.0625,1.81997 -1.0625,2.76367 v 3.81641 c -0.46703,0.14828 -0.96237,0.30645 -1.26563,0.66015 -0.39503,0.46403 -0.64062,1.12865 -0.64062,1.6836 0,0.57227 0.22724,1.22561 0.5918,1.67578 0.29229,0.36089 0.82746,0.4721 1.31445,0.625 v 3.875 c 0,0.94372 0.30856,2.011 1.0625,2.76563 0.75559,0.76498 1.83526,1.08204 2.79101,1.08204 h 1.26563 c 0.5785,-2e-5 1.29375,-0.22937 1.78711,-0.66797 0.50709,-0.45085 0.85351,-1.25905 0.85351,-1.91016 0,-0.62215 -0.28504,-1.31785 -0.68359,-1.75781 -0.41019,-0.45274 -1.04443,-0.6191 -1.58984,-0.69337 v -3.0918 c 0,-0.65125 -0.2692,-1.29637 -0.57618,-1.90234 0.30745,-0.60631 0.57618,-1.2506 0.57618,-1.90235 v -3.07421 c 0.52724,-0.0718 1.12624,-0.24387 1.53711,-0.66993 0.45143,-0.47545 0.73632,-1.19746 0.73632,-1.78125 0,-0.6511 -0.34641,-1.4593 -0.85351,-1.91015 -0.49337,-0.4386 -1.20863,-0.66991 -1.78711,-0.66993 z m -3.03906,11.38478 c -0.0118,0.001 -0.0257,0.0187 -0.0371,0.0195 l -0.10547,0.004 c 0.0444,-10e-4 0.0971,-0.0214 0.14258,-0.0234 z m -0.29883,1.16796 c 0.0387,0.002 0.0717,0.0527 0.10938,0.0527 h -0.0469 c 0.034,8e-4 -0.0745,-0.0546 -0.0625,-0.0527 z"
         id="path2125" />
      <path
         style="color:#000000;font-style:normal;font-variant:normal;font-weight:normal;font-stretch:normal;font-size:13.0206px;line-height:1.25;font-family:Nunito;-inkscape-font-specification:Nunito;font-variant-ligatures:normal;font-variant-position:normal;font-variant-caps:normal;font-variant-numeric:normal;font-variant-alternates:normal;font-variant-east-asian:normal;font-feature-settings:normal;font-variation-settings:normal;text-indent:0;text-align:start;text-decoration:none;text-decoration-line:none;text-decoration-style:solid;text-decoration-color:#000000;letter-spacing:0px;word-spacing:0px;text-transform:none;writing-mode:lr-tb;direction:ltr;text-orientation:mixed;dominant-baseline:auto;baseline-shift:baseline;text-anchor:start;white-space:normal;shape-padding:0;shape-margin:0;inline-size:0;clip-rule:nonzero;display:inline;overflow:visible;visibility:visible;isolation:auto;mix-blend-mode:normal;color-interpolation:sRGB;color-interpolation-filters:linearRGB;solid-color:#000000;solid-opacity:1;fill:#5e8b23;fill-opacity:1;fill-rule:nonzero;stroke:#5e8b23;stroke-width:1;stroke-linecap:butt;stroke-linejoin:miter;stroke-miterlimit:4;stroke-dasharray:none;stroke-dashoffset:0;stroke-opacity:1;color-rendering:auto;image-rendering:auto;shape-rendering:auto;text-rendering:auto;enable-background:accumulate;stop-color:#000000"
         d="m 189.43034,257.18365 c 0.59903,0 1.05746,-0.16303 1.37531,-0.48909 0.31786,-0.31398 0.47679,-0.76684 0.47679,-1.35857 v -4.11196 c 0,-0.50721 0.10391,-0.87553 0.31173,-1.10498 0.19561,-0.22945 0.55014,-0.35021 1.06359,-0.36229 0.15892,0 0.28728,-0.0604 0.38509,-0.18114 0.0978,-0.12076 0.14669,-0.25964 0.14669,-0.41663 0,-0.15699 -0.0489,-0.28983 -0.14669,-0.39851 -0.0978,-0.12077 -0.22617,-0.18719 -0.38509,-0.19926 -0.51345,-0.0121 -0.86798,-0.13283 -1.06359,-0.36229 -0.20782,-0.22945 -0.31173,-0.59173 -0.31173,-1.08686 v -4.11196 c 0,-0.59173 -0.15893,-1.04459 -0.47679,-1.35858 -0.31785,-0.32605 -0.77628,-0.48908 -1.37531,-0.48908 h -1.26529 c -0.18338,0 -0.3362,0.0543 -0.45845,0.16302 -0.12225,0.10869 -0.18337,0.24757 -0.18337,0.41664 0,0.16907 0.055,0.30794 0.16503,0.41663 0.0978,0.10868 0.23229,0.16302 0.40344,0.16302 h 0.91688 c 0.52567,0 0.78851,0.27172 0.78851,0.81515 v 4.13007 c 0,0.48305 0.12225,0.89968 0.36675,1.24989 0.24451,0.35021 0.56236,0.56759 0.95355,0.65212 -0.39119,0.0845 -0.70904,0.30191 -0.95355,0.65212 -0.2445,0.35021 -0.36675,0.76684 -0.36675,1.24989 v 4.14819 c 0,0.54343 -0.26284,0.81514 -0.78851,0.81514 h -0.91688 c -0.17115,0 -0.30563,0.0543 -0.40344,0.16303 -0.11002,0.12076 -0.16503,0.25964 -0.16503,0.41663 0,0.16907 0.0611,0.30794 0.18337,0.41663 0.12225,0.10869 0.27507,0.16303 0.45845,0.16303 z"
         id="path2129" />
      <path
         style="color:#000000;font-style:normal;font-variant:normal;font-weight:normal;font-stretch:normal;font-size:13.0206px;line-height:1.25;font-family:Nunito;-inkscape-font-specification:Nunito;font-variant-ligatures:normal;font-variant-position:normal;font-variant-caps:normal;font-variant-numeric:normal;font-variant-alternates:normal;font-variant-east-asian:normal;font-feature-settings:normal;font-variation-settings:normal;text-indent:0;text-align:start;text-decoration:none;text-decoration-line:none;text-decoration-style:solid;text-decoration-color:#000000;letter-spacing:0px;word-spacing:0px;text-transform:none;writing-mode:lr-tb;direction:ltr;text-orientation:mixed;dominant-baseline:auto;baseline-shift:baseline;text-anchor:start;white-space:normal;shape-padding:0;shape-margin:0;inline-size:0;clip-rule:nonzero;display:inline;overflow:visible;visibility:visible;isolation:auto;mix-blend-mode:normal;color-interpolation:sRGB;color-interpolation-filters:linearRGB;solid-color:#000000;solid-opacity:1;fill:#5e8b23;fill-opacity:1;fill-rule:nonzero;stroke:#5e8b23;stroke-width:1;stroke-linecap:butt;stroke-linejoin:miter;stroke-miterlimit:4;stroke-dasharray:none;stroke-dashoffset:0;stroke-opacity:1;color-rendering:auto;image-rendering:auto;shape-rendering:auto;text-rendering:auto;enable-background:accumulate;stop-color:#000000"
         d="m 188.16429,239.15158 c -0.57848,2e-5 -1.29374,0.23134 -1.78711,0.66993 -0.50711,0.45085 -0.85352,1.25905 -0.85352,1.91015 0,0.58379 0.2849,1.3058 0.73633,1.78125 0.41087,0.42606 1.00986,0.59815 1.53711,0.66993 v 3.07421 c 0,0.65175 0.26873,1.29604 0.57617,1.90235 -0.30698,0.60597 -0.57617,1.25109 -0.57617,1.90234 v 3.0918 c -0.54541,0.0743 -1.17966,0.24063 -1.58985,0.69337 -0.39855,0.43996 -0.68359,1.13566 -0.68359,1.75781 0,0.65111 0.34643,1.45931 0.85352,1.91016 0.49336,0.4386 1.2086,0.66795 1.78711,0.66797 h 1.26562 c 0.95576,0 2.03542,-0.31706 2.79102,-1.08204 0.75393,-0.75463 1.06054,-1.82191 1.06054,-2.76563 v -3.875 c 0.4876,-0.15274 1.02376,-0.26367 1.31641,-0.625 0.36456,-0.45017 0.5918,-1.10351 0.5918,-1.67578 0,-0.55495 -0.2456,-1.21957 -0.64063,-1.6836 -0.30382,-0.35436 -0.79968,-0.51407 -1.26758,-0.66211 v -3.81445 c 0,-0.94371 -0.30662,-2.00903 -1.06054,-2.76367 -0.7556,-0.76497 -1.83527,-1.08398 -2.79102,-1.08399 z m 4.30468,11.38478 c 0.0455,0.002 0.0982,0.0224 0.14258,0.0234 l -0.10547,-0.004 c -0.0114,-8.6e-4 -0.0253,-0.0181 -0.0371,-0.0195 z m 0.29883,1.16796 c 0.012,-0.002 -0.0965,0.0535 -0.0625,0.0527 h -0.0469 c 0.0376,0 0.0707,-0.0503 0.10937,-0.0527 z"
         id="path2131" />
      <path
         id="path2137"
         style="fill:#b5df57;fill-opacity:1;stroke:none;stroke-width:2.5;stroke-linecap:round;stroke-linejoin:bevel;stroke-miterlimit:4;stroke-dasharray:none"
         d="m 199.68219,249.88205 a 0.75210538,0.75210538 0 0 0 0.52502,-0.53041 0.75210538,0.75210538 0 0 0 -0.53238,-0.92084 0.75210538,0.75210538 0 0 0 -0.39582,0.002 l -1.16273,0.31155 a 0.42742252,0.42742252 0 0 0 -0.30447,0.30323 0.42742252,0.42742252 0 0 0 0.30249,0.5233 l 1.17207,0.31316 a 0.75210538,0.75210538 0 0 0 0.39583,-0.002 z"
         inkscape:transform-center-x="-6.7226097"
         inkscape:transform-center-y="-0.00079701619" />
      <path
         id="path2139"
         style="fill:#b5df57;fill-opacity:1;stroke:none;stroke-width:2.5;stroke-linecap:round;stroke-linejoin:bevel;stroke-miterlimit:4;stroke-dasharray:none"
         d="m 197.00588,254.89539 a 0.75210538,0.75210538 0 0 0 0.74629,-0.004 0.75210538,0.75210538 0 0 0 0.27465,-1.02758 0.75210538,0.75210538 0 0 0 -0.28117,-0.27862 l -1.04248,-0.60187 a 0.42742252,0.42742252 0 0 0 -0.4297,-8.8e-4 0.42742252,0.42742252 0 0 0 -0.15623,0.5839 l 0.60734,1.05021 a 0.75210538,0.75210538 0 0 0 0.28116,0.27861 z"
         inkscape:transform-center-x="-4.8015138"
         inkscape:transform-center-y="4.8007571" />
      <path
         id="path2141"
         style="fill:#b5df57;fill-opacity:1;stroke:none;stroke-width:2.5;stroke-linecap:round;stroke-linejoin:bevel;stroke-miterlimit:4;stroke-dasharray:none"
         d="m 198.02968,244.44465 a 0.75210538,0.75210538 0 0 0 -0.004,-0.7463 0.75210538,0.75210538 0 0 0 -1.02758,-0.27468 0.75210538,0.75210538 0 0 0 -0.27862,0.28116 l -0.60188,1.04247 a 0.42742252,0.42742252 0 0 0 -8.8e-4,0.42971 0.42742252,0.42742252 0 0 0 0.58392,0.15613 l 1.05022,-0.60734 a 0.75210538,0.75210538 0 0 0 0.27862,-0.28116 z"
         inkscape:transform-center-x="-4.8006019"
         inkscape:transform-center-y="-4.8015254" />
      <path
         style="color:#000000;font-style:normal;font-variant:normal;font-weight:normal;font-stretch:normal;font-size:13.0206px;line-height:1.25;font-family:Nunito;-inkscape-font-specification:Nunito;font-variant-ligatures:normal;font-variant-position:normal;font-variant-caps:normal;font-variant-numeric:normal;font-variant-alternates:normal;font-variant-east-asian:normal;font-feature-settings:normal;font-variation-settings:normal;text-indent:0;text-align:start;text-decoration:none;text-decoration-line:none;text-decoration-style:solid;text-decoration-color:#000000;letter-spacing:0px;word-spacing:0px;text-transform:none;writing-mode:lr-tb;direction:ltr;text-orientation:mixed;dominant-baseline:auto;baseline-shift:baseline;text-anchor:start;white-space:normal;shape-padding:0;shape-margin:0;inline-size:0;clip-rule:nonzero;display:inline;overflow:visible;visibility:visible;isolation:auto;mix-blend-mode:normal;color-interpolation:sRGB;color-interpolation-filters:linearRGB;solid-color:#000000;solid-opacity:1;fill:#b5df57;fill-opacity:1;fill-rule:nonzero;stroke:none;stroke-linecap:butt;stroke-linejoin:miter;stroke-miterlimit:4;stroke-dasharray:none;stroke-dashoffset:0;stroke-opacity:1;color-rendering:auto;image-rendering:auto;shape-rendering:auto;text-rendering:auto;enable-background:accumulate;stop-color:#000000"
         d="m 179.08062,240.65158 c -0.68744,0 -1.30124,0.20324 -1.72851,0.63868 -0.42745,0.42421 -0.625,1.02934 -0.625,1.70898 v 4.11328 c 0,0.42517 -0.094,0.65319 -0.18164,0.75 l -0.004,0.006 -0.006,0.006 c -0.0583,0.0684 -0.25479,0.17715 -0.69531,0.1875 h -0.0117 -0.0137 c -0.27182,0.0206 -0.54605,0.16799 -0.72266,0.37891 -0.17177,0.19679 -0.27148,0.46266 -0.27148,0.71875 0,0.26081 0.0933,0.52735 0.25781,0.73047 0.18117,0.22368 0.48787,0.36718 0.77344,0.36718 h -0.0117 c 0.44053,0.0104 0.63702,0.11717 0.69531,0.18555 l 0.006,0.006 0.004,0.006 c 0.0848,0.0936 0.18164,0.33061 0.18164,0.76953 v 4.11133 c 0,0.67964 0.19754,1.28673 0.625,1.71094 0.42727,0.43544 1.04107,0.63672 1.72851,0.63672 h 1.26563 c 0.28216,-1e-5 0.57403,-0.0979 0.78906,-0.28907 0.21846,-0.19422 0.35156,-0.49948 0.35156,-0.78906 0,-0.27294 -0.11131,-0.55159 -0.29296,-0.75195 -0.19482,-0.21649 -0.4984,-0.32813 -0.77539,-0.32813 h -0.91602 c -0.17669,0 -0.21682,-0.0346 -0.23242,-0.0508 -0.0156,-0.0161 -0.0566,-0.0745 -0.0566,-0.26562 v -4.14649 c 0,-0.56741 -0.15076,-1.09843 -0.45703,-1.53711 -0.1308,-0.18735 -0.36333,-0.23092 -0.53907,-0.36523 0.17595,-0.13439 0.40814,-0.17966 0.53907,-0.36719 0.30627,-0.43868 0.45703,-0.96774 0.45703,-1.53516 v -4.13086 c 0,-0.1911 0.041,-0.24754 0.0566,-0.26367 0.0156,-0.0161 0.0557,-0.0508 0.23242,-0.0508 h 0.91602 c 0.27209,0 0.56661,-0.11324 0.76171,-0.32226 0.19462,-0.19948 0.30664,-0.48584 0.30664,-0.75782 0,-0.28958 -0.1331,-0.59483 -0.35156,-0.78906 -0.21503,-0.19116 -0.50691,-0.29101 -0.78906,-0.29102 z"
         id="path2145"
         sodipodi:nodetypes="ccsscccccccsscccccsscsssscsscssscsssssscsscc" />
      <path
         style="color:#000000;font-style:normal;font-variant:normal;font-weight:normal;font-stretch:normal;font-size:13.0206px;line-height:1.25;font-family:Nunito;-inkscape-font-specification:Nunito;font-variant-ligatures:normal;font-variant-position:normal;font-variant-caps:normal;font-variant-numeric:normal;font-variant-alternates:normal;font-variant-east-asian:normal;font-feature-settings:normal;font-variation-settings:normal;text-indent:0;text-align:start;text-decoration:none;text-decoration-line:none;text-decoration-style:solid;text-decoration-color:#000000;letter-spacing:0px;word-spacing:0px;text-transform:none;writing-mode:lr-tb;direction:ltr;text-orientation:mixed;dominant-baseline:auto;baseline-shift:baseline;text-anchor:start;white-space:normal;shape-padding:0;shape-margin:0;inline-size:0;clip-rule:nonzero;display:inline;overflow:visible;visibility:visible;isolation:auto;mix-blend-mode:normal;color-interpolation:sRGB;color-interpolation-filters:linearRGB;solid-color:#000000;solid-opacity:1;fill:#b5df57;fill-opacity:1;fill-rule:nonzero;stroke:none;stroke-linecap:butt;stroke-linejoin:miter;stroke-miterlimit:4;stroke-dasharray:none;stroke-dashoffset:0;stroke-opacity:1;color-rendering:auto;image-rendering:auto;shape-rendering:auto;text-rendering:auto;enable-background:accumulate;stop-color:#000000"
         d="m 189.42992,240.65106 c 0.68744,0 1.30124,0.20324 1.72851,0.63868 0.42745,0.42421 0.625,1.02934 0.625,1.70898 v 4.11328 c 0,0.42517 0.094,0.65319 0.18164,0.75 l 0.004,0.006 0.006,0.006 c 0.0583,0.0684 0.25479,0.17715 0.69531,0.1875 h 0.0117 0.0137 c 0.27182,0.0206 0.54605,0.16799 0.72266,0.37891 0.17177,0.19679 0.27148,0.46266 0.27148,0.71875 0,0.26081 -0.0933,0.52735 -0.25781,0.73047 -0.18117,0.22368 -0.48787,0.36718 -0.77344,0.36718 h 0.0117 c -0.44053,0.0104 -0.63702,0.11717 -0.69531,0.18555 l -0.006,0.006 -0.004,0.006 c -0.0848,0.0936 -0.18164,0.33061 -0.18164,0.76953 v 4.11133 c 0,0.67964 -0.19754,1.28673 -0.625,1.71094 -0.42727,0.43544 -1.04107,0.63672 -1.72851,0.63672 h -1.26563 c -0.28216,-1e-5 -0.57403,-0.0979 -0.78906,-0.28907 -0.21846,-0.19422 -0.35156,-0.49948 -0.35156,-0.78906 0,-0.27294 0.11131,-0.55159 0.29296,-0.75195 0.19482,-0.21649 0.4984,-0.32813 0.77539,-0.32813 h 0.91602 c 0.17669,0 0.21682,-0.0346 0.23242,-0.0508 0.0156,-0.0161 0.0566,-0.0745 0.0566,-0.26562 v -4.14649 c 0,-0.56741 0.15076,-1.09843 0.45703,-1.53711 0.1308,-0.18735 0.36333,-0.23092 0.53907,-0.36523 -0.17595,-0.13439 -0.40814,-0.17966 -0.53907,-0.36719 -0.30627,-0.43868 -0.45703,-0.96774 -0.45703,-1.53516 v -4.13086 c 0,-0.1911 -0.041,-0.24754 -0.0566,-0.26367 -0.0156,-0.0161 -0.0557,-0.0508 -0.23242,-0.0508 h -0.91602 c -0.27209,0 -0.56661,-0.11324 -0.76171,-0.32226 -0.19462,-0.19948 -0.30664,-0.48584 -0.30664,-0.75782 0,-0.28958 0.1331,-0.59483 0.35156,-0.78906 0.21503,-0.19116 0.50691,-0.29101 0.78906,-0.29102 z"
         id="path2147"
         sodipodi:nodetypes="ccsscccccccsscccccsscsssscsscssscsssssscsscc" />
      <path
         style="color:#000000;font-weight:300;font-size:19.7556px;font-family:nunito;-inkscape-font-specification:'Nunito Heavy';letter-spacing:-0.529167px;word-spacing:-0.0396875px;fill:#b5df57;stroke:none;stroke-width:3;stroke-linecap:butt;stroke-linejoin:miter;stroke-miterlimit:3.2;paint-order:stroke fill markers"
         d="m 36.380939,256.18177 q -0.790224,0 -1.224847,-0.43463 -0.414867,-0.43462 -0.414867,-1.22484 v -10.96436 q 0,-0.80998 0.454378,-1.22485 0.454379,-0.43462 1.284114,-0.43462 0.691446,0 1.086558,0.27658 0.414868,0.25682 0.750713,0.86924 l 4.247454,7.62567 h -0.691446 l 4.227699,-7.62567 q 0.3556,-0.61242 0.750712,-0.86924 0.414868,-0.27658 1.106314,-0.27658 0.790224,0 1.205092,0.43462 0.434623,0.41487 0.434623,1.22485 v 10.96436 q 0,0.79022 -0.414868,1.22484 -0.414867,0.43463 -1.224847,0.43463 -0.790224,0 -1.224847,-0.43463 -0.414868,-0.43462 -0.414868,-1.22484 v -6.79593 h 0.414868 l -3.180652,5.53157 q -0.276578,0.43462 -0.592668,0.65193 -0.296334,0.21732 -0.809979,0.21732 -0.49389,0 -0.80998,-0.21732 -0.31609,-0.21731 -0.572912,-0.65193 l -3.200408,-5.55132 h 0.454379 v 6.81568 q 0,0.79022 -0.414867,1.22484 -0.414868,0.43463 -1.224848,0.43463 z"
         id="path2184" />
      <path
         style="color:#000000;font-weight:300;font-size:19.7556px;font-family:nunito;-inkscape-font-specification:'Nunito Heavy';letter-spacing:-0.529167px;word-spacing:-0.0396875px;fill:#b5df57;stroke:none;stroke-width:3;stroke-linecap:butt;stroke-linejoin:miter;stroke-miterlimit:3.2;paint-order:stroke fill markers"
         d="m 56.693946,256.22128 q -1.778004,0 -3.081873,-0.61242 -1.284114,-0.63218 -1.97556,-1.77801 -0.691446,-1.14582 -0.691446,-2.70652 0,-1.50142 0.651934,-2.62749 0.671691,-1.14583 1.817516,-1.778 1.16558,-0.65194 2.64725,-0.65194 1.086558,0 1.97556,0.3556 0.889002,0.33585 1.521181,1.00754 0.632179,0.65193 0.948269,1.58044 0.335845,0.92852 0.335845,2.07434 0,0.39511 -0.217311,0.59267 -0.217312,0.1778 -0.691446,0.1778 h -6.045214 v -1.65947 h 4.385743 l -0.316089,0.25682 q 0,-0.73095 -0.197556,-1.18533 -0.197556,-0.45438 -0.592668,-0.69145 -0.375357,-0.23707 -0.948269,-0.23707 -0.612424,0 -1.066803,0.29634 -0.434623,0.27658 -0.67169,0.82973 -0.237067,0.55316 -0.237067,1.3829 v 0.1778 q 0,1.40264 0.612423,2.01507 0.63218,0.59267 1.936049,0.59267 0.434623,0 0.98778,-0.0988 0.572913,-0.11854 1.086558,-0.31609 0.513646,-0.19756 0.889002,-0.0593 0.375357,0.11853 0.572913,0.43462 0.217311,0.29634 0.237067,0.69145 0.01976,0.37536 -0.177801,0.75071 -0.197556,0.3556 -0.651934,0.55316 -0.691446,0.31609 -1.48167,0.47413 -0.770469,0.15805 -1.560693,0.15805 z"
         id="path2190" />
      <path
         style="color:#000000;font-weight:300;font-size:19.7556px;font-family:nunito;-inkscape-font-specification:'Nunito Heavy';letter-spacing:-0.529167px;word-spacing:-0.0396875px;fill:#b5df57;stroke:none;stroke-width:3;stroke-linecap:butt;stroke-linejoin:miter;stroke-miterlimit:3.2;paint-order:stroke fill markers"
         d="m 65.52894,256.22128 q -1.896537,0 -2.805295,-1.00754 -0.889002,-1.02729 -0.889002,-3.08187 v -8.4554 q 0,-0.86924 0.454379,-1.32362 0.454379,-0.45438 1.284114,-0.45438 0.849491,0 1.30387,0.45438 0.474134,0.45438 0.474134,1.32362 v 8.33687 q 0,0.73095 0.276578,1.0668 0.296334,0.33584 0.750713,0.33584 0.138289,0 0.276579,-0.0197 0.158044,-0.0395 0.335845,-0.0593 0.335845,0 0.49389,0.25682 0.1778,0.25683 0.1778,1.04705 0,0.69145 -0.276578,1.04705 -0.276579,0.33584 -0.849491,0.43462 -0.158045,0.0198 -0.454379,0.0593 -0.296334,0.0395 -0.553157,0.0395 z"
         id="path2196" />
      <path
         style="color:#000000;font-weight:300;font-size:19.7556px;font-family:nunito;-inkscape-font-specification:'Nunito Heavy';letter-spacing:-0.529167px;word-spacing:-0.0396875px;fill:#b5df57;stroke:none;stroke-width:3;stroke-linecap:butt;stroke-linejoin:miter;stroke-miterlimit:3.2;paint-order:stroke fill markers"
         d="m 73.000799,256.22128 q -1.619959,0 -2.825051,-0.61242 -1.205092,-0.61243 -1.876782,-1.75825 -0.67169,-1.14583 -0.67169,-2.70652 0,-1.18534 0.375356,-2.11385 0.375356,-0.94827 1.086558,-1.6002 0.711202,-0.67169 1.698982,-1.00754 0.98778,-0.3556 2.212627,-0.3556 1.619959,0 2.825051,0.61242 1.205091,0.61243 1.857026,1.75825 0.67169,1.12607 0.67169,2.70652 0,1.16558 -0.375356,2.11385 -0.375356,0.94827 -1.086558,1.61996 -0.691446,0.65193 -1.698982,1.00753 -0.98778,0.33585 -2.192871,0.33585 z m 0,-2.58798 q 0.533401,0 0.948269,-0.25683 0.414867,-0.27658 0.632179,-0.80998 0.237067,-0.55315 0.237067,-1.4224 0,-1.32363 -0.513646,-1.89654 -0.513645,-0.59267 -1.303869,-0.59267 -0.533401,0 -0.948269,0.25683 -0.414868,0.25682 -0.651935,0.80998 -0.237067,0.5334 -0.237067,1.4224 0,1.30387 0.513646,1.89654 0.513645,0.59267 1.323625,0.59267 z"
         id="path2202" />
      <path
         style="color:#000000;font-weight:300;font-size:19.7556px;font-family:nunito;-inkscape-font-specification:'Nunito Heavy';letter-spacing:-0.529167px;word-spacing:-0.0396875px;fill:#b5df57;stroke:none;stroke-width:3;stroke-linecap:butt;stroke-linejoin:miter;stroke-miterlimit:3.2;paint-order:stroke fill markers"
         d="m 81.183837,256.18177 q -0.829736,0 -1.284114,-0.45438 -0.454379,-0.45438 -0.454379,-1.32363 v -6.5391 q 0,-0.84949 0.434623,-1.30387 0.454379,-0.45438 1.284114,-0.45438 0.829735,0 1.264358,0.45438 0.434624,0.45438 0.434624,1.30387 v 0.92851 l -0.217312,-0.80998 q 0.474134,-0.92851 1.343381,-1.4224 0.889002,-0.49389 2.015071,-0.49389 1.16558,0 1.916293,0.45438 0.750713,0.43462 1.126069,1.38289 0.375357,0.92851 0.375357,2.35092 v 4.14867 q 0,0.86925 -0.454379,1.32363 -0.454379,0.45438 -1.30387,0.45438 -0.84949,0 -1.303869,-0.45438 -0.454379,-0.45438 -0.454379,-1.32363 v -4.01038 q 0,-0.88901 -0.31609,-1.26436 -0.296334,-0.37536 -0.889002,-0.37536 -0.790224,0 -1.264358,0.51365 -0.474134,0.49389 -0.474134,1.34338 v 3.79307 q 0,1.77801 -1.778004,1.77801 z"
         id="path2208" />
      <path
         style="color:#000000;font-weight:300;font-size:19.7556px;font-family:nunito;-inkscape-font-specification:'Nunito Heavy';letter-spacing:-0.529167px;word-spacing:-0.0396875px;fill:#b5df57;stroke:none;stroke-width:3;stroke-linecap:butt;stroke-linejoin:miter;stroke-miterlimit:3.2;paint-order:stroke fill markers"
         d="m 92.962427,256.18177 q -0.869246,0 -1.363136,-0.47414 -0.474135,-0.49389 -0.474135,-1.40264 v -10.35194 q 0,-0.90876 0.474135,-1.38289 0.49389,-0.49389 1.422403,-0.49389 h 6.578615 q 0.711201,0 1.066801,0.3556 0.3556,0.3556 0.3556,1.02729 0,0.69145 -0.3556,1.0668 -0.3556,0.3556 -1.066801,0.3556 h -4.840122 v 2.8053 h 4.405498 q 0.691446,0 1.047045,0.3556 0.37536,0.3556 0.37536,1.02729 0,0.69145 -0.37536,1.04705 -0.355599,0.3556 -1.047045,0.3556 h -4.405498 v 3.83259 q 0,1.87678 -1.79776,1.87678 z"
         id="path2214" />
      <path
         style="color:#000000;font-weight:300;font-size:19.7556px;font-family:nunito;-inkscape-font-specification:'Nunito Heavy';letter-spacing:-0.529167px;word-spacing:-0.0396875px;fill:#b5df57;stroke:none;stroke-width:3;stroke-linecap:butt;stroke-linejoin:miter;stroke-miterlimit:3.2;paint-order:stroke fill markers"
         d="m 105.15587,256.22128 q -1.26435,0 -2.07433,-0.45438 -0.80998,-0.47413 -1.22485,-1.40265 -0.39511,-0.92851 -0.39511,-2.35091 v -4.14868 q 0,-0.86925 0.45438,-1.30387 0.45438,-0.45438 1.30387,-0.45438 0.84949,0 1.30387,0.45438 0.45437,0.43462 0.45437,1.30387 v 4.24745 q 0,0.71121 0.29634,1.06681 0.29633,0.3556 0.92851,0.3556 0.7112,0 1.16558,-0.51365 0.45438,-0.51364 0.45438,-1.36313 v -3.79308 q 0,-0.86925 0.45438,-1.30387 0.45438,-0.45438 1.30387,-0.45438 0.84949,0 1.30387,0.45438 0.45438,0.43462 0.45438,1.30387 v 6.5391 q 0,1.77801 -1.69898,1.77801 -0.82974,0 -1.28412,-0.45438 -0.45438,-0.45438 -0.45438,-1.32363 v -1.14582 l 0.31609,0.96802 q -0.43462,0.96803 -1.22484,1.48167 -0.77047,0.51365 -1.83728,0.51365 z"
         id="path2220" />
      <path
         style="color:#000000;font-weight:300;font-size:19.7556px;font-family:nunito;-inkscape-font-specification:'Nunito Heavy';letter-spacing:-0.529167px;word-spacing:-0.0396875px;fill:#b5df57;stroke:none;stroke-width:3;stroke-linecap:butt;stroke-linejoin:miter;stroke-miterlimit:3.2;paint-order:stroke fill markers"
         d="m 114.60329,256.18177 q -0.82974,0 -1.28412,-0.45438 -0.45438,-0.45438 -0.45438,-1.32363 v -6.5391 q 0,-0.84949 0.43463,-1.30387 0.45437,-0.45438 1.28411,-0.45438 0.82974,0 1.26436,0.45438 0.43462,0.45438 0.43462,1.30387 v 0.92851 l -0.21731,-0.80998 q 0.47413,-0.92851 1.34338,-1.4224 0.889,-0.49389 2.01507,-0.49389 1.16558,0 1.9163,0.45438 0.75071,0.43462 1.12606,1.38289 0.37536,0.92851 0.37536,2.35092 v 4.14867 q 0,0.86925 -0.45438,1.32363 -0.45438,0.45438 -1.30387,0.45438 -0.84949,0 -1.30387,-0.45438 -0.45438,-0.45438 -0.45438,-1.32363 v -4.01038 q 0,-0.88901 -0.31609,-1.26436 -0.29633,-0.37536 -0.889,-0.37536 -0.79022,0 -1.26436,0.51365 -0.47413,0.49389 -0.47413,1.34338 v 3.79307 q 0,1.77801 -1.778,1.77801 z"
         id="path2226" />
      <path
         style="color:#000000;font-weight:300;font-size:19.7556px;font-family:nunito;-inkscape-font-specification:'nunito Light';letter-spacing:-0.529167px;word-spacing:-0.0396875px;fill:#b5df57;stroke:none;stroke-width:3;stroke-linecap:butt;stroke-linejoin:miter;stroke-miterlimit:3.2;paint-order:stroke fill markers"
         d="m 129.26619,256.22128 q -1.63972,0 -2.86456,-0.61242 -1.20509,-0.61243 -1.87678,-1.75825 -0.67169,-1.16558 -0.67169,-2.72628 0,-1.18533 0.37535,-2.11385 0.37536,-0.94826 1.08656,-1.6002 0.73096,-0.65193 1.71874,-0.98778 1.00753,-0.3556 2.23238,-0.3556 0.57291,0 1.20509,0.11853 0.63218,0.0988 1.30387,0.39512 0.47414,0.1778 0.65194,0.55315 0.19755,0.3556 0.15804,0.77047 -0.0198,0.41487 -0.23707,0.75071 -0.19755,0.33585 -0.57291,0.45438 -0.3556,0.11854 -0.80998,-0.0988 -0.31609,-0.15804 -0.67169,-0.21731 -0.33584,-0.079 -0.65193,-0.079 -0.53341,0 -0.94827,0.15805 -0.39511,0.15804 -0.67169,0.47413 -0.27658,0.29633 -0.43463,0.75071 -0.13829,0.45438 -0.13829,1.02729 0,1.14583 0.57292,1.79776 0.57291,0.65194 1.61996,0.65194 0.31609,0 0.65193,-0.0593 0.33585,-0.079 0.67169,-0.23707 0.45438,-0.21731 0.80998,-0.079 0.3556,0.11854 0.57291,0.45438 0.21731,0.33585 0.23707,0.75071 0.0198,0.39512 -0.1778,0.77047 -0.19756,0.3556 -0.67169,0.5334 -0.65194,0.29634 -1.28411,0.39512 -0.61243,0.11853 -1.18534,0.11853 z"
         id="path2232" />
      <path
         style="color:#000000;font-weight:300;font-size:19.7556px;font-family:nunito;-inkscape-font-specification:'nunito Light';letter-spacing:-0.529167px;word-spacing:-0.0396875px;fill:#b5df57;stroke:none;stroke-width:3;stroke-linecap:butt;stroke-linejoin:miter;stroke-miterlimit:3.2;paint-order:stroke fill markers"
         d="m 139.94614,256.22128 q -1.48167,0 -2.4497,-0.45438 -0.94827,-0.45438 -1.4224,-1.36314 -0.47414,-0.92851 -0.47414,-2.3114 v -3.22016 h -0.67169 q -0.63218,0 -0.98778,-0.33585 -0.33584,-0.33584 -0.33584,-0.96802 0,-0.63218 0.33584,-0.94827 0.3556,-0.33585 0.98778,-0.33585 h 0.67169 v -1.22485 q 0,-0.86924 0.45438,-1.32362 0.45438,-0.45438 1.30387,-0.45438 0.84949,0 1.30387,0.45438 0.45438,0.45438 0.45438,1.32362 v 1.22485 h 1.61996 q 0.65193,0 0.98778,0.33585 0.3556,0.31609 0.3556,0.94827 0,0.63218 -0.3556,0.96802 -0.33585,0.33585 -0.98778,0.33585 h -1.61996 v 3.10162 q 0,0.73096 0.33585,1.08656 0.3556,0.33585 1.10631,0.33585 0.27658,0 0.5334,-0.0593 0.25682,-0.0593 0.47413,-0.0593 0.31609,-0.0198 0.51365,0.19756 0.19756,0.19756 0.19756,0.92851 0,0.59267 -0.1778,1.00754 -0.1778,0.39511 -0.63218,0.57291 -0.27658,0.0988 -0.75072,0.15805 -0.47413,0.079 -0.77046,0.079 z"
         id="path2238" />
      <path
         style="color:#000000;font-weight:300;font-size:19.7556px;font-family:nunito;-inkscape-font-specification:'Nunito Heavy';letter-spacing:-0.529167px;word-spacing:-0.0396875px;fill:#b5df57;stroke:none;stroke-width:3;stroke-linecap:butt;stroke-linejoin:miter;stroke-miterlimit:3.2;paint-order:stroke fill markers"
         d="m 145.26816,256.18177 q -0.82973,0 -1.28411,-0.49389 -0.45438,-0.49389 -0.45438,-1.42241 v -6.24277 q 0,-0.92851 0.45438,-1.4224 0.45438,-0.49389 1.28411,-0.49389 0.84949,0 1.30387,0.49389 0.47414,0.49389 0.47414,1.4224 v 6.24277 q 0,0.92852 -0.45438,1.42241 -0.45438,0.49389 -1.32363,0.49389 z m 0,-11.47801 q -0.92851,0 -1.44215,-0.43462 -0.49389,-0.43462 -0.49389,-1.26436 0,-0.80998 0.49389,-1.2446 0.51364,-0.43462 1.44215,-0.43462 0.96803,0 1.46192,0.43462 0.49389,0.43462 0.49389,1.2446 0,0.82974 -0.49389,1.26436 -0.49389,0.43462 -1.46192,0.43462 z"
         id="path2244" />
      <path
         style="color:#000000;font-weight:300;font-size:19.7556px;font-family:nunito;-inkscape-font-specification:'Nunito Heavy';letter-spacing:-0.529167px;word-spacing:-0.0396875px;fill:#b5df57;stroke:none;stroke-width:3;stroke-linecap:butt;stroke-linejoin:miter;stroke-miterlimit:3.2;paint-order:stroke fill markers"
         d="m 153.47098,256.22128 q -1.61996,0 -2.82505,-0.61242 -1.20509,-0.61243 -1.87678,-1.75825 -0.67169,-1.14583 -0.67169,-2.70652 0,-1.18534 0.37535,-2.11385 0.37536,-0.94827 1.08656,-1.6002 0.7112,-0.67169 1.69898,-1.00754 0.98778,-0.3556 2.21263,-0.3556 1.61996,0 2.82505,0.61242 1.20509,0.61243 1.85703,1.75825 0.67169,1.12607 0.67169,2.70652 0,1.16558 -0.37536,2.11385 -0.37536,0.94827 -1.08656,1.61996 -0.69144,0.65193 -1.69898,1.00753 -0.98778,0.33585 -2.19287,0.33585 z m 0,-2.58798 q 0.5334,0 0.94827,-0.25683 0.41487,-0.27658 0.63218,-0.80998 0.23706,-0.55315 0.23706,-1.4224 0,-1.32363 -0.51364,-1.89654 -0.51365,-0.59267 -1.30387,-0.59267 -0.5334,0 -0.94827,0.25683 -0.41487,0.25682 -0.65193,0.80998 -0.23707,0.5334 -0.23707,1.4224 0,1.30387 0.51364,1.89654 0.51365,0.59267 1.32363,0.59267 z"
         id="path2250" />
      <path
         style="color:#000000;font-weight:300;font-size:19.7556px;font-family:nunito;-inkscape-font-specification:'Nunito Heavy';letter-spacing:-0.529167px;word-spacing:-0.0396875px;fill:#b5df57;stroke:none;stroke-width:3;stroke-linecap:butt;stroke-linejoin:miter;stroke-miterlimit:3.2;paint-order:stroke fill markers"
         d="m 161.65401,256.18177 q -0.82973,0 -1.28411,-0.45438 -0.45438,-0.45438 -0.45438,-1.32363 v -6.5391 q 0,-0.84949 0.43462,-1.30387 0.45438,-0.45438 1.28412,-0.45438 0.82973,0 1.26436,0.45438 0.43462,0.45438 0.43462,1.30387 v 0.92851 l -0.21731,-0.80998 q 0.47413,-0.92851 1.34338,-1.4224 0.889,-0.49389 2.01507,-0.49389 1.16558,0 1.91629,0.45438 0.75072,0.43462 1.12607,1.38289 0.37536,0.92851 0.37536,2.35092 v 4.14867 q 0,0.86925 -0.45438,1.32363 -0.45438,0.45438 -1.30387,0.45438 -0.84949,0 -1.30387,-0.45438 -0.45438,-0.45438 -0.45438,-1.32363 v -4.01038 q 0,-0.88901 -0.31609,-1.26436 -0.29633,-0.37536 -0.889,-0.37536 -0.79022,0 -1.26436,0.51365 -0.47413,0.49389 -0.47413,1.34338 v 3.79307 q 0,1.77801 -1.77801,1.77801 z"
         id="path2256" />
    </g>
  </g>
</svg>
