<?xml version="1.0" encoding="UTF-8" standalone="no"?>
<!-- Created with Inkscape (http://www.inkscape.org/) -->

<svg
   width="632.05176"
   height="79.488228"
   viewBox="0 0 632.05176 79.488228"
   version="1.1"
   id="svg5"
   inkscape:version="1.2.1 (9c6d41e410, 2022-07-14)"
   sodipodi:docname="melonfunction_banner.svg"
   xmlns:inkscape="http://www.inkscape.org/namespaces/inkscape"
   xmlns:sodipodi="http://sodipodi.sourceforge.net/DTD/sodipodi-0.dtd"
   xmlns="http://www.w3.org/2000/svg"
   xmlns:svg="http://www.w3.org/2000/svg">
  <sodipodi:namedview
     id="namedview7"
     pagecolor="#000000"
     bordercolor="#000000"
     borderopacity="0"
     inkscape:showpageshadow="2"
     inkscape:pageopacity="0"
     inkscape:pagecheckerboard="true"
     inkscape:deskcolor="#252525"
     inkscape:document-units="px"
     showgrid="false"
     showborder="false"
     borderlayer="true"
     inkscape:zoom="1.576035"
     inkscape:cx="206.2137"
     inkscape:cy="-53.615562"
     inkscape:window-width="1493"
     inkscape:window-height="1243"
     inkscape:window-x="5846"
     inkscape:window-y="681"
     inkscape:window-maximized="0"
     inkscape:current-layer="layer1" />
  <defs
     id="defs2" />
  <g
     inkscape:label="Layer 1"
     inkscape:groupmode="layer"
     id="layer1"
     transform="translate(-2626.2439,-2056.497)">
    <path
       style="color:#000000;font-weight:300;font-size:19.7556px;font-family:nunito;-inkscape-font-specification:'Nunito Heavy';letter-spacing:-0.529167px;word-spacing:-0.0396875px;fill:#5e8b23;stroke:#5e8b23;stroke-width:3.77953;stroke-linecap:butt;stroke-linejoin:miter;stroke-miterlimit:3.2;stroke-dasharray:none;stroke-opacity:1;paint-order:stroke fill markers"
       d="m 2640.3728,2063.0993 c -3.0614,0 -6.3385,0.9333 -8.7254,3.189 -2.4581,2.2839 -3.5137,5.6791 -3.5137,8.7549 v 41.4346 c 0,2.9832 0.8996,6.2117 3.1299,8.5482 a 5.6698583,5.6698583 0 0 0 0.096,0.096 c 2.3099,2.3099 5.6064,3.2997 8.6369,3.2997 3.0549,0 6.415,-0.9676 8.7327,-3.3957 2.2303,-2.3364 3.1373,-5.5649 3.1373,-8.5482 v -1.6904 c 0.9343,1.5294 2.079,2.9647 3.6615,4.0526 1.9323,1.3286 4.1986,1.816 6.2746,1.816 2.0747,0 4.3548,-0.465 6.3484,-1.9046 1.5625,-1.099 2.7642,-2.4825 3.7352,-4.0083 v 1.7347 c 0,2.9833 0.9071,6.2118 3.1373,8.5482 a 5.6698583,5.6698583 0 0 0 0.089,0.096 c 2.3099,2.31 5.6063,3.2997 8.6368,3.2997 3.055,0 6.4151,-0.9675 8.7328,-3.3956 2.2303,-2.3365 3.1373,-5.565 3.1373,-8.5483 v -41.4345 c 0,-3.013 -0.9665,-6.3082 -3.3218,-8.6221 -2.2836,-2.3245 -5.5597,-3.3218 -8.5483,-3.3218 -2.4904,0 -5.0508,0.5007 -7.3007,1.9931 -2.05,1.3433 -3.447,3.1381 -4.621,5.16 a 5.6698583,5.6698583 0 0 0 -0.052,0.096 l -9.7293,17.5467 -9.7589,-17.5246 -0.015,-0.015 c -1.1305,-2.057 -2.612,-3.8951 -4.7023,-5.2338 -2.2336,-1.5089 -4.7519,-2.0226 -7.1973,-2.0226 z m 43.8337,11.2279 a 5.6698583,5.6698583 0 0 0 0.1846,0.1844 c -0.2379,-0.2271 -0.1108,-0.4954 -0.1108,0.5315 v 14.033 a 5.6698583,5.6698583 0 0 0 -5.1599,-3.9493 h -1.565 a 5.6698583,5.6698583 0 0 0 -2.2662,2.2662 l 6.3484,-11.4493 c 0.611,-1.0522 1.098,-1.4246 1.0187,-1.373 a 5.6698583,5.6698583 0 0 0 0.059,-0.038 c -0.1642,0.1096 0.047,-0.096 1.0334,-0.096 0.9518,0 0.6537,0.094 0.4577,-0.1108 z m -43.8337,0.1107 c 0.9864,0 1.1336,0.2162 0.8563,0.023 a 5.6698583,5.6698583 0 0 0 0.2658,0.1773 c -0.087,-0.054 0.3153,0.2154 0.8489,1.1884 a 5.6698583,5.6698583 0 0 0 0.015,0.03 l 6.7397,12.0989 a 5.6698583,5.6698583 0 0 0 -2.9011,-2.9011 h -1.72 a 5.6698583,5.6698583 0 0 0 -4.9089,8.4966 l 0.9596,1.6682 v 21.2599 c 0,0.999 -0.1396,0.8623 0,0.7161 0.2271,-0.2378 0.4954,-0.1108 -0.5315,-0.1108 -0.8158,0 -0.6346,-0.039 -0.5315,0.015 0.063,0.107 0.01,0.2449 0.01,-0.6201 v -41.4345 c 0,-0.9808 0.079,-0.6363 -0.1329,-0.4429 a 5.6698583,5.6698583 0 0 0 0.096,-0.088 c -0.1008,0.096 -0.1633,-0.074 0.9375,-0.074 z m 43.9075,17.783 v 24.2569 c 0,0.999 -0.1396,0.8623 0,0.716 0.2271,-0.2377 0.4954,-0.1107 -0.5315,-0.1107 -0.8045,0 -0.6239,-0.034 -0.5241,0.015 0.063,0.107 0,0.2449 0,-0.6201 v -21.4444 l 0.812,-1.4099 a 5.6698583,5.6698583 0 0 0 0.2436,-1.4026 z m -23.5261,15.3691 h 2.1703 l -0.6422,1.1146 c -0.2745,0.4146 -0.3904,0.5143 -0.4725,0.5906 -0.062,-0.061 -0.1133,-0.072 -0.3543,-0.4798 z m 0.9966,1.779 c -0.01,0.01 -0.1066,0.1277 -0.1033,0.1255 a 5.6698583,5.6698583 0 0 0 -0.1403,0.1032 c 0.421,-0.3088 0.4375,-0.2431 0.2436,-0.2287 z"
       id="path2182" />
    <path
       style="color:#000000;font-weight:300;font-size:19.7556px;font-family:nunito;-inkscape-font-specification:'Nunito Heavy';letter-spacing:-0.529167px;word-spacing:-0.0396875px;fill:#5e8b23;stroke:#5e8b23;stroke-width:3.77953;stroke-linecap:butt;stroke-linejoin:miter;stroke-miterlimit:3.2;stroke-dasharray:none;stroke-opacity:1;paint-order:stroke fill markers"
       d="m 2714.3837,2078.8523 c -4.5568,0 -8.9307,1.047 -12.7559,3.1816 -3.7413,2.0663 -6.8414,5.1016 -9.0133,8.8066 a 5.6698583,5.6698583 0 0 0 -0.015,0.03 c -2.19,3.7829 -3.2259,8.167 -3.2259,12.7707 0,4.7697 1.0947,9.2925 3.4252,13.1545 2.3061,3.8215 5.7264,6.8661 9.818,8.8804 a 5.6698583,5.6698583 0 0 0 0.096,0.044 c 4.1829,1.9646 8.9242,2.8493 14.0551,2.8493 2.3593,0 4.707,-0.2377 7.0128,-0.7086 2.3664,-0.4733 4.6296,-1.1989 6.7692,-2.1703 2.0005,-0.876 3.9658,-2.408 5.1378,-4.5177 a 5.6698583,5.6698583 0 0 0 0.059,-0.1107 c 0.8947,-1.6999 1.4252,-3.7275 1.3214,-5.7579 v -0.01 c -0.091,-1.7979 -0.7941,-3.6387 -1.8234,-5.2115 a 5.6698583,5.6698583 0 0 0 0.1993,-0.1626 c 1.9395,-1.7632 2.6723,-4.4021 2.6723,-6.437 0,-3.4148 -0.5045,-6.6708 -1.5871,-9.6924 -1.0342,-3.0235 -2.6625,-5.775 -4.8426,-8.0315 -2.1621,-2.2865 -4.8347,-4.0414 -7.7952,-5.1673 -2.9644,-1.1768 -6.1722,-1.7421 -9.5079,-1.7421 z m 7.094,10.2903 0.1107,0.074 c -0.018,-0.011 -0.041,0 -0.059,-0.015 -0.023,-0.015 -0.029,-0.045 -0.052,-0.059 z m -13.5753,0.3028 c -0.011,0.01 -0.011,0.023 -0.022,0.03 -0.01,0 -0.021,0 -0.029,0.01 z m -4.8499,6.4813 c -0.233,0.6374 -0.2123,1.3486 -0.3617,2.0078 a 5.6698583,5.6698583 0 0 0 -0.8047,0.8047 c 0.2391,-0.6549 0.1827,-1.591 0.5168,-2.1703 0.1675,-0.2853 0.4711,-0.3801 0.6496,-0.6422 z m 26.9955,9.9951 0.2584,0.088 c -0.049,-0.019 -0.091,0.023 -0.1403,0.01 -0.047,-0.015 -0.071,-0.081 -0.1181,-0.096 z m -28.3686,1.6609 a 5.6698583,5.6698583 0 0 0 0.849,0.8489 c 0.3742,1.5936 1.1631,2.9908 2.0521,4.3553 -0.6307,-0.6383 -1.5974,-1.0551 -2.0743,-1.8455 -0.5309,-0.8798 -0.5248,-2.2767 -0.8268,-3.3587 z m 33.4031,2.0374 0.2362,0.3469 c -0.035,-0.055 -0.1189,-0.063 -0.155,-0.1179 -0.047,-0.068 -0.033,-0.1625 -0.081,-0.229 z"
       id="path2188" />
    <path
       style="color:#000000;font-weight:300;font-size:19.7556px;font-family:nunito;-inkscape-font-specification:'Nunito Heavy';letter-spacing:-0.529167px;word-spacing:-0.0396875px;fill:#5e8b23;stroke:#5e8b23;stroke-width:3.77953;stroke-linecap:butt;stroke-linejoin:miter;stroke-miterlimit:3.2;stroke-dasharray:none;stroke-opacity:1;paint-order:stroke fill markers"
       d="m 2742.767,2063.0993 c -3.1255,0 -6.4933,1.016 -8.8582,3.3809 -2.4231,2.4231 -3.3809,5.8279 -3.3809,9.0059 v 31.9636 c 0,5.9946 1.2827,11.3517 4.7465,15.3543 a 5.6698583,5.6698583 0 0 0 0.074,0.088 c 3.6035,3.9952 9.0329,5.6766 14.8155,5.6766 0.9377,0 1.8827,-0.071 2.842,-0.1991 0.7388,-0.099 1.2978,-0.1678 1.6683,-0.214 a 5.6698583,5.6698583 0 0 0 0.2584,-0.038 c 2.3532,-0.4057 4.8769,-1.5133 6.6215,-3.6318 a 5.6698583,5.6698583 0 0 0 0.1034,-0.118 c 1.7901,-2.3016 2.2367,-4.9428 2.2367,-7.4409 0,-2.3575 0.2381,-4.2303 -1.6019,-6.998 -1.367,-2.1228 -4.3485,-3.595 -6.6068,-3.595 a 5.6698583,5.6698583 0 0 0 -0.5241,0.023 v -30.8711 c 0,-3.1987 -1.0452,-6.6427 -3.5064,-9.0354 -2.3915,-2.3627 -5.7556,-3.3514 -8.8878,-3.3514 z m 0,11.3386 c 1.1297,0 1.027,0.1633 0.9228,0.059 a 5.6698583,5.6698583 0 0 0 0.089,0.081 c -0.1092,-0.1047 0.044,-0.2513 0.044,0.908 v 31.5133 c 0,2.5568 0.3601,5.2287 2.34,7.6329 a 5.6698583,5.6698583 0 0 0 0.1255,0.1477 c 1.2524,1.4194 3.3066,1.8964 5.2264,2.3548 0,4e-4 0,-4e-4 -0.01,0 -0.534,0.071 -0.987,0.096 -1.3435,0.096 -3.7404,0 -5.3543,-0.8511 -6.3336,-1.9193 -1.0058,-1.1859 -1.9636,-3.5425 -1.9636,-7.8617 v -31.9636 c 0,-1.2023 0.1923,-1.1224 0.059,-0.9891 -0.075,0.075 -0.2142,-0.059 0.8416,-0.059 z m 10.6595,32.2146 c 0,10e-5 0.01,0.01 0.01,0.01 -0.1297,0.03 -0.2619,0.034 -0.3912,0.067 z"
       id="path2194" />
    <path
       style="color:#000000;font-weight:300;font-size:19.7556px;font-family:nunito;-inkscape-font-specification:'Nunito Heavy';letter-spacing:-0.529167px;word-spacing:-0.0396875px;fill:#5e8b23;stroke:#5e8b23;stroke-width:3.77953;stroke-linecap:butt;stroke-linejoin:miter;stroke-miterlimit:3.2;stroke-dasharray:none;stroke-opacity:1;paint-order:stroke fill markers"
       d="m 2778.3994,2078.8523 c -3.6192,0 -7.0586,0.537 -10.2387,1.6757 -3.1471,1.0785 -6.0136,2.7612 -8.3932,4.9975 -2.4178,2.2243 -4.293,5.0006 -5.5216,8.0979 -1.2541,3.1111 -1.8234,6.5141 -1.8234,10.0911 0,4.7457 1.0615,9.2395 3.3219,13.0954 2.2176,3.7831 5.4817,6.8315 9.4119,8.8288 3.9511,2.0079 8.4469,2.9306 13.2431,2.9306 3.5631,0 6.9591,-0.4999 10.1132,-1.5723 0.022,0 0.044,-0.011 0.066,-0.015 3.1802,-1.1224 6.0549,-2.8019 8.4228,-5.0345 2.3982,-2.265 4.2566,-5.0542 5.4847,-8.157 1.2384,-3.1284 1.8234,-6.5308 1.8234,-10.0763 0,-4.7687 -1.0556,-9.2573 -3.3293,-13.088 -2.1705,-3.7872 -5.4099,-6.851 -9.3307,-8.8435 -3.9511,-2.008 -8.4543,-2.9306 -13.2505,-2.9306 z m 7.8617,12.9847 c 0.067,0.034 0.1854,0.019 0.251,0.052 0.2953,0.15 0.3734,0.4514 0.6423,0.6127 -0.2558,-0.2661 -0.6104,-0.4223 -0.8933,-0.6644 z m -15.716,0.1773 c -1.3251,1.2322 -2.6974,2.4763 -3.3809,4.06 -1.0596,2.4016 -1.3731,4.9095 -1.3731,7.6403 0,3.9007 0.715,7.5592 3.1521,10.5561 -1.2814,-0.9166 -2.5811,-1.7691 -3.4178,-3.1964 -1.1245,-1.9183 -1.7643,-4.2406 -1.7643,-7.3597 0,-2.3883 0.3723,-4.3062 1.004,-5.8686 0,-0.011 0.01,-0.026 0.015,-0.038 0.6584,-1.6634 1.5233,-2.9035 2.6723,-3.9567 0.02,-0.019 0.039,-0.034 0.059,-0.052 0.8233,-0.7775 1.947,-1.2628 3.034,-1.7864 z m 17.0079,0.7455 0.059,0.074 c -0.01,-0.01 -0.022,-0.011 -0.029,-0.023 -0.014,-0.015 -0.015,-0.038 -0.03,-0.052 z m 0.1181,0.2287 c 1.3506,0.9296 2.6621,1.8289 3.499,3.2997 0.019,0.034 0.039,0.064 0.059,0.096 1.0946,1.8352 1.7421,4.1511 1.7421,7.3302 0,2.3283 -0.3729,4.2479 -1.0261,5.8981 -0.6634,1.676 -1.5382,2.9697 -2.7239,4.0896 -0.7418,0.6994 -1.8744,1.1887 -2.9306,1.72 1.3174,-1.2506 2.65,-2.5452 3.3144,-4.1634 1,-2.3635 1.3362,-4.8625 1.3362,-7.5443 0,-3.9779 -0.679,-7.7016 -3.2702,-10.7259 z m -17.7461,22.1975 c 0.1537,0.1477 0.3544,0.2369 0.5167,0.3764 -0.039,-0.019 -0.109,-0.011 -0.1476,-0.03 -0.1663,-0.084 -0.2109,-0.2589 -0.3691,-0.347 z"
       id="path2200"
       sodipodi:nodetypes="ccccsssscccsscsccsccssccscsssccccccccccsccsscccsssccccc" />
    <path
       style="color:#000000;font-weight:300;font-size:19.7556px;font-family:nunito;-inkscape-font-specification:'Nunito Heavy';letter-spacing:-0.529167px;word-spacing:-0.0396875px;fill:#5e8b23;stroke:#5e8b23;stroke-width:3.77953;stroke-linecap:butt;stroke-linejoin:miter;stroke-miterlimit:3.2;stroke-dasharray:none;stroke-opacity:1;paint-order:stroke fill markers"
       d="m 2827.548,2078.8523 c -3.6661,0 -7.2432,0.8457 -10.3715,2.5836 a 5.6698583,5.6698583 0 0 0 -0.044,0.023 c -0.095,0.054 -0.1273,0.1803 -0.2215,0.2362 -2.2399,-1.7379 -4.9883,-2.6943 -7.655,-2.6943 -3.1255,0 -6.5007,1.0159 -8.8656,3.3809 a 5.6698583,5.6698583 0 0 0 -0.081,0.088 c -2.315,2.4202 -3.2185,5.7436 -3.2185,8.8509 v 24.7146 c 0,3.178 0.9578,6.5828 3.3809,9.0058 2.3649,2.365 5.7327,3.3809 8.8583,3.3809 3.1848,0 6.5939,-0.8803 9.0502,-3.3366 2.2899,-2.2899 3.1186,-5.4083 3.2332,-8.4006 0.123,2.9866 1.0116,6.0977 3.2702,8.3563 2.394,2.394 5.7882,3.3809 8.9395,3.3809 3.1512,0 6.5381,-0.9869 8.9321,-3.3809 2.423,-2.423 3.3809,-5.8278 3.3809,-9.0058 v -15.6792 c 0,-4.0743 -0.5067,-7.7247 -1.8234,-10.9916 -1.3064,-3.2919 -3.5899,-6.2016 -6.6437,-7.9873 -2.9918,-1.7946 -6.4683,-2.5245 -10.1205,-2.5245 z m 0,11.3386 c 2.2002,0 3.5314,0.4287 4.3111,0.9006 a 5.6698583,5.6698583 0 0 0 0.096,0.059 c 0.6989,0.4047 1.2445,0.9442 1.8233,2.4065 a 5.6698583,5.6698583 0 0 0 0.015,0.038 c 0.5688,1.407 1.0039,3.6765 1.0039,6.7618 v 15.6792 c 0,1.2023 -0.1923,1.1224 -0.059,0.9891 0.1042,-0.1043 0.2143,0.059 -0.9154,0.059 -1.1296,0 -1.027,-0.1633 -0.9227,-0.059 0.1332,0.1335 -0.052,0.2132 -0.052,-0.9891 v -15.1624 c 0,-2.8828 -0.3306,-5.7377 -2.4877,-8.349 -0.812,-1.0027 -1.9177,-1.7024 -3.0635,-2.2736 0.101,0 0.1474,-0.059 0.251,-0.059 z m -17.8568,0.1255 a 5.6698583,5.6698583 0 0 0 -0.31,2.9158 l 0.8194,3.0635 a 5.6698583,5.6698583 0 0 0 0.9892,0.657 c -0.5409,1.5349 -0.812,3.1661 -0.812,4.7465 v 14.3357 c 0,1.2951 -0.231,1.2423 -0.015,1.026 0.2163,-0.2161 0.2617,0.023 -1.0334,0.023 -1.0558,0 -0.9168,-0.1342 -0.8416,-0.059 0.1333,0.1334 -0.059,0.2131 -0.059,-0.9892 v -24.7146 c 0,-1.0792 0.137,-1.0292 0.066,-0.9301 -0.068,0.034 -0.1934,-0.052 0.7603,-0.052 0.6773,0 0.4542,-0.019 0.4356,-0.023 z"
       id="path2206" />
    <path
       style="color:#000000;font-weight:300;font-size:19.7556px;font-family:nunito;-inkscape-font-specification:'Nunito Heavy';letter-spacing:-0.529167px;word-spacing:-0.0396875px;fill:#5e8b23;stroke:#5e8b23;stroke-width:3.77953;stroke-linecap:butt;stroke-linejoin:miter;stroke-miterlimit:3.2;stroke-dasharray:none;stroke-opacity:1;paint-order:stroke fill markers"
       d="m 2854.0712,2063.7711 c -3.3448,0 -6.8819,1.028 -9.3824,3.5285 -2.4753,2.4753 -3.4547,5.959 -3.4547,9.2348 v 39.124 c 0,3.2757 0.9758,6.7298 3.3735,9.2273 0.053,0.055 0.1072,0.1096 0.1624,0.1626 2.4431,2.3454 5.8587,3.3735 9.0797,3.3735 3.2513,0 6.752,-0.9755 9.1905,-3.5212 2.4384,-2.5456 3.2701,-5.9726 3.2701,-9.2421 v -8.814 h 10.9843 c 2.6878,0 5.7009,-0.8128 7.8912,-2.9601 2.2393,-2.1562 3.1521,-5.2626 3.1521,-8.0094 0,-2.7221 -0.9511,-5.8078 -3.1447,-7.9281 -1.373,-1.3493 -0.083,-0.9044 -1.8241,-1.3257 2.3314,-0.2374 1.7633,-2.0682 3.6105,-3.9154 0.034,-0.038 0.069,-0.073 0.1032,-0.1108 2.0914,-2.2075 2.9011,-5.214 2.9011,-7.9282 0,-2.6928 -0.8464,-5.7332 -3.0044,-7.8912 -2.2323,-2.2323 -5.3094,-3.0044 -8.0463,-3.0044 z m 0,11.3386 h 5.8317 c -2.5798,0.3189 -4.6121,2.3514 -4.9311,4.9311 v 10.6077 c 0.196,2.8217 2.4416,5.0673 5.2632,5.2633 -2.8216,0.1962 -5.0672,2.4417 -5.2632,5.2633 v 14.4833 c 0,1.4593 -0.2991,1.5837 -0.1255,1.4025 0.1735,-0.181 0.2819,0.023 -0.9966,0.023 -1.0271,0 -1.0362,-0.1311 -1.0851,-0.192 -0.03,-0.019 -0.1919,-0.062 -0.1919,-1.2328 v -39.124 c 0,-1.3038 0.2188,-1.3039 0.1329,-1.218 -0.012,0.011 0.031,-0.2067 1.3656,-0.2067 z m 23.2824,20.6028 c -0.037,0.038 -0.074,0.073 -0.1107,0.1107 0.084,-0.083 -0.067,-0.019 0.01,-0.066 0.052,-0.096 -0.01,0.061 0.1033,-0.044 z m -0.1107,0.288 c 0.036,0.034 0.073,0.069 0.1107,0.1032 -0.1013,-0.096 -0.052,0.03 -0.1033,-0.066 -0.046,-0.034 0.04,0.011 -0.01,-0.038 z"
       id="path2212"
       sodipodi:nodetypes="ssssscssscscsccccssssccccccssscsscccsccssccccc" />
    <path
       style="color:#000000;font-weight:300;font-size:19.7556px;font-family:nunito;-inkscape-font-specification:'Nunito Heavy';letter-spacing:-0.529167px;word-spacing:-0.0396875px;fill:#5e8b23;stroke:#5e8b23;stroke-width:3.77953;stroke-linecap:butt;stroke-linejoin:miter;stroke-miterlimit:3.2;stroke-dasharray:none;stroke-opacity:1;paint-order:stroke fill markers"
       d="m 2892.6194,2078.9999 c -3.1322,0 -6.4963,0.9888 -8.8878,3.3514 -2.4703,2.3978 -3.4326,5.8131 -3.4326,8.969 v 15.6791 c 0,4.109 0.5449,7.8031 1.9488,11.1024 a 5.6698583,5.6698583 0 0 0 0.038,0.096 c 1.4593,3.2661 3.8772,6.0799 6.9464,7.8765 a 5.6698583,5.6698583 0 0 0 0.088,0.052 c 3.1387,1.7607 6.7503,2.4433 10.6152,2.4433 3.3584,0 6.5971,-0.9964 9.4193,-2.7017 2.2291,1.6268 4.9067,2.5541 7.5295,2.5541 3.1293,0 6.5429,-0.9477 8.9173,-3.4325 2.3744,-2.4849 3.1742,-5.8114 3.1742,-8.9543 v -24.7146 c 0,-3.1559 -0.9623,-6.5712 -3.4326,-8.9689 -2.3914,-2.3627 -5.7482,-3.3514 -8.8804,-3.3514 -3.1322,0 -6.4963,0.9887 -8.8878,3.3514 -2.0098,1.9508 -2.8342,4.5783 -3.1373,7.1899 -0.3031,-2.6116 -1.1275,-5.2391 -3.1373,-7.1899 -2.3914,-2.3627 -5.7482,-3.3514 -8.8804,-3.3514 z m 0,11.3386 c 1.1296,0 1.0195,0.1633 0.9153,0.059 a 5.6698583,5.6698583 0 0 0 0.088,0.088 c -0.2196,-0.2098 -0.03,-0.3681 -0.03,0.8342 v 16.0482 c 0,2.5794 0.4993,5.3384 2.436,7.6624 0.7715,0.9258 1.807,1.4585 2.8272,1.9857 -1.658,-0.1391 -3.1907,-0.3511 -3.9345,-0.7603 -0.9766,-0.5808 -1.6357,-1.2971 -2.2515,-2.6575 -0.5787,-1.3828 -1.0335,-3.5706 -1.0335,-6.5994 v -15.6791 c 0,-1.2024 0.1898,-1.044 -0.03,-0.8342 a 5.6698583,5.6698583 0 0 0 0.088,-0.088 c -0.1043,0.1043 -0.2067,-0.059 0.9228,-0.059 z m 24.0428,0 c 1.1296,0 1.0196,0.1633 0.9154,0.059 a 5.6698583,5.6698583 0 0 0 0.088,0.088 c -0.2196,-0.2098 -0.03,-0.3681 -0.03,0.8342 v 24.7145 c 0,1.3372 -0.271,1.367 -0.038,1.1221 0.2339,-0.2449 0.4355,-0.074 -0.7161,-0.074 a 5.6698583,5.6698583 0 0 0 0.015,-3.4843 l -1.1959,-3.654 a 5.6698583,5.6698583 0 0 0 -1.2623,-0.7677 c 0.3171,-1.2308 1.2402,-2.2758 1.2402,-3.5212 v -14.3356 c 0,-1.2024 0.1897,-1.044 -0.03,-0.8342 a 5.6698583,5.6698583 0 0 0 0.088,-0.088 c -0.1043,0.1043 -0.2068,-0.059 0.9227,-0.059 z m -6.6363,35.3371 -0.059,0.038 c 0.011,-0.01 0.011,-0.023 0.023,-0.03 0.011,-0.01 0.026,-4e-4 0.038,-0.01 z"
       id="path2218" />
    <path
       style="color:#000000;font-weight:300;font-size:19.7556px;font-family:nunito;-inkscape-font-specification:'Nunito Heavy';letter-spacing:-0.529167px;word-spacing:-0.0396875px;fill:#5e8b23;stroke:#5e8b23;stroke-width:3.77953;stroke-linecap:butt;stroke-linejoin:miter;stroke-miterlimit:3.2;stroke-dasharray:none;stroke-opacity:1;paint-order:stroke fill markers"
       d="m 2953.8596,2078.8523 c -3.6662,0 -7.2433,0.8457 -10.3716,2.5836 a 5.6698583,5.6698583 0 0 0 -0.044,0.023 c -0.094,0.053 -0.1289,0.1739 -0.2215,0.2287 -2.2394,-1.7363 -4.9896,-2.687 -7.655,-2.687 -3.1256,0 -6.5007,1.0159 -8.8657,3.3809 a 5.6698583,5.6698583 0 0 0 -0.088,0.088 c -2.315,2.4202 -3.2112,5.7436 -3.2112,8.8509 v 24.7146 c 0,3.178 0.9505,6.5828 3.3736,9.0059 2.3649,2.3649 5.7401,3.3809 8.8657,3.3809 3.1848,0 6.5939,-0.8804 9.0501,-3.3366 2.2844,-2.2844 3.1151,-5.3929 3.2333,-8.3785 0.127,2.9796 1.0173,6.0813 3.2702,8.3342 2.394,2.3939 5.7882,3.3809 8.9394,3.3809 3.1513,0 6.5381,-0.987 8.9322,-3.3809 2.423,-2.4231 3.3809,-5.8279 3.3809,-9.0059 v -15.6792 c 0,-4.0743 -0.5067,-7.7247 -1.8234,-10.9916 -1.3064,-3.2919 -3.5899,-6.2016 -6.6437,-7.9872 -2.9918,-1.7947 -6.4683,-2.5246 -10.1205,-2.5246 z m 0,11.3386 c 2.2002,0 3.524,0.4287 4.3036,0.9006 a 5.6698583,5.6698583 0 0 0 0.096,0.059 c 0.6989,0.4047 1.2519,0.9442 1.8307,2.4065 a 5.6698583,5.6698583 0 0 0 0.015,0.038 c 0.5688,1.407 1.004,3.6765 1.004,6.7618 v 15.6792 c 0,1.2023 -0.1924,1.1224 -0.059,0.9891 0.1044,-0.1043 0.2143,0.059 -0.9153,0.059 -1.1297,0 -1.027,-0.1633 -0.9228,-0.059 0.1335,0.1335 -0.059,0.2132 -0.059,-0.9891 v -15.1624 c 0,-2.8787 -0.3315,-5.726 -2.4803,-8.3342 -0.8144,-1.0096 -1.9189,-1.7148 -3.0709,-2.2884 0.1036,0 0.1519,-0.059 0.2585,-0.059 z m -17.8642,0.1255 a 5.6698583,5.6698583 0 0 0 -0.3027,2.9158 l 0.8193,3.0635 a 5.6698583,5.6698583 0 0 0 0.9892,0.657 c -0.5409,1.5349 -0.812,3.1661 -0.812,4.7465 v 14.3357 c 0,1.2951 -0.2309,1.2423 -0.015,1.026 0.2162,-0.2161 0.2615,0.023 -1.0334,0.023 -1.0559,0 -0.9241,-0.1342 -0.849,-0.059 0.1334,0.1334 -0.052,0.2131 -0.052,-0.9892 v -24.7146 c 0,-1.0792 0.1296,-1.0291 0.059,-0.9301 -0.068,0.034 -0.1871,-0.052 0.7677,-0.052 0.6659,0 0.4408,-0.019 0.4282,-0.023 z"
       id="path2224" />
    <path
       style="color:#000000;font-weight:300;font-size:19.7556px;font-family:nunito;-inkscape-font-specification:'nunito Light';letter-spacing:-0.529167px;word-spacing:-0.0396875px;fill:#5e8b23;stroke:#5e8b23;stroke-width:3.77953;stroke-linecap:butt;stroke-linejoin:miter;stroke-miterlimit:3.2;stroke-dasharray:none;stroke-opacity:1;paint-order:stroke fill markers"
       d="m 2991.0569,2078.8523 c -3.6243,0 -7.0796,0.5317 -10.2904,1.6609 -3.1314,1.0691 -5.9959,2.6995 -8.4153,4.8573 -0.019,0.019 -0.039,0.034 -0.059,0.052 -2.431,2.2284 -4.3031,5.0184 -5.5364,8.1274 -1.254,3.1111 -1.8233,6.5141 -1.8233,10.0911 0,4.7457 1.0533,9.247 3.2923,13.1324 0.01,0.011 0.015,0.026 0.023,0.038 2.2176,3.783 5.4891,6.8314 9.4193,8.8287 0.011,0.01 0.019,0.015 0.03,0.023 3.9914,1.9957 8.5239,2.9084 13.3612,2.9084 1.7834,0 3.5893,-0.1897 5.4036,-0.5314 2.042,-0.3236 4.0399,-0.9678 5.9941,-1.8308 2.0885,-0.8026 4.2114,-2.3113 5.4331,-4.5103 0.019,-0.038 0.04,-0.074 0.059,-0.1107 0.9141,-1.7363 1.4198,-3.8023 1.3214,-5.8244 v -0.01 c -0.095,-1.9571 4.8139,-9.1581 3.7318,-10.8304 -18.597,-16.1671 -15.4115,8.1674 -5.4885,-7.6762 1.0085,-1.606 1.5976,-3.4952 1.7126,-5.3592 0.1644,-1.9777 -0.2831,-4.0886 -1.218,-5.8686 -1.1452,-2.2882 -3.2778,-3.9948 -5.411,-4.813 -1.9832,-0.855 -3.9972,-1.4905 -6.0384,-1.816 -1.8617,-0.3432 -3.6987,-0.5388 -5.4995,-0.5388 z m 4.8204,10.3863 0.3617,0.066 c -0.08,-0.019 -0.1637,-0.011 -0.2434,-0.03 -0.041,-0.01 -0.078,-0.03 -0.1179,-0.038 z m 4.0305,1.2992 c 0,0 0.026,0 0.023,0 l 0.088,0.038 c -0.034,-0.019 -0.076,-0.019 -0.1107,-0.038 z m -14.9336,0.6053 c -0.9825,0.6188 -2.0459,1.1306 -2.8125,1.9931 -1.2777,1.3935 -2.2065,3.0331 -2.8051,4.754 -0.023,0.071 -0.046,0.1421 -0.066,0.2139 -0.5417,1.7798 -0.7677,3.6367 -0.7677,5.5364 0,3.832 1.042,7.6542 3.5728,10.534 0.6696,0.7619 1.6247,1.1491 2.4582,1.7126 -0.5105,-0.1871 -1.294,-0.1312 -1.7569,-0.3617 -2.1302,-1.0847 -3.5904,-2.4588 -4.7539,-4.4366 -1.1394,-1.9847 -1.7717,-4.3386 -1.7717,-7.4483 0,-2.3882 0.3723,-4.3061 1.0039,-5.8686 0,-0.011 0.011,-0.026 0.015,-0.038 0.6525,-1.6484 1.5093,-2.8727 2.6428,-3.9197 1.2505,-1.1098 2.6953,-1.9641 4.5177,-2.5837 0.019,0 0.039,-0.011 0.059,-0.015 0.1319,-0.046 0.33,-0.03 0.4651,-0.074 z"
       id="path2230"
       sodipodi:nodetypes="cccccsscccscccccccccccccccccccsccssccccsscccsssccccc" />
    <path
       style="color:#000000;font-weight:300;font-size:19.7556px;font-family:nunito;-inkscape-font-specification:'nunito Light';letter-spacing:-0.529167px;word-spacing:-0.0396875px;fill:#5e8b23;stroke:#5e8b23;stroke-width:3.77953;stroke-linecap:butt;stroke-linejoin:miter;stroke-miterlimit:3.2;stroke-dasharray:none;stroke-opacity:1;paint-order:stroke fill markers"
       d="m 3021.6461,2068.3257 c -3.1512,0 -6.5455,0.9869 -8.9395,3.3809 -2.423,2.4231 -3.3809,5.8279 -3.3809,9.0059 v 0.1179 c -1.5708,0.4313 -3.2423,0.4795 -4.4882,1.6536 -2.2198,2.0893 -3.0487,5.1173 -3.0487,7.7141 0,2.5968 0.8267,5.5658 2.9306,7.6698 0.038,0.038 0.073,0.074 0.1108,0.1107 1.2468,1.1777 2.9221,1.2287 4.4955,1.6609 v 7.6551 c 0,4.1323 0.7008,7.9616 2.4139,11.3164 0.01,0.015 0.015,0.03 0.023,0.044 1.7323,3.3204 4.5647,6.018 7.9503,7.6403 0.015,0.01 0.03,0.015 0.044,0.023 3.4462,1.6177 7.3579,2.2515 11.6708,2.2515 1.2144,0 2.3936,-0.15 3.7278,-0.3693 1.3927,-0.1784 2.6409,-0.3968 3.9272,-0.8563 0.052,-0.019 0.1035,-0.039 0.1549,-0.059 2.2384,-0.8759 4.4331,-2.7623 5.4922,-5.1157 0.015,-0.03 0.03,-0.064 0.044,-0.096 0.833,-1.9437 1.1294,-3.9781 1.1294,-6.0384 0,-2.3045 0.459,-4.4812 -2.3105,-7.3597 -1.5653,-1.6677 7.6053,-2.6466 5.4812,-2.532 -0.9501,0.026 -1.877,0.1262 -2.7682,0.3322 -0.1489,0.034 -0.3337,0.047 -0.5168,0.059 v -5.7357 h 0.4503 c 2.5963,0 -6.2845,-0.8021 -4.145,-2.9085 2.1303,-2.064 3.0635,-5.0684 3.0635,-7.6919 0,-2.5892 -0.9475,-5.5965 -3.1226,-7.6403 -2.1354,-2.0699 -5.0492,-2.8789 -7.6255,-2.8789 h -0.62 c -0.1894,-2.8668 -1.0499,-5.8112 -3.2112,-7.9725 -2.394,-2.394 -5.7808,-3.3809 -8.9321,-3.3809 z m 0,11.3386 c 1.1296,0 1.0196,0.1633 0.9153,0.059 -0.1334,-0.1335 0.059,-0.2132 0.059,0.9891 v 4.6359 c 0.3333,2.5481 2.3387,4.5536 4.8868,4.8868 -2.5506,0.3341 -4.5567,2.3431 -4.8868,4.8942 v 11.7224 c 0,2.7101 0.6348,5.6888 2.8125,7.9946 0.074,0.078 0.1504,0.1546 0.2287,0.2286 0.8646,0.8167 1.8755,1.2247 2.8715,1.6536 -1.388,-0.2117 -3.1159,-0.2929 -3.9419,-0.6792 -1.3641,-0.6596 -2.1118,-1.3913 -2.7609,-2.6279 -0.6712,-1.3243 -1.1663,-3.3042 -1.1663,-6.1269 v -12.1654 c -0.3307,-2.5535 -2.3408,-4.5633 -4.8942,-4.8942 2.551,-0.33 4.5602,-2.3363 4.8942,-4.8868 v -4.6359 c 0,-1.2023 0.1924,-1.1224 0.059,-0.9891 -0.1044,0.1043 -0.2072,-0.059 0.9227,-0.059 z"
       id="path2236"
       sodipodi:nodetypes="sssccscccsscccscccccscccccscscscsssssscccssscccscccssss" />
    <path
       style="color:#000000;font-weight:300;font-size:19.7556px;font-family:nunito;-inkscape-font-specification:'Nunito Heavy';letter-spacing:-0.529167px;word-spacing:-0.0396875px;fill:#5e8b23;stroke:#5e8b23;stroke-width:3.77953;stroke-linecap:butt;stroke-linejoin:miter;stroke-miterlimit:3.2;stroke-dasharray:none;stroke-opacity:1;paint-order:stroke fill markers"
       d="m 3051.5354,2060.9364 c -3.2242,0 -6.5292,0.7991 -9.1093,2.9823 a 5.6698583,5.6698583 0 0 0 -0.081,0.074 c -2.5556,2.249 -3.7943,5.761 -3.7943,8.9542 0,3.2155 1.2067,6.7583 3.7943,9.0354 a 5.6698583,5.6698583 0 0 0 0.081,0.074 c 0.1739,0.1471 0.4028,0.1754 0.5832,0.31 -0.1452,0.1398 -0.3576,0.1833 -0.4946,0.3322 -2.3434,2.5472 -3.2185,5.9557 -3.2185,9.22 v 23.5925 c 0,3.2644 0.875,6.6654 3.2185,9.2126 2.3091,2.5098 5.8052,3.6983 9.0207,3.6983 3.2639,0 6.8112,-1.1282 9.1756,-3.6983 2.3435,-2.5472 3.2186,-5.9482 3.2186,-9.2126 v -23.5925 c 0,-3.2819 -0.9495,-6.7291 -3.3367,-9.2495 -0.1315,-0.1414 -0.3341,-0.1773 -0.4724,-0.3099 0.2143,-0.1622 0.481,-0.1958 0.6865,-0.3765 2.5877,-2.2771 3.7943,-5.8199 3.7943,-9.0354 0,-3.1932 -1.2386,-6.7053 -3.7943,-8.9542 -2.6234,-2.3087 -5.984,-3.0562 -9.2716,-3.0562 z m 0,11.3386 c 1.5907,0 1.921,0.3474 1.7864,0.2291 -0.067,-0.059 -0.059,-0.4457 -0.059,0.4429 0,0.9658 -0.04,0.611 0.059,0.5241 0.1346,-0.1183 -0.1958,0.2286 -1.7864,0.2286 -1.3828,0 -1.6582,-0.2483 -1.6979,-0.2804 0.066,0.1123 0.052,0.3978 0.052,-0.4724 0,-0.7849 -0.01,-0.4907 -0.052,-0.3913 0.04,-0.034 0.3152,-0.2804 1.6979,-0.2804 z m 0,18.0635 c 1.0417,0 0.8073,0.088 0.7603,0.038 a 5.6698583,5.6698583 0 0 0 0.081,0.088 c -0.034,-0.038 0.2139,0.08 0.2139,1.4543 v 23.5925 c 0,1.4148 -0.2752,1.5938 -0.2215,1.5354 0.075,-0.081 0.2823,0.038 -0.8341,0.038 -0.9658,0 -0.6985,-0.058 -0.6792,-0.038 0.054,0.058 -0.2215,-0.1205 -0.2215,-1.5354 v -23.5925 c 0,-1.4148 0.2752,-1.6011 0.2215,-1.5428 -0.019,0.023 -0.2865,-0.038 0.6792,-0.038 z"
       id="path2242" />
    <path
       style="color:#000000;font-weight:300;font-size:19.7556px;font-family:nunito;-inkscape-font-specification:'Nunito Heavy';letter-spacing:-0.529167px;word-spacing:-0.0396875px;fill:#5e8b23;stroke:#5e8b23;stroke-width:3.77953;stroke-linecap:butt;stroke-linejoin:miter;stroke-miterlimit:3.2;stroke-dasharray:none;stroke-opacity:1;paint-order:stroke fill markers"
       d="m 3082.5393,2078.8523 c -3.6192,0 -7.0586,0.537 -10.2387,1.6757 -3.1471,1.0785 -6.0137,2.7612 -8.3932,4.9975 -2.4178,2.2243 -4.293,5.0006 -5.5216,8.0979 -1.254,3.1111 -1.8234,6.5141 -1.8234,10.0911 0,4.7457 1.0542,9.2395 3.3145,13.0954 2.2176,3.7831 5.489,6.8315 9.4193,8.8288 3.9511,2.0079 8.4469,2.9306 13.2431,2.9306 3.5631,0 6.959,-0.4999 10.1132,-1.5723 0.023,0 0.044,-0.011 0.066,-0.015 3.1802,-1.1224 6.0549,-2.8019 8.4228,-5.0345 2.3982,-2.265 4.2566,-5.0542 5.4847,-8.157 1.2384,-3.1284 1.816,-6.5308 1.816,-10.0763 0,-4.7687 -1.0482,-9.2573 -3.3219,-13.088 -2.1705,-3.7872 -5.4099,-6.851 -9.3307,-8.8435 -3.9511,-2.008 -8.4543,-2.9306 -13.2505,-2.9306 z m 7.8617,12.9847 c 0.067,0.034 0.1852,0.019 0.251,0.052 0.2951,0.15 0.3734,0.4514 0.6422,0.6127 -0.2559,-0.2661 -0.6104,-0.4223 -0.8932,-0.6644 z m -15.716,0.1773 c -1.3251,1.2322 -2.6974,2.4763 -3.3809,4.06 -1.0597,2.4016 -1.3731,4.9095 -1.3731,7.6403 0,3.9007 0.715,7.5592 3.1521,10.5561 -1.2814,-0.9166 -2.5812,-1.7691 -3.4178,-3.1964 -1.1246,-1.9183 -1.7643,-4.2406 -1.7643,-7.3597 0,-2.3883 0.3723,-4.3062 1.0039,-5.8686 0,-0.011 0.011,-0.026 0.015,-0.038 0.6584,-1.6634 1.5233,-2.9035 2.6722,-3.9567 0.019,-0.019 0.039,-0.034 0.059,-0.052 0.8233,-0.7775 1.9469,-1.2628 3.0339,-1.7864 z m 17.0078,0.7455 0.059,0.074 c -0.01,-0.01 -0.023,-0.011 -0.03,-0.023 -0.015,-0.015 -0.015,-0.038 -0.03,-0.052 z m 0.118,0.2287 c 1.3507,0.9296 2.6621,1.8289 3.499,3.2997 0.019,0.034 0.039,0.064 0.059,0.096 1.0947,1.8352 1.7348,4.1511 1.7348,7.3302 0,2.3283 -0.3655,4.2479 -1.0187,5.8981 -0.6634,1.676 -1.5382,2.9697 -2.7239,4.0896 -0.7401,0.6977 -1.8778,1.1822 -2.9307,1.7126 1.3103,-1.245 2.6359,-2.5317 3.2997,-4.1412 1.0048,-2.3679 1.3509,-4.8717 1.3509,-7.5591 0,-3.9779 -0.6789,-7.7016 -3.2701,-10.7259 z m -17.7387,22.2047 c 0.1497,0.1436 0.3439,0.2332 0.5019,0.3693 -0.038,-0.019 -0.1035,-0.011 -0.1402,-0.03 -0.1629,-0.083 -0.2067,-0.2532 -0.3617,-0.3394 z"
       id="path2248"
       sodipodi:nodetypes="ccccsssscccsscsccsccssccscsssscccccccccsccsscccsssccccc" />
    <path
       style="color:#000000;font-weight:300;font-size:19.7556px;font-family:nunito;-inkscape-font-specification:'Nunito Heavy';letter-spacing:-0.529167px;word-spacing:-0.0396875px;fill:#5e8b23;stroke:#5e8b23;stroke-width:3.77953;stroke-linecap:butt;stroke-linejoin:miter;stroke-miterlimit:3.2;stroke-dasharray:none;stroke-opacity:1;paint-order:stroke fill markers"
       d="m 3131.6879,2078.8523 c -3.6662,0 -7.2432,0.8457 -10.3715,2.5836 a 5.6698583,5.6698583 0 0 0 -0.044,0.023 c -0.095,0.054 -0.1273,0.1803 -0.2214,0.2362 -2.2399,-1.7379 -4.9884,-2.6943 -7.655,-2.6943 -3.1256,0 -6.5008,1.0159 -8.8657,3.3809 a 5.6698583,5.6698583 0 0 0 -0.089,0.088 c -2.3149,2.4202 -3.2111,5.7436 -3.2111,8.8509 v 24.7146 c 0,3.178 0.9579,6.5828 3.3809,9.0058 2.3649,2.365 5.7327,3.3809 8.8583,3.3809 3.1849,0 6.5939,-0.8803 9.0502,-3.3366 2.2844,-2.2843 3.115,-5.3928 3.2332,-8.3784 0.127,2.9796 1.0173,6.0812 3.2702,8.3341 2.394,2.394 5.7882,3.3809 8.9395,3.3809 3.1513,0 6.538,-0.9869 8.9321,-3.3809 2.423,-2.423 3.3809,-5.8278 3.3809,-9.0058 v -15.6792 c 0,-4.0743 -0.5066,-7.7247 -1.8233,-10.9916 -1.3065,-3.2919 -3.59,-6.2016 -6.6438,-7.9873 -2.9917,-1.7946 -6.4683,-2.5245 -10.1205,-2.5245 z m 0,11.3386 c 2.2002,0 3.5314,0.4287 4.3111,0.9006 a 5.6698583,5.6698583 0 0 0 0.088,0.059 c 0.6989,0.4047 1.2519,0.9442 1.8307,2.4065 a 5.6698583,5.6698583 0 0 0 0.015,0.038 c 0.5687,1.407 1.0039,3.6765 1.0039,6.7618 v 15.6792 c 0,1.2023 -0.1924,1.1224 -0.059,0.9891 0.1044,-0.1043 0.2143,0.059 -0.9153,0.059 -1.1296,0 -1.027,-0.1633 -0.9227,-0.059 0.1334,0.1335 -0.059,0.2132 -0.059,-0.9891 v -15.1624 c 0,-2.8787 -0.3314,-5.726 -2.4803,-8.3342 -0.8144,-1.0096 -1.9189,-1.7148 -3.0709,-2.2884 0.1036,0 0.152,-0.059 0.2586,-0.059 z m -17.8568,0.1255 a 5.6698583,5.6698583 0 0 0 -0.3099,2.9158 l 0.8194,3.0635 a 5.6698583,5.6698583 0 0 0 0.9892,0.657 c -0.5409,1.5349 -0.812,3.1661 -0.812,4.7465 v 14.3357 c 0,1.2951 -0.231,1.2423 -0.015,1.026 0.2162,-0.2161 0.2616,0.023 -1.0334,0.023 -1.0558,0 -0.9167,-0.1342 -0.8416,-0.059 0.1334,0.1334 -0.059,0.2131 -0.059,-0.9892 v -24.7146 c 0,-1.0792 0.1296,-1.0291 0.059,-0.9301 -0.069,0.038 -0.1954,-0.052 0.7677,-0.052 0.6773,0 0.4542,-0.019 0.4356,-0.023 z"
       id="path2254" />
    <path
       style="color:#000000;font-style:normal;font-variant:normal;font-weight:normal;font-stretch:normal;font-size:medium;line-height:normal;font-family:sans-serif;font-variant-ligatures:normal;font-variant-position:normal;font-variant-caps:normal;font-variant-numeric:normal;font-variant-alternates:normal;font-variant-east-asian:normal;font-feature-settings:normal;font-variation-settings:normal;text-indent:0;text-align:start;text-decoration:none;text-decoration-line:none;text-decoration-style:solid;text-decoration-color:#000000;letter-spacing:normal;word-spacing:normal;text-transform:none;writing-mode:lr-tb;direction:ltr;text-orientation:mixed;dominant-baseline:auto;baseline-shift:baseline;text-anchor:start;white-space:normal;shape-padding:0;shape-margin:0;inline-size:0;clip-rule:nonzero;display:inline;overflow:visible;visibility:visible;isolation:auto;mix-blend-mode:normal;color-interpolation:sRGB;color-interpolation-filters:linearRGB;solid-color:#000000;solid-opacity:1;fill:#5e8b23;fill-opacity:1;fill-rule:nonzero;stroke:#5e8b23;stroke-width:3.77953;stroke-linecap:round;stroke-linejoin:bevel;stroke-miterlimit:4;stroke-dasharray:none;stroke-dashoffset:0;stroke-opacity:1;color-rendering:auto;image-rendering:auto;shape-rendering:auto;text-rendering:auto;enable-background:accumulate;stop-color:#000000"
       d="m 3249.6073,2098.9429 c 0.9697,-0.2699 1.7244,-1.0323 1.9843,-2.0047 0.4055,-1.5167 -0.4954,-3.0749 -2.0122,-3.4803 -0.4904,-0.1311 -1.0069,-0.1285 -1.496,0.01 l -4.3945,1.1775 c -0.5617,0.1474 -1.0011,0.585 -1.1508,1.146 -0.2305,0.8619 0.2816,1.7474 1.1433,1.9779 l 4.4298,1.1836 c 0.4905,0.1311 1.007,0.1285 1.4961,-0.01 z"
       id="path2105" />
    <path
       style="color:#000000;font-style:normal;font-variant:normal;font-weight:normal;font-stretch:normal;font-size:medium;line-height:normal;font-family:sans-serif;font-variant-ligatures:normal;font-variant-position:normal;font-variant-caps:normal;font-variant-numeric:normal;font-variant-alternates:normal;font-variant-east-asian:normal;font-feature-settings:normal;font-variation-settings:normal;text-indent:0;text-align:start;text-decoration:none;text-decoration-line:none;text-decoration-style:solid;text-decoration-color:#000000;letter-spacing:normal;word-spacing:normal;text-transform:none;writing-mode:lr-tb;direction:ltr;text-orientation:mixed;dominant-baseline:auto;baseline-shift:baseline;text-anchor:start;white-space:normal;shape-padding:0;shape-margin:0;inline-size:0;clip-rule:nonzero;display:inline;overflow:visible;visibility:visible;isolation:auto;mix-blend-mode:normal;color-interpolation:sRGB;color-interpolation-filters:linearRGB;solid-color:#000000;solid-opacity:1;fill:#5e8b23;fill-opacity:1;fill-rule:nonzero;stroke:#5e8b23;stroke-width:3.77953;stroke-linecap:round;stroke-linejoin:bevel;stroke-miterlimit:4;stroke-dasharray:none;stroke-dashoffset:0;stroke-opacity:1;color-rendering:auto;image-rendering:auto;shape-rendering:auto;text-rendering:auto;enable-background:accumulate;stop-color:#000000"
       d="m 3250.8019,2088.8962 c -1.3004,-0.3478 -2.6741,-0.3432 -3.9715,0.015 l -4.3405,1.1589 c -2.1951,0.5761 -3.9308,2.3037 -4.5177,4.4956 -0.8898,3.3283 1.1599,6.8756 4.4882,7.7658 l 4.4291,1.1811 c 1.3052,0.3488 2.6846,0.3473 3.9862,-0.015 0.7956,-0.2214 1.4004,-0.7671 2.067,-1.218 1.4902,-1.0082 2.7344,-2.3353 3.2111,-4.1191 1.0649,-3.9834 -1.3684,-8.1995 -5.3519,-9.2642 z"
       id="path2107" />
    <path
       style="color:#000000;font-style:normal;font-variant:normal;font-weight:normal;font-stretch:normal;font-size:medium;line-height:normal;font-family:sans-serif;font-variant-ligatures:normal;font-variant-position:normal;font-variant-caps:normal;font-variant-numeric:normal;font-variant-alternates:normal;font-variant-east-asian:normal;font-feature-settings:normal;font-variation-settings:normal;text-indent:0;text-align:start;text-decoration:none;text-decoration-line:none;text-decoration-style:solid;text-decoration-color:#000000;letter-spacing:normal;word-spacing:normal;text-transform:none;writing-mode:lr-tb;direction:ltr;text-orientation:mixed;dominant-baseline:auto;baseline-shift:baseline;text-anchor:start;white-space:normal;shape-padding:0;shape-margin:0;inline-size:0;clip-rule:nonzero;display:inline;overflow:visible;visibility:visible;isolation:auto;mix-blend-mode:normal;color-interpolation:sRGB;color-interpolation-filters:linearRGB;solid-color:#000000;solid-opacity:1;fill:#5e8b23;fill-opacity:1;fill-rule:nonzero;stroke:#5e8b23;stroke-width:3.77953;stroke-linecap:round;stroke-linejoin:bevel;stroke-miterlimit:4;stroke-dasharray:none;stroke-dashoffset:0;stroke-opacity:1;color-rendering:auto;image-rendering:auto;shape-rendering:auto;text-rendering:auto;enable-background:accumulate;stop-color:#000000"
       d="m 3239.4921,2114.1098 c 0.8766,0.4947 1.9494,0.489 2.8206,-0.015 1.3591,-0.7858 1.8239,-2.5247 1.038,-3.8838 -0.2539,-0.4396 -0.6207,-0.8032 -1.0627,-1.053 l -3.94,-2.2748 c -0.5014,-0.2929 -1.1215,-0.2941 -1.6241,0 -0.7724,0.4463 -1.0368,1.4344 -0.5905,2.2068 l 2.2955,3.9693 c 0.254,0.4396 0.6207,0.8032 1.0626,1.053 z"
       id="path2111" />
    <path
       style="color:#000000;font-style:normal;font-variant:normal;font-weight:normal;font-stretch:normal;font-size:medium;line-height:normal;font-family:sans-serif;font-variant-ligatures:normal;font-variant-position:normal;font-variant-caps:normal;font-variant-numeric:normal;font-variant-alternates:normal;font-variant-east-asian:normal;font-feature-settings:normal;font-variation-settings:normal;text-indent:0;text-align:start;text-decoration:none;text-decoration-line:none;text-decoration-style:solid;text-decoration-color:#000000;letter-spacing:normal;word-spacing:normal;text-transform:none;writing-mode:lr-tb;direction:ltr;text-orientation:mixed;dominant-baseline:auto;baseline-shift:baseline;text-anchor:start;white-space:normal;shape-padding:0;shape-margin:0;inline-size:0;clip-rule:nonzero;display:inline;overflow:visible;visibility:visible;isolation:auto;mix-blend-mode:normal;color-interpolation:sRGB;color-interpolation-filters:linearRGB;solid-color:#000000;solid-opacity:1;fill:#5e8b23;fill-opacity:1;fill-rule:nonzero;stroke:#5e8b23;stroke-width:3.77953;stroke-linecap:round;stroke-linejoin:bevel;stroke-miterlimit:4;stroke-dasharray:none;stroke-dashoffset:0;stroke-opacity:1;color-rendering:auto;image-rendering:auto;shape-rendering:auto;text-rendering:auto;enable-background:accumulate;stop-color:#000000"
       d="m 3234.3624,2102.7873 c -2.9829,1.7238 -4.0415,5.6832 -2.3179,8.6663 l 2.2958,3.9641 c 0.6756,1.1699 1.6512,2.1402 2.8272,2.8051 2.325,1.3121 5.1956,1.2976 7.5074,-0.038 3.5673,-2.0625 4.8266,-6.7659 2.7682,-10.3346 -0.6756,-1.17 -1.6511,-2.1402 -2.8272,-2.8051 l -3.8829,-2.2441 c 0,0 0,0 -0.01,0 -1.9576,-1.1404 -4.4008,-1.1472 -6.3631,-0.015 z m 2.8051,15.4355 -1.7126,-1.6609 v 0.01 z"
       id="path2113" />
    <path
       style="color:#000000;font-style:normal;font-variant:normal;font-weight:normal;font-stretch:normal;font-size:medium;line-height:normal;font-family:sans-serif;font-variant-ligatures:normal;font-variant-position:normal;font-variant-caps:normal;font-variant-numeric:normal;font-variant-alternates:normal;font-variant-east-asian:normal;font-feature-settings:normal;font-variation-settings:normal;text-indent:0;text-align:start;text-decoration:none;text-decoration-line:none;text-decoration-style:solid;text-decoration-color:#000000;letter-spacing:normal;word-spacing:normal;text-transform:none;writing-mode:lr-tb;direction:ltr;text-orientation:mixed;dominant-baseline:auto;baseline-shift:baseline;text-anchor:start;white-space:normal;shape-padding:0;shape-margin:0;inline-size:0;clip-rule:nonzero;display:inline;overflow:visible;visibility:visible;isolation:auto;mix-blend-mode:normal;color-interpolation:sRGB;color-interpolation-filters:linearRGB;solid-color:#000000;solid-opacity:1;fill:#5e8b23;fill-opacity:1;fill-rule:nonzero;stroke:#5e8b23;stroke-width:3.77953;stroke-linecap:round;stroke-linejoin:bevel;stroke-miterlimit:4;stroke-dasharray:none;stroke-dashoffset:0;stroke-opacity:1;color-rendering:auto;image-rendering:auto;shape-rendering:auto;text-rendering:auto;enable-background:accumulate;stop-color:#000000"
       d="m 3243.3615,2082.1711 c 0.4948,-0.8765 0.489,-1.9494 -0.015,-2.8206 -0.7857,-1.3592 -2.5246,-1.824 -3.8837,-1.0381 -0.4396,0.2539 -0.8033,0.6207 -1.0531,1.0626 l -2.2748,3.94 c -0.2929,0.5015 -0.2941,1.1215 0,1.6242 0.4465,0.7723 1.4345,1.0365 2.2069,0.59 l 3.9693,-2.2954 c 0.4396,-0.254 0.8033,-0.6208 1.0531,-1.0627 z"
       id="path2117" />
    <path
       style="color:#000000;font-style:normal;font-variant:normal;font-weight:normal;font-stretch:normal;font-size:medium;line-height:normal;font-family:sans-serif;font-variant-ligatures:normal;font-variant-position:normal;font-variant-caps:normal;font-variant-numeric:normal;font-variant-alternates:normal;font-variant-east-asian:normal;font-feature-settings:normal;font-variation-settings:normal;text-indent:0;text-align:start;text-decoration:none;text-decoration-line:none;text-decoration-style:solid;text-decoration-color:#000000;letter-spacing:normal;word-spacing:normal;text-transform:none;writing-mode:lr-tb;direction:ltr;text-orientation:mixed;dominant-baseline:auto;baseline-shift:baseline;text-anchor:start;white-space:normal;shape-padding:0;shape-margin:0;inline-size:0;clip-rule:nonzero;display:inline;overflow:visible;visibility:visible;isolation:auto;mix-blend-mode:normal;color-interpolation:sRGB;color-interpolation-filters:linearRGB;solid-color:#000000;solid-opacity:1;fill:#5e8b23;fill-opacity:1;fill-rule:nonzero;stroke:#5e8b23;stroke-width:3.77953;stroke-linecap:round;stroke-linejoin:bevel;stroke-miterlimit:4;stroke-dasharray:none;stroke-dashoffset:0;stroke-opacity:1;color-rendering:auto;image-rendering:auto;shape-rendering:auto;text-rendering:auto;enable-background:accumulate;stop-color:#000000"
       d="m 3242.8295,2073.4897 c -1.8805,-0.5027 -3.9436,-0.3013 -5.7284,0.7308 -1.17,0.6756 -2.1402,1.6511 -2.8051,2.8272 l -2.2441,3.883 c 0,0 0,0 0,0.01 -1.1405,1.9577 -1.1398,4.4009 -0.01,6.3632 1.7244,2.9826 5.6762,4.0419 8.659,2.3179 l 3.964,-2.2957 c 1.1701,-0.6756 2.1402,-1.6512 2.8052,-2.8273 1.3121,-2.325 1.2976,-5.1956 -0.038,-7.5074 -1.0319,-1.7848 -2.7258,-2.9963 -4.6063,-3.499 z"
       id="path2119" />
    <path
       style="color:#000000;font-style:normal;font-variant:normal;font-weight:normal;font-stretch:normal;font-size:13.0206px;line-height:1.25;font-family:Nunito;-inkscape-font-specification:Nunito;font-variant-ligatures:normal;font-variant-position:normal;font-variant-caps:normal;font-variant-numeric:normal;font-variant-alternates:normal;font-variant-east-asian:normal;font-feature-settings:normal;font-variation-settings:normal;text-indent:0;text-align:start;text-decoration:none;text-decoration-line:none;text-decoration-style:solid;text-decoration-color:#000000;letter-spacing:0px;word-spacing:0px;text-transform:none;writing-mode:lr-tb;direction:ltr;text-orientation:mixed;dominant-baseline:auto;baseline-shift:baseline;text-anchor:start;white-space:normal;shape-padding:0;shape-margin:0;inline-size:0;clip-rule:nonzero;display:inline;overflow:visible;visibility:visible;isolation:auto;mix-blend-mode:normal;color-interpolation:sRGB;color-interpolation-filters:linearRGB;solid-color:#000000;solid-opacity:1;fill:#5e8b23;fill-opacity:1;fill-rule:nonzero;stroke:#5e8b23;stroke-width:3.77953;stroke-linecap:butt;stroke-linejoin:miter;stroke-miterlimit:4;stroke-dasharray:none;stroke-dashoffset:0;stroke-opacity:1;color-rendering:auto;image-rendering:auto;shape-rendering:auto;text-rendering:auto;enable-background:accumulate;stop-color:#000000"
       d="m 3182.7855,2126.5395 c -2.264,0 -3.9967,-0.6162 -5.198,-1.8485 -1.2014,-1.1867 -1.8021,-2.8983 -1.8021,-5.1348 v -15.5412 c 0,-1.9171 -0.3927,-3.3091 -1.1781,-4.1763 -0.7394,-0.8673 -2.0793,-1.3237 -4.0199,-1.3693 -0.6007,0 -1.0858,-0.2283 -1.4555,-0.6847 -0.3696,-0.4564 -0.5544,-0.9813 -0.5544,-1.5746 0,-0.5934 0.1848,-1.0954 0.5544,-1.5062 0.3697,-0.4565 0.8548,-0.7075 1.4555,-0.7531 1.9406,-0.046 3.2805,-0.502 4.0199,-1.3693 0.7854,-0.8672 1.1781,-2.2365 1.1781,-4.1078 v -15.5413 c 0,-2.2364 0.6007,-3.948 1.8021,-5.1348 1.2013,-1.2323 2.934,-1.8485 5.198,-1.8485 h 4.7822 c 0.6931,0 1.2707,0.2053 1.7327,0.6162 0.4621,0.4108 0.6931,0.9357 0.6931,1.5747 0,0.639 -0.2079,1.1638 -0.6238,1.5746 -0.3696,0.4108 -0.8779,0.6162 -1.5248,0.6162 h -3.4653 c -1.9868,0 -2.9802,1.027 -2.9802,3.0809 v 15.6097 c 0,1.8257 -0.4621,3.4003 -1.3862,4.724 -0.9241,1.3236 -2.1254,2.1452 -3.6039,2.4647 1.4785,0.3193 2.6798,1.1411 3.6039,2.4647 0.9241,1.3236 1.3862,2.8983 1.3862,4.724 v 15.6782 c 0,2.0539 0.9934,3.0808 2.9802,3.0808 h 3.4653 c 0.6469,0 1.1552,0.2052 1.5248,0.6162 0.4159,0.4564 0.6238,0.9813 0.6238,1.5747 0,0.639 -0.2309,1.1638 -0.6931,1.5746 -0.462,0.4108 -1.0396,0.6162 -1.7327,0.6162 z"
       id="path2123" />
    <path
       style="color:#000000;font-style:normal;font-variant:normal;font-weight:normal;font-stretch:normal;font-size:13.0206px;line-height:1.25;font-family:Nunito;-inkscape-font-specification:Nunito;font-variant-ligatures:normal;font-variant-position:normal;font-variant-caps:normal;font-variant-numeric:normal;font-variant-alternates:normal;font-variant-east-asian:normal;font-feature-settings:normal;font-variation-settings:normal;text-indent:0;text-align:start;text-decoration:none;text-decoration-line:none;text-decoration-style:solid;text-decoration-color:#000000;letter-spacing:0px;word-spacing:0px;text-transform:none;writing-mode:lr-tb;direction:ltr;text-orientation:mixed;dominant-baseline:auto;baseline-shift:baseline;text-anchor:start;white-space:normal;shape-padding:0;shape-margin:0;inline-size:0;clip-rule:nonzero;display:inline;overflow:visible;visibility:visible;isolation:auto;mix-blend-mode:normal;color-interpolation:sRGB;color-interpolation-filters:linearRGB;solid-color:#000000;solid-opacity:1;fill:#5e8b23;fill-opacity:1;fill-rule:nonzero;stroke:#5e8b23;stroke-width:3.77953;stroke-linecap:butt;stroke-linejoin:miter;stroke-miterlimit:4;stroke-dasharray:none;stroke-dashoffset:0;stroke-opacity:1;color-rendering:auto;image-rendering:auto;shape-rendering:auto;text-rendering:auto;enable-background:accumulate;stop-color:#000000"
       d="m 3182.7872,2058.3868 c -3.6122,0 -7.6929,1.2057 -10.5487,4.097 -2.8494,2.8522 -4.0157,6.8786 -4.0157,10.4453 v 14.4243 c -1.7652,0.5604 -3.6373,1.1582 -4.7835,2.495 -1.493,1.7538 -2.4213,4.2658 -2.4213,6.3632 0,2.1629 0.8589,4.6323 2.2368,6.3337 1.1047,1.364 3.1274,1.7843 4.968,2.3622 v 14.6457 c 0,3.5668 1.1662,7.6006 4.0157,10.4527 2.8558,2.8913 6.9364,4.0896 10.5487,4.0896 h 4.7835 c 2.1865,0 4.8898,-0.8669 6.7544,-2.5246 1.9166,-1.704 3.2259,-4.7586 3.2259,-7.2195 0,-2.3514 -1.0773,-4.9808 -2.5837,-6.6437 -1.5503,-1.7111 -3.9474,-2.3399 -6.0088,-2.6206 v -11.6855 c 0,-2.4614 -1.0174,-4.8997 -2.1777,-7.19 1.162,-2.2915 2.1777,-4.7266 2.1777,-7.19 v -11.619 c 1.9927,-0.2714 4.2567,-0.9217 5.8095,-2.532 1.7062,-1.797 2.783,-4.5259 2.783,-6.7323 0,-2.4609 -1.3093,-5.5155 -3.2259,-7.2195 -1.8647,-1.6577 -4.568,-2.5319 -6.7544,-2.532 z m -11.4862,43.0291 c -0.045,0 -0.097,0.071 -0.1402,0.074 l -0.3986,0.015 c 0.1678,0 0.3669,-0.081 0.5388,-0.088 z m -1.1294,4.4143 c 0.1462,0.01 0.271,0.1992 0.4134,0.1992 h -0.1773 c 0.1285,0 -0.2816,-0.2064 -0.2362,-0.1992 z"
       id="path2125" />
    <path
       style="color:#000000;font-style:normal;font-variant:normal;font-weight:normal;font-stretch:normal;font-size:13.0206px;line-height:1.25;font-family:Nunito;-inkscape-font-specification:Nunito;font-variant-ligatures:normal;font-variant-position:normal;font-variant-caps:normal;font-variant-numeric:normal;font-variant-alternates:normal;font-variant-east-asian:normal;font-feature-settings:normal;font-variation-settings:normal;text-indent:0;text-align:start;text-decoration:none;text-decoration-line:none;text-decoration-style:solid;text-decoration-color:#000000;letter-spacing:0px;word-spacing:0px;text-transform:none;writing-mode:lr-tb;direction:ltr;text-orientation:mixed;dominant-baseline:auto;baseline-shift:baseline;text-anchor:start;white-space:normal;shape-padding:0;shape-margin:0;inline-size:0;clip-rule:nonzero;display:inline;overflow:visible;visibility:visible;isolation:auto;mix-blend-mode:normal;color-interpolation:sRGB;color-interpolation-filters:linearRGB;solid-color:#000000;solid-opacity:1;fill:#5e8b23;fill-opacity:1;fill-rule:nonzero;stroke:#5e8b23;stroke-width:3.77953;stroke-linecap:butt;stroke-linejoin:miter;stroke-miterlimit:4;stroke-dasharray:none;stroke-dashoffset:0;stroke-opacity:1;color-rendering:auto;image-rendering:auto;shape-rendering:auto;text-rendering:auto;enable-background:accumulate;stop-color:#000000"
       d="m 3219.8637,2126.5395 c 2.2641,0 3.9967,-0.6162 5.1981,-1.8485 1.2013,-1.1867 1.802,-2.8983 1.802,-5.1348 v -15.5412 c 0,-1.9171 0.3927,-3.3091 1.1782,-4.1763 0.7393,-0.8673 2.0793,-1.3237 4.0199,-1.3693 0.6006,0 1.0857,-0.2283 1.4554,-0.6847 0.3697,-0.4564 0.5544,-0.9813 0.5544,-1.5746 0,-0.5934 -0.1848,-1.0954 -0.5544,-1.5062 -0.3696,-0.4565 -0.8548,-0.7075 -1.4554,-0.7531 -1.9406,-0.046 -3.2806,-0.502 -4.0199,-1.3693 -0.7855,-0.8672 -1.1782,-2.2365 -1.1782,-4.1078 v -15.5413 c 0,-2.2364 -0.6007,-3.948 -1.802,-5.1348 -1.2014,-1.2323 -2.934,-1.8485 -5.1981,-1.8485 h -4.7822 c -0.6931,0 -1.2706,0.2053 -1.7327,0.6162 -0.462,0.4108 -0.693,0.9357 -0.693,1.5747 0,0.639 0.2078,1.1638 0.6237,1.5746 0.3696,0.4108 0.8779,0.6162 1.5248,0.6162 h 3.4654 c 1.9868,0 2.9802,1.027 2.9802,3.0809 v 15.6097 c 0,1.8257 0.462,3.4003 1.3861,4.724 0.9242,1.3236 2.1255,2.1452 3.604,2.4647 -1.4785,0.3193 -2.6798,1.1411 -3.604,2.4647 -0.9241,1.3236 -1.3861,2.8983 -1.3861,4.724 v 15.6782 c 0,2.0539 -0.9934,3.0808 -2.9802,3.0808 h -3.4654 c -0.6469,0 -1.1551,0.2052 -1.5248,0.6162 -0.4158,0.4564 -0.6237,0.9813 -0.6237,1.5747 0,0.639 0.2309,1.1638 0.693,1.5746 0.4621,0.4108 1.0396,0.6162 1.7327,0.6162 z"
       id="path2129" />
    <path
       style="color:#000000;font-style:normal;font-variant:normal;font-weight:normal;font-stretch:normal;font-size:13.0206px;line-height:1.25;font-family:Nunito;-inkscape-font-specification:Nunito;font-variant-ligatures:normal;font-variant-position:normal;font-variant-caps:normal;font-variant-numeric:normal;font-variant-alternates:normal;font-variant-east-asian:normal;font-feature-settings:normal;font-variation-settings:normal;text-indent:0;text-align:start;text-decoration:none;text-decoration-line:none;text-decoration-style:solid;text-decoration-color:#000000;letter-spacing:0px;word-spacing:0px;text-transform:none;writing-mode:lr-tb;direction:ltr;text-orientation:mixed;dominant-baseline:auto;baseline-shift:baseline;text-anchor:start;white-space:normal;shape-padding:0;shape-margin:0;inline-size:0;clip-rule:nonzero;display:inline;overflow:visible;visibility:visible;isolation:auto;mix-blend-mode:normal;color-interpolation:sRGB;color-interpolation-filters:linearRGB;solid-color:#000000;solid-opacity:1;fill:#5e8b23;fill-opacity:1;fill-rule:nonzero;stroke:#5e8b23;stroke-width:3.77953;stroke-linecap:butt;stroke-linejoin:miter;stroke-miterlimit:4;stroke-dasharray:none;stroke-dashoffset:0;stroke-opacity:1;color-rendering:auto;image-rendering:auto;shape-rendering:auto;text-rendering:auto;enable-background:accumulate;stop-color:#000000"
       d="m 3215.0787,2058.3868 c -2.1864,10e-5 -4.8898,0.8744 -6.7545,2.532 -1.9166,1.704 -3.2259,4.7586 -3.2259,7.2195 0,2.2064 1.0768,4.9353 2.783,6.7323 1.5529,1.6103 3.8168,2.2607 5.8096,2.532 v 11.619 c 0,2.4634 1.0156,4.8985 2.1776,7.19 -1.1602,2.2903 -2.1776,4.7286 -2.1776,7.19 v 11.6855 c -2.0614,0.2808 -4.4586,0.9095 -6.0089,2.6206 -1.5064,1.6629 -2.5837,4.2923 -2.5837,6.6437 0,2.4609 1.3094,5.5155 3.2259,7.2195 1.8647,1.6577 4.568,2.5246 6.7545,2.5246 h 4.7834 c 3.6123,0 7.6929,-1.1983 10.5487,-4.0896 2.8495,-2.8521 4.0084,-6.8859 4.0084,-10.4527 v -14.6457 c 1.8429,-0.5773 3.8693,-0.9966 4.9754,-2.3622 1.3779,-1.7014 2.2367,-4.1708 2.2367,-6.3337 0,-2.0974 -0.9282,-4.6094 -2.4213,-6.3632 -1.1483,-1.3393 -3.0224,-1.9429 -4.7908,-2.5024 v -14.4169 c 0,-3.5667 -1.1589,-7.5931 -4.0084,-10.4453 -2.8558,-2.8913 -6.9364,-4.097 -10.5487,-4.097 z m 16.2696,43.0291 c 0.172,0.01 0.3712,0.085 0.5389,0.088 l -0.3986,-0.015 c -0.043,0 -0.096,-0.068 -0.1402,-0.074 z m 1.1295,4.4143 c 0.045,-0.01 -0.3648,0.2022 -0.2363,0.1992 h -0.1772 c 0.1421,0 0.2672,-0.1901 0.4133,-0.1992 z"
       id="path2131" />
    <path
       id="path2137"
       style="fill:#b5df57;fill-opacity:1;stroke:none;stroke-width:9.44882;stroke-linecap:round;stroke-linejoin:bevel;stroke-miterlimit:4;stroke-dasharray:none"
       d="m 3249.6073,2098.9429 a 2.842603,2.842603 0 0 0 1.9843,-2.0047 2.842603,2.842603 0 0 0 -2.0122,-3.4803 2.842603,2.842603 0 0 0 -1.496,0.01 l -4.3945,1.1775 a 1.6154552,1.6154552 0 0 0 -1.1508,1.1461 1.6154552,1.6154552 0 0 0 1.1433,1.9778 l 4.4298,1.1836 a 2.842603,2.842603 0 0 0 1.4961,-0.01 z"
       inkscape:transform-center-x="-6.7226097"
       inkscape:transform-center-y="-0.00079701619" />
    <path
       id="path2139"
       style="fill:#b5df57;fill-opacity:1;stroke:none;stroke-width:9.44882;stroke-linecap:round;stroke-linejoin:bevel;stroke-miterlimit:4;stroke-dasharray:none"
       d="m 3239.4921,2114.1098 a 2.842603,2.842603 0 0 0 2.8206,-0.015 2.842603,2.842603 0 0 0 1.038,-3.8838 2.842603,2.842603 0 0 0 -1.0627,-1.053 l -3.94,-2.2748 a 1.6154552,1.6154552 0 0 0 -1.6241,0 1.6154552,1.6154552 0 0 0 -0.5905,2.2068 l 2.2955,3.9693 a 2.842603,2.842603 0 0 0 1.0626,1.053 z"
       inkscape:transform-center-x="-4.8015138"
       inkscape:transform-center-y="4.8007571" />
    <path
       id="path2141"
       style="fill:#b5df57;fill-opacity:1;stroke:none;stroke-width:9.44882;stroke-linecap:round;stroke-linejoin:bevel;stroke-miterlimit:4;stroke-dasharray:none"
       d="m 3243.3615,2082.1711 a 2.842603,2.842603 0 0 0 -0.015,-2.8206 2.842603,2.842603 0 0 0 -3.8837,-1.0382 2.842603,2.842603 0 0 0 -1.0531,1.0627 l -2.2748,3.94 a 1.6154552,1.6154552 0 0 0 0,1.6241 1.6154552,1.6154552 0 0 0 2.2069,0.5901 l 3.9693,-2.2954 a 2.842603,2.842603 0 0 0 1.0531,-1.0627 z"
       inkscape:transform-center-x="-4.8006019"
       inkscape:transform-center-y="-4.8015254" />
    <path
       style="color:#000000;font-style:normal;font-variant:normal;font-weight:normal;font-stretch:normal;font-size:13.0206px;line-height:1.25;font-family:Nunito;-inkscape-font-specification:Nunito;font-variant-ligatures:normal;font-variant-position:normal;font-variant-caps:normal;font-variant-numeric:normal;font-variant-alternates:normal;font-variant-east-asian:normal;font-feature-settings:normal;font-variation-settings:normal;text-indent:0;text-align:start;text-decoration:none;text-decoration-line:none;text-decoration-style:solid;text-decoration-color:#000000;letter-spacing:0px;word-spacing:0px;text-transform:none;writing-mode:lr-tb;direction:ltr;text-orientation:mixed;dominant-baseline:auto;baseline-shift:baseline;text-anchor:start;white-space:normal;shape-padding:0;shape-margin:0;inline-size:0;clip-rule:nonzero;display:inline;overflow:visible;visibility:visible;isolation:auto;mix-blend-mode:normal;color-interpolation:sRGB;color-interpolation-filters:linearRGB;solid-color:#000000;solid-opacity:1;fill:#b5df57;fill-opacity:1;fill-rule:nonzero;stroke:none;stroke-width:3.77953;stroke-linecap:butt;stroke-linejoin:miter;stroke-miterlimit:4;stroke-dasharray:none;stroke-dashoffset:0;stroke-opacity:1;color-rendering:auto;image-rendering:auto;shape-rendering:auto;text-rendering:auto;enable-background:accumulate;stop-color:#000000"
       d="m 3182.7872,2064.0561 c -2.5982,0 -4.9181,0.7681 -6.5329,2.4139 -1.6156,1.6033 -2.3622,3.8904 -2.3622,6.4591 v 15.5463 c 0,1.6069 -0.3553,2.4687 -0.6866,2.8346 l -0.015,0.023 -0.023,0.023 c -0.2203,0.2585 -0.9629,0.6695 -2.6279,0.7087 h -0.044 -0.052 c -1.0273,0.078 -2.0638,0.6349 -2.7313,1.4321 -0.6492,0.7437 -1.0261,1.7486 -1.0261,2.7165 0,0.9857 0.3527,1.9931 0.9744,2.7608 0.6848,0.8454 1.8439,1.3878 2.9233,1.3878 h -0.044 c 1.665,0.039 2.4077,0.4428 2.628,0.7013 l 0.023,0.023 0.015,0.023 c 0.3205,0.3538 0.6865,1.2496 0.6865,2.9085 v 15.5389 c 0,2.5687 0.7466,4.8632 2.3622,6.4665 1.6149,1.6458 3.9348,2.4065 6.5329,2.4065 h 4.7835 c 1.0665,0 2.1696,-0.37 2.9823,-1.0925 0.8257,-0.7341 1.3287,-1.8878 1.3287,-2.9823 0,-1.0316 -0.4207,-2.0847 -1.1072,-2.842 -0.7363,-0.8182 -1.8837,-1.2402 -2.9306,-1.2402 h -3.4621 c -0.6678,0 -0.8195,-0.1308 -0.8785,-0.192 -0.059,-0.061 -0.2139,-0.2816 -0.2139,-1.0039 v -15.6718 c 0,-2.1445 -0.5698,-4.1515 -1.7274,-5.8095 -0.4943,-0.7081 -1.3732,-0.8728 -2.0374,-1.3804 0.665,-0.508 1.5426,-0.6791 2.0374,-1.3878 1.1576,-1.658 1.7274,-3.6576 1.7274,-5.8022 v -15.6127 c 0,-0.7223 0.155,-0.9356 0.2139,-0.9966 0.059,-0.061 0.2105,-0.192 0.8785,-0.192 h 3.4621 c 1.0284,0 2.1415,-0.428 2.8789,-1.218 0.7356,-0.7539 1.1589,-1.8362 1.1589,-2.8642 0,-1.0944 -0.503,-2.2481 -1.3287,-2.9822 -0.8127,-0.7225 -1.9159,-1.0999 -2.9823,-1.0999 z"
       id="path2145"
       sodipodi:nodetypes="ccsscccccccsscccccsscsssscsscssscsssssscsscc" />
    <path
       style="color:#000000;font-style:normal;font-variant:normal;font-weight:normal;font-stretch:normal;font-size:13.0206px;line-height:1.25;font-family:Nunito;-inkscape-font-specification:Nunito;font-variant-ligatures:normal;font-variant-position:normal;font-variant-caps:normal;font-variant-numeric:normal;font-variant-alternates:normal;font-variant-east-asian:normal;font-feature-settings:normal;font-variation-settings:normal;text-indent:0;text-align:start;text-decoration:none;text-decoration-line:none;text-decoration-style:solid;text-decoration-color:#000000;letter-spacing:0px;word-spacing:0px;text-transform:none;writing-mode:lr-tb;direction:ltr;text-orientation:mixed;dominant-baseline:auto;baseline-shift:baseline;text-anchor:start;white-space:normal;shape-padding:0;shape-margin:0;inline-size:0;clip-rule:nonzero;display:inline;overflow:visible;visibility:visible;isolation:auto;mix-blend-mode:normal;color-interpolation:sRGB;color-interpolation-filters:linearRGB;solid-color:#000000;solid-opacity:1;fill:#b5df57;fill-opacity:1;fill-rule:nonzero;stroke:none;stroke-width:3.77953;stroke-linecap:butt;stroke-linejoin:miter;stroke-miterlimit:4;stroke-dasharray:none;stroke-dashoffset:0;stroke-opacity:1;color-rendering:auto;image-rendering:auto;shape-rendering:auto;text-rendering:auto;enable-background:accumulate;stop-color:#000000"
       d="m 3219.8621,2064.0541 c 2.5982,0 4.9181,0.7682 6.533,2.4139 1.6156,1.6033 2.3622,3.8905 2.3622,6.4592 v 15.5462 c 0,1.607 0.3553,2.4688 0.6865,2.8347 l 0.015,0.023 0.023,0.023 c 0.2204,0.2585 0.963,0.6696 2.628,0.7087 h 0.044 0.052 c 1.0273,0.078 2.0638,0.6349 2.7313,1.4321 0.6492,0.7438 1.026,1.7486 1.026,2.7165 0,0.9858 -0.3526,1.9932 -0.9744,2.7609 -0.6847,0.8454 -1.8439,1.3877 -2.9232,1.3877 h 0.044 c -1.665,0.039 -2.4076,0.4429 -2.6279,0.7013 l -0.023,0.023 -0.015,0.023 c -0.3205,0.3537 -0.6865,1.2495 -0.6865,2.9084 v 15.5389 c 0,2.5687 -0.7466,4.8632 -2.3622,6.4666 -1.6149,1.6457 -3.9348,2.4065 -6.533,2.4065 h -4.7835 c -1.0664,-1e-4 -2.1695,-0.3701 -2.9822,-1.0926 -0.8257,-0.7341 -1.3288,-1.8878 -1.3288,-2.9823 0,-1.0315 0.4207,-2.0847 1.1073,-2.842 0.7363,-0.8182 1.8837,-1.2402 2.9306,-1.2402 h 3.4621 c 0.6678,0 0.8195,-0.1307 0.8784,-0.192 0.059,-0.061 0.214,-0.2815 0.214,-1.0039 v -15.6717 c 0,-2.1446 0.5698,-4.1516 1.7273,-5.8096 0.4944,-0.7081 1.3732,-0.8728 2.0374,-1.3804 -0.665,-0.5079 -1.5425,-0.679 -2.0374,-1.3878 -1.1575,-1.658 -1.7273,-3.6576 -1.7273,-5.8022 v -15.6127 c 0,-0.7222 -0.155,-0.9356 -0.214,-0.9965 -0.059,-0.061 -0.2105,-0.192 -0.8784,-0.192 h -3.4621 c -1.0284,0 -2.1415,-0.428 -2.8789,-1.218 -0.7356,-0.754 -1.159,-1.8363 -1.159,-2.8642 0,-1.0945 0.5031,-2.2482 1.3288,-2.9823 0.8127,-0.7225 1.9158,-1.0999 2.9822,-1.0999 z"
       id="path2147"
       sodipodi:nodetypes="ccsscccccccsscccccsscsssscsscssscsssssscsscc" />
    <path
       style="color:#000000;font-weight:300;font-size:19.7556px;font-family:nunito;-inkscape-font-specification:'Nunito Heavy';letter-spacing:-0.529167px;word-spacing:-0.0396875px;fill:#b5df57;stroke:none;stroke-width:11.3386;stroke-linecap:butt;stroke-linejoin:miter;stroke-miterlimit:3.2;paint-order:stroke fill markers"
       d="m 2639.9967,2122.7529 q -2.9867,0 -4.6294,-1.6427 -1.568,-1.6427 -1.568,-4.6293 v -41.4401 q 0,-3.0614 1.7174,-4.6294 1.7173,-1.6427 4.8533,-1.6427 2.6133,0 4.1067,1.0454 1.568,0.9706 2.8373,3.2853 l 16.0534,28.8214 h -2.6134 l 15.9787,-28.8214 q 1.344,-2.3147 2.8374,-3.2853 1.568,-1.0454 4.1813,-1.0454 2.9867,0 4.5547,1.6427 1.6427,1.568 1.6427,4.6294 v 41.4401 q 0,2.9866 -1.568,4.6293 -1.568,1.6427 -4.6294,1.6427 -2.9866,0 -4.6293,-1.6427 -1.568,-1.6427 -1.568,-4.6293 v -25.6854 h 1.568 l -12.0214,20.9067 q -1.0453,1.6426 -2.24,2.464 -1.12,0.8213 -3.0613,0.8213 -1.8667,0 -3.0614,-0.8213 -1.1946,-0.8214 -2.1653,-2.464 l -12.096,-20.9814 h 1.7173 v 25.7601 q 0,2.9866 -1.568,4.6293 -1.568,1.6427 -4.6293,1.6427 z"
       id="path2184" />
    <path
       style="color:#000000;font-weight:300;font-size:19.7556px;font-family:nunito;-inkscape-font-specification:'Nunito Heavy';letter-spacing:-0.529167px;word-spacing:-0.0396875px;fill:#b5df57;stroke:none;stroke-width:11.3386;stroke-linecap:butt;stroke-linejoin:miter;stroke-miterlimit:3.2;paint-order:stroke fill markers"
       d="m 2716.7702,2122.9022 q -6.72,0 -11.648,-2.3147 -4.8533,-2.3893 -7.4667,-6.72 -2.6133,-4.3307 -2.6133,-10.2294 0,-5.6746 2.464,-9.9306 2.5387,-4.3307 6.8693,-6.72 4.4054,-2.4641 10.0054,-2.4641 4.1067,0 7.4667,1.344 3.36,1.2694 5.7493,3.8081 2.3894,2.464 3.584,5.9733 1.2694,3.5093 1.2694,7.84 0,1.4933 -0.8214,2.24 -0.8213,0.672 -2.6133,0.672 h -22.8481 v -6.272 h 16.5761 l -1.1947,0.9707 q 0,-2.7627 -0.7467,-4.48 -0.7466,-1.7174 -2.24,-2.6134 -1.4186,-0.896 -3.584,-0.896 -2.3146,0 -4.032,1.12 -1.6426,1.0454 -2.5387,3.136 -0.896,2.0907 -0.896,5.2267 v 0.672 q 0,5.3013 2.3147,7.616 2.3894,2.2401 7.3174,2.2401 1.6426,0 3.7333,-0.3735 2.1654,-0.448 4.1067,-1.1946 1.9413,-0.7467 3.36,-0.2242 1.4187,0.448 2.1653,1.6427 0.8214,1.12 0.896,2.6134 0.075,1.4186 -0.672,2.8373 -0.7466,1.344 -2.464,2.0907 -2.6133,1.1946 -5.6,1.792 -2.912,0.5973 -5.8987,0.5973 z"
       id="path2190" />
    <path
       style="color:#000000;font-weight:300;font-size:19.7556px;font-family:nunito;-inkscape-font-specification:'Nunito Heavy';letter-spacing:-0.529167px;word-spacing:-0.0396875px;fill:#b5df57;stroke:none;stroke-width:11.3386;stroke-linecap:butt;stroke-linejoin:miter;stroke-miterlimit:3.2;paint-order:stroke fill markers"
       d="m 2750.1623,2122.9022 q -7.168,0 -10.6027,-3.808 -3.36,-3.8827 -3.36,-11.648 v -31.9575 q 0,-3.2853 1.7174,-5.0026 1.7173,-1.7174 4.8533,-1.7174 3.2107,0 4.928,1.7174 1.792,1.7173 1.792,5.0026 v 31.5095 q 0,2.7626 1.0454,4.032 1.12,1.2693 2.8373,1.2693 0.5227,0 1.0453,-0.075 0.5974,-0.1493 1.2694,-0.2241 1.2693,0 1.8667,0.9707 0.672,0.9707 0.672,3.9573 0,2.6134 -1.0454,3.9574 -1.0453,1.2693 -3.2107,1.6426 -0.5973,0.075 -1.7173,0.2242 -1.12,0.1493 -2.0907,0.1493 z"
       id="path2196" />
    <path
       style="color:#000000;font-weight:300;font-size:19.7556px;font-family:nunito;-inkscape-font-specification:'Nunito Heavy';letter-spacing:-0.529167px;word-spacing:-0.0396875px;fill:#b5df57;stroke:none;stroke-width:11.3386;stroke-linecap:butt;stroke-linejoin:miter;stroke-miterlimit:3.2;paint-order:stroke fill markers"
       d="m 2778.4024,2122.9022 q -6.1226,0 -10.6773,-2.3147 -4.5547,-2.3147 -7.0934,-6.6453 -2.5386,-4.3307 -2.5386,-10.2294 0,-4.48 1.4186,-7.9893 1.4187,-3.584 4.1067,-6.048 2.688,-2.5387 6.4213,-3.8081 3.7334,-1.344 8.3627,-1.344 6.1227,0 10.6774,2.3147 4.5547,2.3147 7.0187,6.6454 2.5386,4.256 2.5386,10.2293 0,4.4054 -1.4186,7.9894 -1.4187,3.584 -4.1067,6.1227 -2.6133,2.4639 -6.4213,3.8079 -3.7334,1.2694 -8.2881,1.2694 z m 0,-9.7813 q 2.016,0 3.584,-0.9707 1.568,-1.0454 2.3894,-3.0614 0.896,-2.0906 0.896,-5.376 0,-5.0027 -1.9414,-7.168 -1.9413,-2.24 -4.928,-2.24 -2.016,0 -3.584,0.9707 -1.568,0.9706 -2.464,3.0613 -0.896,2.016 -0.896,5.376 0,4.928 1.9414,7.168 1.9413,2.2401 5.0026,2.2401 z"
       id="path2202" />
    <path
       style="color:#000000;font-weight:300;font-size:19.7556px;font-family:nunito;-inkscape-font-specification:'Nunito Heavy';letter-spacing:-0.529167px;word-spacing:-0.0396875px;fill:#b5df57;stroke:none;stroke-width:11.3386;stroke-linecap:butt;stroke-linejoin:miter;stroke-miterlimit:3.2;paint-order:stroke fill markers"
       d="m 2809.3305,2122.7529 q -3.1361,0 -4.8534,-1.7174 -1.7173,-1.7173 -1.7173,-5.0027 v -24.7147 q 0,-3.2106 1.6426,-4.928 1.7174,-1.7173 4.8534,-1.7173 3.136,0 4.7787,1.7173 1.6426,1.7174 1.6426,4.928 v 3.5094 l -0.8213,-3.0614 q 1.792,-3.5093 5.0773,-5.376 3.3601,-1.8667 7.6161,-1.8667 4.4053,0 7.2426,1.7174 2.8374,1.6426 4.2561,5.2267 1.4186,3.5093 1.4186,8.8853 v 15.68 q 0,3.2854 -1.7173,5.0027 -1.7174,1.7174 -4.928,1.7174 -3.2107,0 -4.928,-1.7174 -1.7174,-1.7173 -1.7174,-5.0027 v -15.1573 q 0,-3.36 -1.1946,-4.7787 -1.12,-1.4187 -3.3601,-1.4187 -2.9866,0 -4.7786,1.9414 -1.792,1.8666 -1.792,5.0773 v 14.336 q 0,6.7201 -6.72,6.7201 z"
       id="path2208" />
    <path
       style="color:#000000;font-weight:300;font-size:19.7556px;font-family:nunito;-inkscape-font-specification:'Nunito Heavy';letter-spacing:-0.529167px;word-spacing:-0.0396875px;fill:#b5df57;stroke:none;stroke-width:11.3386;stroke-linecap:butt;stroke-linejoin:miter;stroke-miterlimit:3.2;paint-order:stroke fill markers"
       d="m 2853.848,2122.7529 q -3.2854,0 -5.1521,-1.7921 -1.792,-1.8666 -1.792,-5.3013 v -39.1254 q 0,-3.4347 1.792,-5.2267 1.8667,-1.8667 5.3761,-1.8667 h 24.864 q 2.688,0 4.032,1.344 1.344,1.344 1.344,3.8827 0,2.6134 -1.344,4.032 -1.344,1.344 -4.032,1.344 h -18.2934 v 10.6027 h 16.6507 q 2.6134,0 3.9574,1.344 1.4187,1.344 1.4187,3.8827 0,2.6133 -1.4187,3.9573 -1.344,1.344 -3.9574,1.344 h -16.6507 v 14.4854 q 0,7.0934 -6.7946,7.0934 z"
       id="path2214" />
    <path
       style="color:#000000;font-weight:300;font-size:19.7556px;font-family:nunito;-inkscape-font-specification:'Nunito Heavy';letter-spacing:-0.529167px;word-spacing:-0.0396875px;fill:#b5df57;stroke:none;stroke-width:11.3386;stroke-linecap:butt;stroke-linejoin:miter;stroke-miterlimit:3.2;paint-order:stroke fill markers"
       d="m 2899.9334,2122.9022 q -4.7786,0 -7.84,-1.7173 -3.0613,-1.792 -4.6293,-5.3014 -1.4934,-3.5093 -1.4934,-8.8853 v -15.6801 q 0,-3.2853 1.7174,-4.928 1.7173,-1.7173 4.928,-1.7173 3.2107,0 4.928,1.7173 1.7173,1.6427 1.7173,4.928 v 16.0534 q 0,2.688 1.12,4.032 1.12,1.344 3.5094,1.344 2.688,0 4.4053,-1.9413 1.7174,-1.9414 1.7174,-5.152 v -14.3361 q 0,-3.2853 1.7173,-4.928 1.7173,-1.7173 4.928,-1.7173 3.2107,0 4.928,1.7173 1.7174,1.6427 1.7174,4.928 v 24.7147 q 0,6.7201 -6.4214,6.7201 -3.136,0 -4.8533,-1.7174 -1.7174,-1.7173 -1.7174,-5.0027 v -4.3306 l 1.1947,3.6586 q -1.6427,3.6587 -4.6293,5.6 -2.912,1.9414 -6.9441,1.9414 z"
       id="path2220" />
    <path
       style="color:#000000;font-weight:300;font-size:19.7556px;font-family:nunito;-inkscape-font-specification:'Nunito Heavy';letter-spacing:-0.529167px;word-spacing:-0.0396875px;fill:#b5df57;stroke:none;stroke-width:11.3386;stroke-linecap:butt;stroke-linejoin:miter;stroke-miterlimit:3.2;paint-order:stroke fill markers"
       d="m 2935.6402,2122.7529 q -3.136,0 -4.8534,-1.7174 -1.7173,-1.7173 -1.7173,-5.0027 v -24.7147 q 0,-3.2106 1.6427,-4.928 1.7173,-1.7173 4.8533,-1.7173 3.136,0 4.7787,1.7173 1.6427,1.7174 1.6427,4.928 v 3.5094 l -0.8214,-3.0614 q 1.792,-3.5093 5.0774,-5.376 3.36,-1.8667 7.616,-1.8667 4.4053,0 7.2427,1.7174 2.8373,1.6426 4.256,5.2267 1.4186,3.5093 1.4186,8.8853 v 15.68 q 0,3.2854 -1.7173,5.0027 -1.7173,1.7174 -4.928,1.7174 -3.2107,0 -4.928,-1.7174 -1.7174,-1.7173 -1.7174,-5.0027 v -15.1573 q 0,-3.36 -1.1946,-4.7787 -1.12,-1.4187 -3.36,-1.4187 -2.9867,0 -4.7787,1.9414 -1.792,1.8666 -1.792,5.0773 v 14.336 q 0,6.7201 -6.72,6.7201 z"
       id="path2226" />
    <path
       style="color:#000000;font-weight:300;font-size:19.7556px;font-family:nunito;-inkscape-font-specification:'nunito Light';letter-spacing:-0.529167px;word-spacing:-0.0396875px;fill:#b5df57;stroke:none;stroke-width:11.3386;stroke-linecap:butt;stroke-linejoin:miter;stroke-miterlimit:3.2;paint-order:stroke fill markers"
       d="m 2991.059,2122.9022 q -6.1973,0 -10.8267,-2.3147 -4.5546,-2.3147 -7.0933,-6.6453 -2.5387,-4.4054 -2.5387,-10.3041 0,-4.48 1.4187,-7.9893 1.4187,-3.584 4.1067,-6.048 2.7626,-2.464 6.496,-3.7334 3.808,-1.344 8.4373,-1.344 2.1654,0 4.5547,0.448 2.3893,0.3734 4.928,1.4934 1.792,0.672 2.464,2.0906 0.7467,1.344 0.5974,2.9121 -0.075,1.568 -0.8961,2.8373 -0.7466,1.2693 -2.1653,1.7173 -1.344,0.448 -3.0613,-0.3734 -1.1947,-0.5973 -2.5387,-0.8213 -1.2693,-0.2986 -2.464,-0.2986 -2.016,0 -3.584,0.5973 -1.4933,0.5974 -2.5387,1.792 -1.0453,1.12 -1.6427,2.8374 -0.5226,1.7173 -0.5226,3.8826 0,4.3307 2.1653,6.7947 2.1654,2.464 6.1227,2.464 1.1947,0 2.464,-0.2241 1.2694,-0.2986 2.5387,-0.896 1.7173,-0.8213 3.0613,-0.2986 1.344,0.448 2.1653,1.7174 0.8214,1.2693 0.8961,2.8373 0.075,1.4934 -0.672,2.912 -0.7467,1.344 -2.5387,2.016 -2.464,1.12 -4.8533,1.4934 -2.3147,0.448 -4.4801,0.448 z"
       id="path2232" />
    <path
       style="color:#000000;font-weight:300;font-size:19.7556px;font-family:nunito;-inkscape-font-specification:'nunito Light';letter-spacing:-0.529167px;word-spacing:-0.0396875px;fill:#b5df57;stroke:none;stroke-width:11.3386;stroke-linecap:butt;stroke-linejoin:miter;stroke-miterlimit:3.2;paint-order:stroke fill markers"
       d="m 3031.4242,2122.9022 q -5.6,0 -9.2587,-1.7173 -3.584,-1.7174 -5.376,-5.1521 -1.792,-3.5093 -1.792,-8.736 v -12.1707 h -2.5387 q -2.3893,0 -3.7333,-1.2693 -1.2694,-1.2693 -1.2694,-3.6587 0,-2.3893 1.2694,-3.584 1.344,-1.2693 3.7333,-1.2693 h 2.5387 v -4.6294 q 0,-3.2853 1.7173,-5.0026 1.7173,-1.7174 4.928,-1.7174 3.2107,0 4.928,1.7174 1.7174,1.7173 1.7174,5.0026 v 4.6294 h 6.1227 q 2.4639,0 3.7333,1.2693 1.344,1.1947 1.344,3.584 0,2.3894 -1.344,3.6587 -1.2694,1.2693 -3.7333,1.2693 h -6.1227 v 11.7227 q 0,2.7627 1.2693,4.1067 1.344,1.2693 4.1814,1.2693 1.0453,0 2.016,-0.2241 0.9706,-0.2241 1.7919,-0.2241 1.1947,-0.075 1.9414,0.7467 0.7467,0.7467 0.7467,3.5093 0,2.24 -0.672,3.808 -0.672,1.4934 -2.3894,2.1654 -1.0453,0.3734 -2.8373,0.5973 -1.792,0.2986 -2.912,0.2986 z"
       id="path2238" />
    <path
       style="color:#000000;font-weight:300;font-size:19.7556px;font-family:nunito;-inkscape-font-specification:'Nunito Heavy';letter-spacing:-0.529167px;word-spacing:-0.0396875px;fill:#b5df57;stroke:none;stroke-width:11.3386;stroke-linecap:butt;stroke-linejoin:miter;stroke-miterlimit:3.2;paint-order:stroke fill markers"
       d="m 3051.5389,2122.7529 q -3.136,0 -4.8533,-1.8667 -1.7174,-1.8667 -1.7174,-5.376 v -23.5948 q 0,-3.5093 1.7174,-5.376 1.7173,-1.8666 4.8533,-1.8666 3.2107,0 4.928,1.8666 1.7921,1.8667 1.7921,5.376 v 23.5948 q 0,3.5093 -1.7174,5.376 -1.7173,1.8667 -5.0027,1.8667 z m 0,-43.3815 q -3.5093,0 -5.4506,-1.6426 -1.8667,-1.6427 -1.8667,-4.7787 0,-3.0614 1.8667,-4.704 1.9413,-1.6427 5.4506,-1.6427 3.6587,0 5.5254,1.6427 1.8667,1.6426 1.8667,4.704 0,3.136 -1.8667,4.7787 -1.8667,1.6426 -5.5254,1.6426 z"
       id="path2244" />
    <path
       style="color:#000000;font-weight:300;font-size:19.7556px;font-family:nunito;-inkscape-font-specification:'Nunito Heavy';letter-spacing:-0.529167px;word-spacing:-0.0396875px;fill:#b5df57;stroke:none;stroke-width:11.3386;stroke-linecap:butt;stroke-linejoin:miter;stroke-miterlimit:3.2;paint-order:stroke fill markers"
       d="m 3082.5417,2122.9022 q -6.1227,0 -10.6773,-2.3147 -4.5547,-2.3147 -7.0934,-6.6453 -2.5387,-4.3307 -2.5387,-10.2294 0,-4.48 1.4187,-7.9893 1.4187,-3.584 4.1067,-6.048 2.688,-2.5387 6.4213,-3.8081 3.7334,-1.344 8.3627,-1.344 6.1227,0 10.6774,2.3147 4.5546,2.3147 7.0187,6.6454 2.5386,4.256 2.5386,10.2293 0,4.4054 -1.4187,7.9894 -1.4186,3.584 -4.1066,6.1227 -2.6134,2.4639 -6.4214,3.8079 -3.7333,1.2694 -8.288,1.2694 z m 0,-9.7813 q 2.016,0 3.584,-0.9707 1.568,-1.0454 2.3894,-3.0614 0.8959,-2.0906 0.8959,-5.376 0,-5.0027 -1.9413,-7.168 -1.9413,-2.24 -4.928,-2.24 -2.016,0 -3.584,0.9707 -1.568,0.9706 -2.464,3.0613 -0.896,2.016 -0.896,5.376 0,4.928 1.9413,7.168 1.9414,2.2401 5.0027,2.2401 z"
       id="path2250" />
    <path
       style="color:#000000;font-weight:300;font-size:19.7556px;font-family:nunito;-inkscape-font-specification:'Nunito Heavy';letter-spacing:-0.529167px;word-spacing:-0.0396875px;fill:#b5df57;stroke:none;stroke-width:11.3386;stroke-linecap:butt;stroke-linejoin:miter;stroke-miterlimit:3.2;paint-order:stroke fill markers"
       d="m 3113.4697,2122.7529 q -3.136,0 -4.8533,-1.7174 -1.7174,-1.7173 -1.7174,-5.0027 v -24.7147 q 0,-3.2106 1.6427,-4.928 1.7173,-1.7173 4.8533,-1.7173 3.136,0 4.7787,1.7173 1.6427,1.7174 1.6427,4.928 v 3.5094 l -0.8213,-3.0614 q 1.7919,-3.5093 5.0773,-5.376 3.36,-1.8667 7.616,-1.8667 4.4054,0 7.2427,1.7174 2.8374,1.6426 4.256,5.2267 1.4187,3.5093 1.4187,8.8853 v 15.68 q 0,3.2854 -1.7174,5.0027 -1.7173,1.7174 -4.928,1.7174 -3.2106,0 -4.928,-1.7174 -1.7173,-1.7173 -1.7173,-5.0027 v -15.1573 q 0,-3.36 -1.1947,-4.7787 -1.12,-1.4187 -3.36,-1.4187 -2.9867,0 -4.7787,1.9414 -1.792,1.8666 -1.792,5.0773 v 14.336 q 0,6.7201 -6.72,6.7201 z"
       id="path2256" />
  </g>
</svg>
